<svg width="319" height="220" viewBox="0 0 319 220" fill="none" xmlns="http://www.w3.org/2000/svg">
<circle cx="166.969" cy="97.4503" r="78.9689" fill="#FCF5E6"/>
<circle cx="167.151" cy="97.0791" r="68.8877" fill="white"/>
<circle cx="271.045" cy="99.0453" r="47.0453" fill="#FCF5E6"/>
<circle cx="271.231" cy="99.1606" r="41.0395" fill="white"/>
<circle cx="170.804" cy="181.804" r="37.8042" fill="#FCF5E6"/>
<circle cx="170.804" cy="181.803" r="32.9782" fill="white"/>
<circle cx="61.3989" cy="60.4868" r="60.4868" fill="#FCF5E6"/>
<circle cx="61.3998" cy="60.4863" r="52.7651" fill="white"/>
<path d="M127.595 129.073C128.003 129.23 128.425 129.351 128.855 129.434C129.38 129.527 129.911 129.572 130.444 129.569C131.045 129.574 131.644 129.5 132.226 129.35C132.717 129.217 133.181 128.998 133.596 128.703C133.96 128.422 134.249 128.055 134.436 127.635C134.651 127.154 134.757 126.632 134.747 126.106C134.759 125.663 134.682 125.223 134.52 124.811C134.393 124.476 134.198 124.17 133.949 123.912C133.7 123.674 133.417 123.476 133.108 123.324C132.805 123.167 132.486 123.041 132.158 122.945C131.839 122.853 131.52 122.777 131.225 122.719C130.931 122.66 130.646 122.609 130.385 122.559L129.452 122.332C129.143 122.262 128.84 122.169 128.544 122.055C128.284 121.957 128.045 121.812 127.838 121.626C127.742 121.537 127.665 121.43 127.613 121.309C127.561 121.189 127.534 121.059 127.536 120.928C127.531 120.673 127.62 120.424 127.788 120.231C127.953 120.041 128.156 119.89 128.385 119.785C128.615 119.669 128.862 119.587 129.116 119.541C129.342 119.488 129.573 119.46 129.805 119.457C130.381 119.457 130.951 119.565 131.486 119.777C132.021 120.003 132.531 120.285 133.007 120.617L134.1 119.079C133.781 118.852 133.478 118.659 133.201 118.499C132.898 118.318 132.58 118.164 132.251 118.037C131.909 117.915 131.558 117.822 131.2 117.76C130.769 117.696 130.333 117.665 129.897 117.667C129.392 117.673 128.888 117.726 128.393 117.827C127.897 117.923 127.423 118.105 126.989 118.365C126.57 118.623 126.219 118.977 125.964 119.399C125.685 119.899 125.548 120.465 125.569 121.038C125.558 121.417 125.628 121.794 125.772 122.144C125.917 122.495 126.134 122.811 126.409 123.072C126.66 123.312 126.943 123.515 127.25 123.677C127.559 123.836 127.883 123.965 128.216 124.063C128.528 124.163 128.845 124.245 129.166 124.307L130.007 124.458C130.36 124.517 130.704 124.593 131.041 124.669C131.33 124.733 131.612 124.829 131.881 124.954C132.123 125.052 132.339 125.204 132.511 125.4C132.679 125.593 132.769 125.842 132.764 126.097C132.762 126.312 132.708 126.523 132.604 126.711C132.487 126.929 132.323 127.118 132.125 127.266C131.9 127.429 131.65 127.554 131.385 127.635C131.056 127.738 130.713 127.787 130.368 127.778C129.665 127.779 128.97 127.624 128.334 127.324C127.733 127.041 127.154 126.712 126.603 126.341L125.544 127.913C125.863 128.131 126.182 128.35 126.485 128.535C126.825 128.747 127.182 128.929 127.553 129.081" fill="#231815"/>
<path d="M145.019 129.342H146.986V117.844H145.019V122.945H138.917V117.844H136.95V129.342H138.917V124.66H145.019V129.342Z" fill="#231815"/>
<path d="M150.986 127.812C151.534 128.355 152.178 128.791 152.886 129.098C153.615 129.413 154.402 129.573 155.197 129.569C155.997 129.572 156.789 129.412 157.525 129.098C158.229 128.789 158.87 128.353 159.416 127.812C159.962 127.267 160.398 126.622 160.702 125.913C161.018 125.18 161.178 124.391 161.173 123.593C161.175 122.796 161.015 122.007 160.702 121.273C160.401 120.56 159.964 119.913 159.416 119.365C158.87 118.825 158.229 118.389 157.525 118.079C156.789 117.766 155.997 117.606 155.197 117.609C154.402 117.605 153.615 117.765 152.886 118.079C152.178 118.386 151.534 118.822 150.986 119.365C150.441 119.913 150.007 120.561 149.709 121.273C149.398 122.007 149.238 122.796 149.238 123.593C149.238 124.39 149.398 125.179 149.709 125.913C150.01 126.622 150.443 127.266 150.986 127.812M151.524 122.013C151.924 121.03 152.68 120.234 153.642 119.786C154.131 119.556 154.665 119.438 155.205 119.441C155.746 119.44 156.279 119.558 156.769 119.786C157.242 120.007 157.669 120.315 158.03 120.693C158.39 121.077 158.675 121.524 158.87 122.013C159.081 122.513 159.189 123.05 159.189 123.593C159.189 124.136 159.081 124.673 158.87 125.173C158.67 125.662 158.385 126.111 158.03 126.501C157.669 126.882 157.242 127.192 156.769 127.417C156.279 127.645 155.745 127.762 155.205 127.762C154.665 127.762 154.132 127.645 153.642 127.417C153.167 127.192 152.736 126.882 152.373 126.501C152.02 126.109 151.735 125.66 151.532 125.173C151.322 124.673 151.213 124.136 151.213 123.593C151.213 123.05 151.322 122.513 151.532 122.013" fill="#231815"/>
<path d="M166.182 129.359L169.502 122.29L172.78 129.342H172.813L177.1 117.861H175.007L172.57 124.56L169.485 117.894L166.4 124.551L164.022 117.861H161.92L166.165 129.359H166.182Z" fill="#231815"/>
<path d="M188.859 129.342V117.861H186.884V125.156L178.941 117.861H178.899V129.342H180.866V122.164L188.808 129.342H188.859Z" fill="#231815"/>
<path d="M194.012 117.861H192.036V129.351H194.012V117.861Z" fill="#231815"/>
<path d="M198.306 127.812C198.854 128.355 199.498 128.791 200.206 129.098C200.936 129.413 201.723 129.573 202.517 129.569C203.317 129.572 204.109 129.412 204.845 129.098C205.241 128.924 205.619 128.71 205.972 128.46L206.073 128.392L207.19 129.51L208.376 128.317L207.266 127.207L207.342 127.115C207.612 126.741 207.841 126.337 208.023 125.913C208.338 125.18 208.498 124.391 208.493 123.593C208.495 122.796 208.335 122.007 208.023 121.273C207.721 120.56 207.284 119.913 206.737 119.365C206.192 118.823 205.55 118.387 204.845 118.079C204.109 117.766 203.317 117.606 202.517 117.609C201.723 117.605 200.936 117.765 200.206 118.079C199.498 118.386 198.854 118.822 198.306 119.365C197.761 119.913 197.328 120.561 197.029 121.273C196.718 122.007 196.558 122.796 196.558 123.593C196.558 124.39 196.718 125.179 197.029 125.913C197.33 126.622 197.763 127.266 198.306 127.812M198.844 122.013C199.035 121.522 199.321 121.074 199.685 120.693C200.044 120.314 200.472 120.006 200.946 119.786C201.435 119.558 201.969 119.441 202.509 119.441C203.049 119.441 203.582 119.558 204.072 119.786C205.034 120.234 205.791 121.03 206.19 122.013C206.601 123.026 206.601 124.16 206.19 125.173C206.123 125.325 206.047 125.476 205.955 125.652L205.862 125.812L204.392 124.35L203.206 125.535L204.703 127.039L204.56 127.14C204.383 127.249 204.223 127.342 204.072 127.417C203.582 127.645 203.049 127.762 202.509 127.762C201.969 127.762 201.435 127.645 200.946 127.417C200.472 127.193 200.044 126.883 199.685 126.501C199.326 126.113 199.041 125.663 198.844 125.173C198.633 124.673 198.525 124.136 198.525 123.593C198.525 123.05 198.633 122.513 198.844 122.013" fill="#231815"/>
<path d="M156.819 76.6504L146.582 70.7417V82.5424L146.599 82.5508L156.819 76.6504Z" fill="url(#paint0_linear_18_522)"/>
<path d="M156.819 88.4514L146.582 94.3601L167.04 106.178V94.3601L156.819 88.4514Z" fill="url(#paint1_linear_18_522)"/>
<path d="M187.489 82.5512L177.26 76.6677L167.039 82.5512L156.81 76.6677L146.598 82.5512L156.819 88.4348L167.039 94.3183L177.268 88.4348L187.489 82.5512Z" fill="url(#paint2_linear_18_522)"/>
<path d="M187.496 82.5583V82.551H187.489L187.496 82.5583Z" fill="#FFF000"/>
<path d="M177.277 88.4599L167.048 94.3602H167.039V106.178L177.277 100.269L187.497 94.3602V82.5596L177.277 88.4599Z" fill="url(#paint3_linear_18_522)"/>
<path d="M167.04 58.9243L156.811 64.833L146.582 70.7418L156.819 76.6505L167.04 82.5508L177.269 76.6505L187.498 70.7418L167.04 58.9243Z" fill="url(#paint4_linear_18_522)"/>
<path fill-rule="evenodd" clip-rule="evenodd" d="M290.173 92.9518L287.94 84.0519C287.818 83.5554 287.369 83.2083 286.857 83.2083H257.832C257.32 83.2083 256.872 83.5554 256.749 84.0519L254.516 92.9518C254.494 93.0387 254.483 93.1294 254.483 93.2207C254.483 95.0855 255.369 96.7293 256.715 97.7396V113.246C256.715 113.859 257.216 114.358 257.832 114.358H286.857C287.474 114.358 287.974 113.859 287.974 113.246V97.7396C289.32 96.7293 290.207 95.085 290.207 93.2207C290.207 93.1294 290.195 93.0387 290.173 92.9518V92.9518ZM281.834 93.2207C281.834 95.0605 283.211 96.5582 284.904 96.5582C286.556 96.5582 287.909 95.1301 287.974 93.35L285.987 85.4332H258.705L256.718 93.35C256.78 95.1301 258.133 96.5582 259.785 96.5582C261.478 96.5582 262.855 95.0605 262.855 93.2207C262.855 92.6069 263.356 92.1082 263.972 92.1082C264.588 92.1082 265.088 92.6069 265.088 93.2207C265.088 95.0605 266.466 96.5582 268.158 96.5582C269.851 96.5582 271.228 95.0605 271.228 93.2207C271.228 92.6069 271.729 92.1082 272.345 92.1082C272.961 92.1082 273.461 92.6069 273.461 93.2207C273.461 95.0605 274.838 96.5582 276.531 96.5582C278.224 96.5582 279.601 95.0605 279.601 93.2207C279.601 92.6069 280.101 92.1082 280.717 92.1082C281.334 92.1082 281.834 92.6069 281.834 93.2207ZM258.948 112.133V98.694C259.223 98.7408 259.499 98.7831 259.785 98.7831C261.487 98.7831 263.001 97.9401 263.972 96.632C264.943 97.9406 266.457 98.7831 268.158 98.7831C269.859 98.7831 271.373 97.9401 272.345 96.632C273.316 97.9406 274.83 98.7831 276.531 98.7831C278.232 98.7831 279.746 97.9401 280.717 96.632C281.689 97.9406 283.203 98.7831 284.904 98.7831C285.19 98.7831 285.466 98.7408 285.741 98.694V112.133H258.948Z" fill="#100F0F"/>
<g clip-path="url(#clip0_18_522)">
<path d="M192.164 171.255C191.622 172.719 191.075 174.18 190.537 175.645C189.958 177.227 189.387 178.812 188.811 180.394C188.77 180.506 188.719 180.613 188.662 180.748C186.931 180.172 185.223 179.605 183.463 179.02C183.463 185.705 183.463 192.339 183.463 199.008C175.324 199.008 167.224 199.008 159.073 199.008C159.073 192.363 159.073 185.718 159.073 179.013C157.3 179.602 155.592 180.169 153.835 180.753C152.673 177.561 151.519 174.389 150.354 171.19C150.473 171.115 150.583 171.041 150.697 170.976C154.533 168.783 158.367 166.588 162.208 164.405C162.408 164.29 162.664 164.222 162.894 164.219C164.213 164.201 165.531 164.21 166.892 164.21C166.941 165.766 167.619 166.969 168.868 167.836C169.678 168.397 170.597 168.612 171.577 168.548C173.464 168.427 175.504 166.864 175.632 164.236C175.757 164.228 175.887 164.211 176.018 164.211C177.229 164.209 178.44 164.202 179.651 164.218C179.857 164.22 180.084 164.28 180.262 164.381C184.231 166.64 188.196 168.907 192.162 171.173C192.164 171.201 192.164 171.227 192.164 171.255ZM154.89 178.564C156.881 177.903 158.82 177.258 160.809 176.599C160.809 183.534 160.809 190.401 160.809 197.285C167.787 197.285 174.731 197.285 181.709 197.285C181.709 190.395 181.709 183.529 181.709 176.601C183.706 177.263 185.654 177.91 187.622 178.563C188.389 176.452 189.129 174.395 189.891 172.346C190.006 172.039 189.951 171.905 189.67 171.745C186.808 170.124 183.93 168.528 181.11 166.836C180.016 166.181 178.934 165.817 177.66 165.929C177.237 165.966 177.039 166.06 176.883 166.472C175.907 169.065 173.062 170.699 170.338 170.222C168.042 169.82 166.439 168.523 165.575 166.35C165.448 166.031 165.298 165.92 164.962 165.938C164.447 165.967 163.927 165.924 163.412 165.954C163.153 165.97 162.873 166.033 162.65 166.159C159.399 168.003 156.156 169.862 152.91 171.716C152.782 171.79 152.656 171.868 152.493 171.966C153.288 174.156 154.08 176.334 154.89 178.564Z" fill="black"/>
</g>
<path d="M54.6345 40.0672C54.6327 38.8679 54.983 37.6945 55.6419 36.6925C56.3009 35.6905 57.2396 34.904 58.3414 34.4305C59.4433 33.9571 60.6599 33.8176 61.8404 34.0293C63.0208 34.241 64.1132 34.7946 64.9819 35.6214C65.8506 36.4482 66.4574 37.5119 66.7271 38.6805C66.9968 39.849 66.9175 41.0711 66.499 42.195C66.0806 43.3189 65.3413 44.2952 64.3731 45.0028C63.4048 45.7104 62.2501 46.1182 61.0522 46.1756" stroke="black" stroke-width="3.04658" stroke-linecap="round" stroke-linejoin="round"/>
<path d="M61.0518 52.4549V46.1909" stroke="black" stroke-width="3.04658" stroke-linecap="round" stroke-linejoin="round"/>
<path d="M62.2216 52.7299C61.8591 52.5462 61.4584 52.4504 61.0519 52.4504C60.6455 52.4504 60.2448 52.5462 59.8823 52.7299L33.0728 66.2822V79.2117H89.0311V66.2822L62.2216 52.7299Z" stroke="black" stroke-width="3.04658" stroke-linejoin="round"/>
<defs>
<linearGradient id="paint0_linear_18_522" x1="146.59" y1="82.5424" x2="151.701" y2="73.6919" gradientUnits="userSpaceOnUse">
<stop stop-color="#C8C9CA"/>
<stop offset="0.03" stop-color="#BDBDBE"/>
<stop offset="0.14" stop-color="#959494"/>
<stop offset="0.24" stop-color="#757373"/>
<stop offset="0.34" stop-color="#5E5C5B"/>
<stop offset="0.44" stop-color="#514E4D"/>
<stop offset="0.52" stop-color="#4C4948"/>
<stop offset="1" stop-color="#231815"/>
</linearGradient>
<linearGradient id="paint1_linear_18_522" x1="156.811" y1="106.178" x2="156.811" y2="88.4514" gradientUnits="userSpaceOnUse">
<stop stop-color="#C8C9CA"/>
<stop offset="0.03" stop-color="#BDBDBE"/>
<stop offset="0.14" stop-color="#959494"/>
<stop offset="0.24" stop-color="#757373"/>
<stop offset="0.34" stop-color="#5E5C5B"/>
<stop offset="0.44" stop-color="#514E4D"/>
<stop offset="0.52" stop-color="#4C4948"/>
<stop offset="1" stop-color="#231815"/>
</linearGradient>
<linearGradient id="paint2_linear_18_522" x1="167.048" y1="94.3603" x2="167.048" y2="76.6425" gradientUnits="userSpaceOnUse">
<stop stop-color="#C8C9CA"/>
<stop offset="0.03" stop-color="#BDBDBE"/>
<stop offset="0.14" stop-color="#959494"/>
<stop offset="0.24" stop-color="#757373"/>
<stop offset="0.34" stop-color="#5E5C5B"/>
<stop offset="0.44" stop-color="#514E4D"/>
<stop offset="0.52" stop-color="#4C4948"/>
<stop offset="1" stop-color="#231815"/>
</linearGradient>
<linearGradient id="paint3_linear_18_522" x1="172.15" y1="89.25" x2="182.387" y2="99.4789" gradientUnits="userSpaceOnUse">
<stop stop-color="#C8C9CA"/>
<stop offset="0.03" stop-color="#BDBDBE"/>
<stop offset="0.14" stop-color="#959494"/>
<stop offset="0.24" stop-color="#757373"/>
<stop offset="0.34" stop-color="#5E5C5B"/>
<stop offset="0.44" stop-color="#514E4D"/>
<stop offset="0.52" stop-color="#4C4948"/>
<stop offset="1" stop-color="#231815"/>
</linearGradient>
<linearGradient id="paint4_linear_18_522" x1="167.04" y1="82.5508" x2="167.04" y2="58.9243" gradientUnits="userSpaceOnUse">
<stop stop-color="#C8C9CA"/>
<stop offset="0.03" stop-color="#BDBDBE"/>
<stop offset="0.14" stop-color="#959494"/>
<stop offset="0.24" stop-color="#757373"/>
<stop offset="0.34" stop-color="#5E5C5B"/>
<stop offset="0.44" stop-color="#514E4D"/>
<stop offset="0.52" stop-color="#4C4948"/>
<stop offset="1" stop-color="#231815"/>
</linearGradient>
<clipPath id="clip0_18_522">
<rect width="41.8101" height="34.8014" fill="white" transform="translate(150.354 164.208)"/>
</clipPath>
</defs>
</svg>
