<svg width="579" height="346" viewBox="0 0 579 346" fill="none" xmlns="http://www.w3.org/2000/svg">
<path d="M1.99756 21.114H553.404" stroke="#666666" stroke-opacity="0.3" stroke-width="0.650244" stroke-dasharray="2.6"/>
<path d="M88.6211 21.7371L88.6211 313.895" stroke="#666666" stroke-opacity="0.3" stroke-width="0.650244" stroke-dasharray="2.6"/>
<path d="M180.046 21.7371L180.046 313.895" stroke="#666666" stroke-opacity="0.3" stroke-width="0.650244" stroke-dasharray="2.6"/>
<path d="M272.749 21.7371L272.749 313.895" stroke="#666666" stroke-opacity="0.3" stroke-width="0.650244" stroke-dasharray="2.6"/>
<path d="M364.812 21.7371L364.812 313.895" stroke="#666666" stroke-opacity="0.3" stroke-width="0.650244" stroke-dasharray="2.6"/>
<path d="M458.794 21.7371L458.794 313.895" stroke="#666666" stroke-opacity="0.3" stroke-width="0.650244" stroke-dasharray="2.6"/>
<path d="M550.857 21.7371L550.857 313.895" stroke="#666666" stroke-opacity="0.3" stroke-width="0.650244" stroke-dasharray="2.6"/>
<path d="M1.99756 53.301H553.404" stroke="#666666" stroke-opacity="0.3" stroke-width="0.650244" stroke-dasharray="2.6"/>
<path d="M1.99756 85.8132H553.404" stroke="#666666" stroke-opacity="0.3" stroke-width="0.650244" stroke-dasharray="2.6"/>
<path d="M1.99756 118.326H553.404" stroke="#666666" stroke-opacity="0.3" stroke-width="0.650244" stroke-dasharray="2.6"/>
<path d="M1.99756 150.838H553.404" stroke="#666666" stroke-opacity="0.3" stroke-width="0.650244" stroke-dasharray="2.6"/>
<path d="M1.99756 183.35H553.404" stroke="#666666" stroke-opacity="0.3" stroke-width="0.650244" stroke-dasharray="2.6"/>
<path d="M1.99756 215.862H553.404" stroke="#666666" stroke-opacity="0.3" stroke-width="0.650244" stroke-dasharray="2.6"/>
<path d="M1.99756 248.375H553.404" stroke="#666666" stroke-opacity="0.3" stroke-width="0.650244" stroke-dasharray="2.6"/>
<path d="M1.99756 280.886H553.404" stroke="#666666" stroke-opacity="0.3" stroke-width="0.650244" stroke-dasharray="2.6"/>
<path d="M1.67236 313.4L554.054 313.4" stroke="black" stroke-opacity="0.4" stroke-width="2.60097"/>
<path d="M8.5 297.468L20.8546 281.862H31.5836L53.3668 215.862L65.3963 232.768H108.963L121.642 184.65L144.076 215.862L167.159 152.138H186.992L200.647 136.532H253.967L266.972 119.626H288.105L313.139 86.4636L323.868 119.626H345.651L371.336 152.138H402.548L413.602 119.626H424.331L436.035 103.37H479.927L492.281 119.626L504.961 86.4636H524.793L549.178 55.9021" stroke="#6CD4CB" stroke-width="2.9261"/>
<circle cx="7.52463" cy="296.818" r="4.22658" fill="white" stroke="#404641" stroke-width="2.60097"/>
<circle cx="88.8049" cy="231.793" r="4.22658" fill="white" stroke="#404641" stroke-width="2.60097"/>
<circle cx="168.134" cy="150.513" r="4.22658" fill="white" stroke="#404641" stroke-width="2.60097"/>
<circle cx="311.839" cy="85.4885" r="4.22658" fill="white" stroke="#404641" stroke-width="2.60097"/>
<circle cx="369.06" cy="150.513" r="4.22658" fill="white" stroke="#404641" stroke-width="2.60097"/>
<circle cx="446.439" cy="101.745" r="4.22658" fill="white" stroke="#404641" stroke-width="2.60097"/>
<circle cx="521.867" cy="85.4885" r="4.22658" fill="white" stroke="#404641" stroke-width="2.60097"/>
<circle cx="548.527" cy="55.5769" r="4.22658" fill="white" stroke="#FF0000" stroke-width="2.60097"/>
<path d="M359 263.64L382.916 263.64" stroke="#6CD4CB" stroke-width="2.33964"/>
<path d="M387.25 268.801L389.846 264.035L387.413 259.555H389.459L390.382 261.464C390.607 261.901 390.794 262.35 391.069 262.924H391.131C391.356 262.35 391.543 261.901 391.742 261.464L392.616 259.555H394.563L392.129 264.122L394.725 268.801H392.678L391.643 266.755C391.406 266.281 391.193 265.794 390.919 265.233H390.869C390.644 265.794 390.42 266.281 390.195 266.755L389.209 268.801H387.25ZM397.694 268.976C395.735 268.976 394.213 267.616 394.213 265.307C394.213 263.049 395.81 261.639 397.47 261.639C399.391 261.639 400.39 263.049 400.39 264.97C400.39 265.32 400.352 265.657 400.302 265.819H395.997C396.147 266.967 396.896 267.566 397.932 267.566C398.506 267.566 399.005 267.391 399.504 267.079L400.128 268.202C399.441 268.676 398.555 268.976 397.694 268.976ZM395.972 264.596H398.818C398.818 263.66 398.393 263.061 397.495 263.061C396.759 263.061 396.11 263.585 395.972 264.596ZM395.96 260.778L395.374 260.104L396.709 258.806H398.181L399.516 260.104L398.93 260.778L397.47 259.83H397.42L395.96 260.778ZM399.766 259.78L399.067 259.218L400.215 257.434L401.213 258.095L399.766 259.78ZM400.86 271.484V261.814H402.358L402.495 262.537H402.532C403.119 262.038 403.843 261.639 404.591 261.639C406.313 261.639 407.337 263.049 407.337 265.195C407.337 267.591 405.902 268.976 404.367 268.976C403.755 268.976 403.169 268.701 402.632 268.215L402.695 269.363V271.484H400.86ZM403.955 267.466C404.804 267.466 405.452 266.742 405.452 265.22C405.452 263.885 405.028 263.149 404.067 263.149C403.593 263.149 403.169 263.386 402.695 263.872V266.942C403.131 267.329 403.581 267.466 403.955 267.466ZM409.638 268.801V258.844H411.472V261.352L411.385 262.662C411.947 262.138 412.633 261.639 413.581 261.639C415.091 261.639 415.74 262.687 415.74 264.446V268.801H413.906V264.671C413.906 263.585 413.606 263.211 412.92 263.211C412.346 263.211 411.984 263.486 411.472 263.997V268.801H409.638ZM418.302 268.976C417.054 268.976 416.231 268.09 416.231 266.905C416.231 265.407 417.441 264.621 420.261 264.322C420.223 263.635 419.924 263.111 419.063 263.111C418.414 263.111 417.79 263.398 417.141 263.773L416.48 262.562C417.304 262.051 418.302 261.639 419.4 261.639C421.172 261.639 422.083 262.699 422.083 264.721V268.801H420.585L420.461 268.053H420.411C419.799 268.577 419.1 268.976 418.302 268.976ZM418.901 267.541C419.425 267.541 419.812 267.291 420.261 266.855V265.445C418.551 265.657 417.977 266.131 417.977 266.755C417.977 267.304 418.364 267.541 418.901 267.541ZM419.2 271.921C418.564 271.921 418.127 271.534 418.127 270.923C418.127 270.311 418.564 269.924 419.2 269.924C419.824 269.924 420.261 270.311 420.261 270.923C420.261 271.534 419.824 271.921 419.2 271.921ZM422.912 268.801V261.814H424.41L424.547 262.737H424.584C425.196 262.138 425.907 261.639 426.855 261.639C428.365 261.639 429.014 262.687 429.014 264.446V268.801H427.18V264.671C427.18 263.585 426.88 263.211 426.194 263.211C425.62 263.211 425.258 263.486 424.747 263.997V268.801H422.912ZM432.324 271.833C430.677 271.833 429.405 271.272 429.405 270.037C429.405 269.45 429.766 268.951 430.403 268.589V268.527C430.041 268.29 429.766 267.928 429.766 267.354C429.766 266.83 430.128 266.343 430.553 266.044V265.994C430.066 265.644 429.617 264.983 429.617 264.159C429.617 262.525 430.952 261.639 432.437 261.639C432.824 261.639 433.198 261.714 433.485 261.814H436.006V263.161H434.82C434.995 263.398 435.132 263.785 435.132 264.222C435.132 265.794 433.934 266.593 432.437 266.593C432.162 266.593 431.838 266.53 431.538 266.43C431.351 266.593 431.239 266.742 431.239 267.029C431.239 267.404 431.513 267.603 432.337 267.603H433.522C435.207 267.603 436.13 268.127 436.13 269.35C436.13 270.76 434.658 271.833 432.324 271.833ZM432.437 265.457C433.048 265.457 433.535 264.995 433.535 264.159C433.535 263.348 433.061 262.887 432.437 262.887C431.813 262.887 431.339 263.348 431.339 264.159C431.339 264.995 431.825 265.457 432.437 265.457ZM432.599 270.673C433.647 270.673 434.371 270.211 434.371 269.662C434.371 269.163 433.959 269.038 433.21 269.038H432.362C431.938 269.038 431.638 269.001 431.389 268.939C431.077 269.188 430.939 269.463 430.939 269.75C430.939 270.336 431.588 270.673 432.599 270.673ZM445.321 260.254V264.646C445.321 267.716 444.011 268.976 441.753 268.976C439.507 268.976 438.159 267.716 438.159 264.646V259.555H440.006V264.808C440.006 266.73 440.68 267.379 441.753 267.379C442.851 267.379 443.549 266.73 443.549 264.808V259.555H444.385C445.009 259.505 445.583 259.318 445.583 258.482C445.583 258.145 445.484 257.808 445.371 257.583L446.744 257.022C446.956 257.334 447.143 257.833 447.143 258.357C447.143 259.493 446.419 260.029 445.321 260.254ZM441.565 259.106L440.767 258.182L443.063 256.248L444.049 257.446L441.565 259.106ZM446.585 268.801V261.814H448.082L448.22 262.737H448.257C448.868 262.138 449.58 261.639 450.528 261.639C452.038 261.639 452.687 262.687 452.687 264.446V268.801H450.852V264.671C450.852 263.585 450.553 263.211 449.867 263.211C449.293 263.211 448.931 263.486 448.419 263.997V268.801H446.585ZM455.997 271.833C454.35 271.833 453.077 271.272 453.077 270.037C453.077 269.45 453.439 268.951 454.075 268.589V268.527C453.714 268.29 453.439 267.928 453.439 267.354C453.439 266.83 453.801 266.343 454.225 266.044V265.994C453.739 265.644 453.289 264.983 453.289 264.159C453.289 262.525 454.625 261.639 456.109 261.639C456.496 261.639 456.871 261.714 457.158 261.814H459.678V263.161H458.493C458.667 263.398 458.805 263.785 458.805 264.222C458.805 265.794 457.607 266.593 456.109 266.593C455.835 266.593 455.51 266.53 455.211 266.43C455.024 266.593 454.912 266.742 454.912 267.029C454.912 267.404 455.186 267.603 456.01 267.603H457.195C458.88 267.603 459.803 268.127 459.803 269.35C459.803 270.76 458.331 271.833 455.997 271.833ZM456.109 265.457C456.721 265.457 457.207 264.995 457.207 264.159C457.207 263.348 456.733 262.887 456.109 262.887C455.486 262.887 455.011 263.348 455.011 264.159C455.011 264.995 455.498 265.457 456.109 265.457ZM456.272 270.673C457.32 270.673 458.044 270.211 458.044 269.662C458.044 269.163 457.632 269.038 456.883 269.038H456.035C455.61 269.038 455.311 269.001 455.061 268.939C454.749 269.188 454.612 269.463 454.612 269.75C454.612 270.336 455.261 270.673 456.272 270.673ZM464.19 268.976C462.455 268.976 461.332 267.603 461.332 265.307C461.332 263.036 462.755 261.639 464.265 261.639C465.051 261.639 465.538 261.938 466.037 262.4L465.974 261.302V258.844H467.796V268.801H466.311L466.174 268.078H466.124C465.612 268.577 464.914 268.976 464.19 268.976ZM464.664 267.466C465.151 267.466 465.563 267.266 465.974 266.742V263.673C465.55 263.286 465.101 263.149 464.664 263.149C463.878 263.149 463.217 263.897 463.217 265.295C463.217 266.742 463.741 267.466 464.664 267.466ZM470.806 268.976C469.296 268.976 468.647 267.928 468.647 266.181V261.814H470.482V265.944C470.482 267.017 470.781 267.404 471.455 267.404C472.029 267.404 472.403 267.154 472.877 266.53V261.814H474.712V268.801H473.214L473.077 267.803H473.027C472.428 268.514 471.754 268.976 470.806 268.976ZM471.655 271.921C471.031 271.921 470.594 271.534 470.594 270.923C470.594 270.311 471.031 269.924 471.655 269.924C472.291 269.924 472.728 270.311 472.728 270.923C472.728 271.534 472.291 271.921 471.655 271.921ZM475.627 268.801V261.814H477.125L477.262 262.737H477.299C477.911 262.138 478.622 261.639 479.57 261.639C481.08 261.639 481.729 262.687 481.729 264.446V268.801H479.895V264.671C479.895 263.585 479.595 263.211 478.909 263.211C478.335 263.211 477.973 263.486 477.462 263.997V268.801H475.627ZM485.04 271.833C483.392 271.833 482.12 271.272 482.12 270.037C482.12 269.45 482.482 268.951 483.118 268.589V268.527C482.756 268.29 482.482 267.928 482.482 267.354C482.482 266.83 482.843 266.343 483.268 266.044V265.994C482.781 265.644 482.332 264.983 482.332 264.159C482.332 262.525 483.667 261.639 485.152 261.639C485.539 261.639 485.913 261.714 486.2 261.814H488.721V263.161H487.535C487.71 263.398 487.847 263.785 487.847 264.222C487.847 265.794 486.649 266.593 485.152 266.593C484.877 266.593 484.553 266.53 484.253 266.43C484.066 266.593 483.954 266.742 483.954 267.029C483.954 267.404 484.228 267.603 485.052 267.603H486.237C487.922 267.603 488.845 268.127 488.845 269.35C488.845 270.76 487.373 271.833 485.04 271.833ZM485.152 265.457C485.763 265.457 486.25 264.995 486.25 264.159C486.25 263.348 485.776 262.887 485.152 262.887C484.528 262.887 484.054 263.348 484.054 264.159C484.054 264.995 484.54 265.457 485.152 265.457ZM485.314 270.673C486.362 270.673 487.086 270.211 487.086 269.662C487.086 269.163 486.674 269.038 485.925 269.038H485.077C484.653 269.038 484.353 269.001 484.104 268.939C483.792 269.188 483.654 269.463 483.654 269.75C483.654 270.336 484.303 270.673 485.314 270.673ZM493.682 268.976C492.446 268.976 491.211 268.489 490.312 267.628L491.373 266.356C492.034 266.967 492.908 267.379 493.719 267.379C494.68 267.379 495.191 266.967 495.191 266.318C495.191 265.632 494.63 265.42 493.806 265.07L492.571 264.546C491.635 264.159 490.699 263.411 490.699 262.063C490.699 260.553 492.022 259.393 493.894 259.393C494.967 259.393 496.04 259.817 496.789 260.578L495.853 261.739C495.266 261.252 494.655 260.978 493.894 260.978C493.083 260.978 492.571 261.339 492.571 261.951C492.571 262.612 493.22 262.849 494.006 263.161L495.216 263.673C496.339 264.134 497.076 264.846 497.076 266.181C497.076 267.691 495.815 268.976 493.682 268.976ZM497.671 268.801V259.555H499.517V263.199H503.011V259.555H504.846V268.801H503.011V264.808H499.517V268.801H497.671ZM509.743 268.976C507.298 268.976 505.613 267.142 505.613 264.147C505.613 261.14 507.298 259.393 509.743 259.393C512.189 259.393 513.874 261.152 513.874 264.147C513.874 267.142 512.189 268.976 509.743 268.976ZM509.743 267.379C511.116 267.379 511.989 266.118 511.989 264.147C511.989 262.163 511.116 260.978 509.743 260.978C508.371 260.978 507.497 262.163 507.497 264.147C507.497 266.118 508.371 267.379 509.743 267.379ZM515.474 268.801L513.702 259.555H515.574L516.31 264.072C516.447 265.045 516.597 266.019 516.734 267.017H516.784C516.971 266.019 517.171 265.033 517.371 264.072L518.444 259.555H520.029L521.089 264.072C521.289 265.02 521.476 266.019 521.676 267.017H521.738C521.875 266.019 522.013 265.033 522.15 264.072L522.886 259.555H524.633L522.923 268.801H520.628L519.592 264.234C519.442 263.511 519.305 262.799 519.193 262.088H519.143C519.018 262.799 518.893 263.511 518.743 264.234L517.733 268.801H515.474ZM524.979 268.801V259.555H526.863L529.546 264.484L530.469 266.48H530.531C530.444 265.52 530.294 264.297 530.294 263.249V259.555H532.041V268.801H530.17L527.499 263.86L526.563 261.876H526.501C526.588 262.874 526.726 264.035 526.726 265.095V268.801H524.979ZM533.285 268.801V259.555H535.132V268.801H533.285ZM540.033 267.466C541.405 267.466 542.279 266.218 542.279 264.147C542.279 262.163 541.405 260.978 540.033 260.978C538.66 260.978 537.787 262.163 537.787 264.147C537.787 266.218 538.66 267.466 540.033 267.466ZM543.015 271.309C541.131 271.309 539.821 270.299 539.184 268.901C537.213 268.527 535.902 266.78 535.902 264.147C535.902 261.14 537.587 259.393 540.033 259.393C542.478 259.393 544.163 261.152 544.163 264.147C544.163 266.668 542.965 268.365 541.131 268.839C541.555 269.537 542.391 269.824 543.227 269.824C543.626 269.824 543.976 269.762 544.238 269.675L544.575 271.035C544.25 271.185 543.689 271.309 543.015 271.309Z" fill="#231815"/>
<circle cx="370.698" cy="263.9" r="3.37948" fill="white" stroke="#404641" stroke-width="2.07968"/>
<path d="M1.99756 345.558L1.99756 -7.9006e-05" stroke="black" stroke-opacity="0.4" stroke-width="2.60097"/>
<path d="M39.9937 287.675V278.251H41.477V282.1H45.5048V278.251H46.988V287.675H45.5048V283.391H41.477V287.675H39.9937ZM49.9831 282.56L49.5995 283.826H52.1696L51.7988 282.56C51.4791 281.537 51.1978 280.488 50.9165 279.427H50.8526C50.584 280.501 50.2899 281.537 49.9831 282.56ZM46.9399 287.675L50.0598 278.251H51.7732L54.8931 287.675H53.3204L52.5276 284.989H49.2542L48.4487 287.675H46.9399ZM50.9037 290.731C50.3539 290.731 49.9831 290.385 49.9831 289.835C49.9831 289.324 50.3539 288.979 50.9037 288.979C51.4407 288.979 51.8116 289.324 51.8116 289.835C51.8116 290.385 51.4407 290.731 50.9037 290.731ZM54.8557 287.675V278.251H56.3773L59.4972 283.787L60.4818 285.782H60.5457C60.469 284.81 60.3539 283.672 60.3539 282.649V278.251H61.7604V287.675H60.2388L57.1189 282.125L56.1343 280.156H56.0704C56.1471 281.128 56.2622 282.215 56.2622 283.238V287.675H54.8557ZM66.8032 287.841C64.297 287.841 62.4557 286.076 62.4557 282.995C62.4557 279.926 64.3481 278.085 66.8415 278.085C68.1713 278.085 69.0664 278.673 69.6418 279.274L68.849 280.22C68.3759 279.747 67.8005 279.376 66.8927 279.376C65.1409 279.376 63.9773 280.731 63.9773 282.944C63.9773 285.181 65.013 286.549 66.9566 286.549C67.532 286.549 68.1074 286.383 68.4399 286.089V283.877H66.573V282.662H69.7824V286.741C69.1559 287.368 68.0946 287.841 66.8032 287.841ZM73.1631 287.675V286.818C75.7844 284.248 77.3699 282.611 77.3699 281.179C77.3699 280.182 76.8329 279.517 75.7716 279.517C75.03 279.517 74.4162 279.99 73.9175 280.565L73.0864 279.747C73.8919 278.877 74.7231 278.34 75.9506 278.34C77.6768 278.34 78.7892 279.44 78.7892 281.102C78.7892 282.777 77.2676 284.465 75.3113 286.511C75.7844 286.46 76.3853 286.421 76.8457 286.421H79.2368V287.675H73.1631ZM79.1768 287.675V286.818C81.7981 284.248 83.3836 282.611 83.3836 281.179C83.3836 280.182 82.8466 279.517 81.7853 279.517C81.0437 279.517 80.4299 279.99 79.9312 280.565L79.1001 279.747C79.9057 278.877 80.7368 278.34 81.9643 278.34C83.6905 278.34 84.8029 279.44 84.8029 281.102C84.8029 282.777 83.2813 284.465 81.325 286.511C81.7981 286.46 82.399 286.421 82.8594 286.421H85.2505V287.675H79.1768Z" fill="#231815"/>
<path d="M114.795 241.004V231.58H116.279V235.429H120.307V231.58H121.79V241.004H120.307V236.72H116.279V241.004H114.795ZM124.785 235.889L124.401 237.155H126.971L126.601 235.889C126.281 234.866 126 233.818 125.718 232.756H125.654C125.386 233.83 125.092 234.866 124.785 235.889ZM121.742 241.004L124.862 231.58H126.575L129.695 241.004H128.122L127.329 238.318H124.056L123.25 241.004H121.742ZM125.705 244.06C125.156 244.06 124.785 243.714 124.785 243.165C124.785 242.653 125.156 242.308 125.705 242.308C126.242 242.308 126.613 242.653 126.613 243.165C126.613 243.714 126.242 244.06 125.705 244.06ZM129.657 241.004V231.58H131.179L134.299 237.117L135.284 239.111H135.347C135.271 238.139 135.156 237.001 135.156 235.979V231.58H136.562V241.004H135.041L131.921 235.454L130.936 233.485H130.872C130.949 234.457 131.064 235.544 131.064 236.567V241.004H129.657ZM141.605 241.17C139.099 241.17 137.257 239.405 137.257 236.324C137.257 233.255 139.15 231.414 141.643 231.414C142.973 231.414 143.868 232.002 144.444 232.603L143.651 233.549C143.178 233.076 142.602 232.705 141.694 232.705C139.943 232.705 138.779 234.061 138.779 236.273C138.779 238.51 139.815 239.878 141.758 239.878C142.334 239.878 142.909 239.712 143.242 239.418V237.206H141.375V235.991H144.584V240.07C143.958 240.697 142.896 241.17 141.605 241.17ZM148.502 241.004V239.789H150.561V233.498H148.873V232.564C149.755 232.411 150.382 232.181 150.919 231.848H152.031V239.789H153.872V241.004H148.502ZM157.073 241.17C155.308 241.17 154.004 240.121 154.004 238.664C154.004 237.5 154.822 236.72 155.692 236.26V236.209C154.989 235.71 154.426 235.032 154.426 234.073C154.426 232.616 155.577 231.669 157.111 231.669C158.748 231.669 159.771 232.68 159.771 234.124C159.771 235.071 159.106 235.851 158.531 236.273V236.337C159.362 236.822 160.116 237.475 160.116 238.702C160.116 240.096 158.889 241.17 157.073 241.17ZM157.687 235.902C158.237 235.39 158.531 234.828 158.531 234.214C158.531 233.37 158.006 232.731 157.086 232.731C156.319 232.731 155.743 233.242 155.743 234.073C155.743 235.058 156.638 235.493 157.687 235.902ZM157.099 240.109C158.07 240.109 158.722 239.546 158.722 238.664C158.722 237.577 157.687 237.206 156.408 236.682C155.769 237.129 155.308 237.756 155.308 238.523C155.308 239.456 156.088 240.109 157.099 240.109Z" fill="#231815"/>
<path d="M199.827 162.366V152.942H201.31V156.791H205.338V152.942H206.821V162.366H205.338V158.082H201.31V162.366H199.827ZM209.816 157.251L209.432 158.517H212.003L211.632 157.251C211.312 156.228 211.031 155.18 210.749 154.119H210.686C210.417 155.193 210.123 156.228 209.816 157.251ZM206.773 162.366L209.893 152.942H211.606L214.726 162.366H213.153L212.361 159.681H209.087L208.282 162.366H206.773ZM210.737 165.422C210.187 165.422 209.816 165.077 209.816 164.527C209.816 164.015 210.187 163.67 210.737 163.67C211.274 163.67 211.645 164.015 211.645 164.527C211.645 165.077 211.274 165.422 210.737 165.422ZM214.689 162.366V152.942H216.21L219.33 158.479L220.315 160.474H220.379C220.302 159.502 220.187 158.364 220.187 157.341V152.942H221.593V162.366H220.072L216.952 156.817L215.967 154.847H215.903C215.98 155.819 216.095 156.906 216.095 157.929V162.366H214.689ZM226.636 162.532C224.13 162.532 222.289 160.768 222.289 157.686C222.289 154.617 224.181 152.776 226.675 152.776C228.004 152.776 228.899 153.364 229.475 153.965L228.682 154.911C228.209 154.438 227.634 154.067 226.726 154.067C224.974 154.067 223.81 155.423 223.81 157.635C223.81 159.873 224.846 161.241 226.79 161.241C227.365 161.241 227.94 161.075 228.273 160.78V158.568H226.406V157.354H229.615V161.433C228.989 162.059 227.928 162.532 226.636 162.532ZM233.533 162.366V161.151H235.592V154.86H233.904V153.927C234.786 153.773 235.413 153.543 235.95 153.211H237.062V161.151H238.904V162.366H233.533ZM241.874 162.532C240.391 162.532 239.432 161.944 238.805 161.241L239.521 160.295C240.071 160.857 240.774 161.33 241.746 161.33C242.807 161.33 243.536 160.755 243.536 159.834C243.536 158.824 242.871 158.172 240.749 158.172V157.085C242.603 157.085 243.217 156.407 243.217 155.525C243.217 154.707 242.667 154.208 241.772 154.208C241.043 154.208 240.429 154.566 239.892 155.103L239.125 154.183C239.867 153.505 240.736 153.032 241.823 153.032C243.511 153.032 244.7 153.901 244.7 155.41C244.7 156.471 244.073 157.175 243.076 157.545V157.609C244.163 157.878 245.02 158.671 245.02 159.911C245.02 161.56 243.6 162.532 241.874 162.532Z" fill="#231815"/>
<path d="M325.775 95.2361V85.8123H327.258V89.6611H331.286V85.8123H332.769V95.2361H331.286V90.9526H327.258V95.2361H325.775ZM335.764 90.1214L335.381 91.3873H337.951L337.58 90.1214C337.26 89.0985 336.979 88.05 336.698 86.9887H336.634C336.365 88.0628 336.071 89.0985 335.764 90.1214ZM332.721 95.2361L335.841 85.8123H337.554L340.674 95.2361H339.102L338.309 92.5509H335.035L334.23 95.2361H332.721ZM336.685 98.2921C336.135 98.2921 335.764 97.9468 335.764 97.397C335.764 96.8856 336.135 96.5403 336.685 96.5403C337.222 96.5403 337.593 96.8856 337.593 97.397C337.593 97.9468 337.222 98.2921 336.685 98.2921ZM340.637 95.2361V85.8123H342.159L345.278 91.349L346.263 93.3437H346.327C346.25 92.3719 346.135 91.2339 346.135 90.2109V85.8123H347.542V95.2361H346.02L342.9 89.6867L341.916 87.7176H341.852C341.928 88.6893 342.043 89.7762 342.043 90.7991V95.2361H340.637ZM352.584 95.4023C350.078 95.4023 348.237 93.6378 348.237 90.5562C348.237 87.4874 350.129 85.6461 352.623 85.6461C353.953 85.6461 354.848 86.2343 355.423 86.8353L354.63 87.7815C354.157 87.3084 353.582 86.9376 352.674 86.9376C350.922 86.9376 349.759 88.2929 349.759 90.505C349.759 92.7427 350.794 94.1109 352.738 94.1109C353.313 94.1109 353.889 93.9446 354.221 93.6505V91.4385H352.354V90.2237H355.564V94.3027C354.937 94.9292 353.876 95.4023 352.584 95.4023ZM360.3 88.8811C360.3 90.0064 360.837 90.6457 361.834 90.6457C362.397 90.6457 363.074 90.3132 363.599 89.5077C363.432 87.8198 362.742 87.0399 361.745 87.0399C360.939 87.0399 360.3 87.7176 360.3 88.8811ZM361.438 95.4023C360.376 95.4023 359.609 94.9676 359.085 94.405L359.891 93.4971C360.236 93.9191 360.811 94.2004 361.361 94.2004C362.563 94.2004 363.573 93.2797 363.637 90.5945C363.087 91.2978 362.269 91.707 361.578 91.707C359.993 91.707 358.932 90.7736 358.932 88.8811C358.932 87.0782 360.21 85.9019 361.732 85.9019C363.535 85.9019 364.992 87.3212 364.992 90.3516C364.992 93.9574 363.292 95.4023 361.438 95.4023Z" fill="#231815"/>
<path d="M375.643 170.677V161.253H377.126V165.102H381.154V161.253H382.637V170.677H381.154V166.393H377.126V170.677H375.643ZM385.632 165.562L385.248 166.828H387.819L387.448 165.562C387.128 164.539 386.847 163.491 386.565 162.43H386.501C386.233 163.504 385.939 164.539 385.632 165.562ZM382.589 170.677L385.709 161.253H387.422L390.542 170.677H388.969L388.177 167.992H384.903L384.098 170.677H382.589ZM386.553 173.733C386.003 173.733 385.632 173.388 385.632 172.838C385.632 172.326 386.003 171.981 386.553 171.981C387.09 171.981 387.46 172.326 387.46 172.838C387.46 173.388 387.09 173.733 386.553 173.733ZM390.505 170.677V161.253H392.026L395.146 166.79L396.131 168.785H396.195C396.118 167.813 396.003 166.675 396.003 165.652V161.253H397.409V170.677H395.888L392.768 165.128L391.783 163.158H391.719C391.796 164.13 391.911 165.217 391.911 166.24V170.677H390.505ZM402.452 170.843C399.946 170.843 398.105 169.079 398.105 165.997C398.105 162.928 399.997 161.087 402.49 161.087C403.82 161.087 404.715 161.675 405.291 162.276L404.498 163.222C404.025 162.749 403.449 162.378 402.542 162.378C400.79 162.378 399.626 163.734 399.626 165.946C399.626 168.184 400.662 169.552 402.606 169.552C403.181 169.552 403.756 169.386 404.089 169.091V166.879H402.222V165.665H405.431V169.744C404.805 170.37 403.744 170.843 402.452 170.843ZM409.349 170.677V169.462H411.408V163.171H409.72V162.238C410.602 162.084 411.229 161.854 411.766 161.522H412.878V169.462H414.719V170.677H409.349ZM417.69 170.843C416.207 170.843 415.248 170.255 414.621 169.552L415.337 168.606C415.887 169.168 416.59 169.641 417.562 169.641C418.623 169.641 419.352 169.066 419.352 168.145C419.352 167.135 418.687 166.483 416.565 166.483V165.396C418.419 165.396 419.033 164.718 419.033 163.836C419.033 163.018 418.483 162.519 417.588 162.519C416.859 162.519 416.245 162.877 415.708 163.414L414.941 162.494C415.682 161.816 416.552 161.343 417.639 161.343C419.327 161.343 420.516 162.212 420.516 163.721C420.516 164.782 419.889 165.486 418.892 165.856V165.92C419.979 166.189 420.835 166.982 420.835 168.222C420.835 169.871 419.416 170.843 417.69 170.843Z" fill="#231815"/>
<path d="M442.24 124.645V115.222H443.724V119.07H447.751V115.222H449.235V124.645H447.751V120.362H443.724V124.645H442.24ZM452.23 119.531L451.846 120.796H454.416L454.045 119.531C453.726 118.508 453.444 117.459 453.163 116.398H453.099C452.831 117.472 452.537 118.508 452.23 119.531ZM449.186 124.645L452.306 115.222H454.02L457.14 124.645H455.567L454.774 121.96H451.501L450.695 124.645H449.186ZM453.15 127.701C452.6 127.701 452.23 127.356 452.23 126.806C452.23 126.295 452.6 125.949 453.15 125.949C453.687 125.949 454.058 126.295 454.058 126.806C454.058 127.356 453.687 127.701 453.15 127.701ZM457.102 124.645V115.222H458.624L461.744 120.758L462.728 122.753H462.792C462.716 121.781 462.6 120.643 462.6 119.62V115.222H464.007V124.645H462.485L459.365 119.096L458.381 117.127H458.317C458.394 118.099 458.509 119.185 458.509 120.208V124.645H457.102ZM469.05 124.811C466.544 124.811 464.702 123.047 464.702 119.965C464.702 116.897 466.595 115.055 469.088 115.055C470.418 115.055 471.313 115.643 471.888 116.244L471.096 117.191C470.623 116.718 470.047 116.347 469.139 116.347C467.387 116.347 466.224 117.702 466.224 119.914C466.224 122.152 467.26 123.52 469.203 123.52C469.779 123.52 470.354 123.354 470.686 123.06V120.848H468.82V119.633H472.029V123.712C471.402 124.338 470.341 124.811 469.05 124.811ZM475.947 124.645V123.431H478.005V117.14H476.318V116.206C477.2 116.053 477.826 115.822 478.363 115.49H479.476V123.431H481.317V124.645H475.947ZM484.288 124.811C482.804 124.811 481.845 124.223 481.219 123.52L481.935 122.574C482.485 123.136 483.188 123.61 484.16 123.61C485.221 123.61 485.95 123.034 485.95 122.114C485.95 121.103 485.285 120.451 483.162 120.451V119.364C485.016 119.364 485.63 118.687 485.63 117.804C485.63 116.986 485.08 116.487 484.185 116.487C483.456 116.487 482.843 116.845 482.306 117.382L481.538 116.462C482.28 115.784 483.15 115.311 484.236 115.311C485.924 115.311 487.113 116.181 487.113 117.689C487.113 118.751 486.487 119.454 485.49 119.825V119.889C486.576 120.157 487.433 120.95 487.433 122.19C487.433 123.84 486.014 124.811 484.288 124.811Z" fill="#231815"/>
<path d="M508.24 107V97.5763H509.724V101.425H513.751V97.5763H515.235V107H513.751V102.716H509.724V107H508.24ZM518.23 101.885L517.846 103.151H520.416L520.045 101.885C519.726 100.862 519.444 99.8139 519.163 98.7526H519.099C518.831 99.8267 518.537 100.862 518.23 101.885ZM515.186 107L518.306 97.5763H520.02L523.14 107H521.567L520.774 104.315H517.501L516.695 107H515.186ZM519.15 110.056C518.6 110.056 518.23 109.711 518.23 109.161C518.23 108.649 518.6 108.304 519.15 108.304C519.687 108.304 520.058 108.649 520.058 109.161C520.058 109.711 519.687 110.056 519.15 110.056ZM523.102 107V97.5763H524.624L527.744 103.113L528.728 105.108H528.792C528.716 104.136 528.6 102.998 528.6 101.975V97.5763H530.007V107H528.485L525.365 101.451L524.381 99.4815H524.317C524.394 100.453 524.509 101.54 524.509 102.563V107H523.102ZM535.05 107.166C532.544 107.166 530.702 105.402 530.702 102.32C530.702 99.2513 532.595 97.41 535.088 97.41C536.418 97.41 537.313 97.9982 537.888 98.5992L537.096 99.5454C536.623 99.0723 536.047 98.7015 535.139 98.7015C533.387 98.7015 532.224 100.057 532.224 102.269C532.224 104.507 533.26 105.875 535.203 105.875C535.779 105.875 536.354 105.709 536.686 105.414V103.202H534.82V101.988H538.029V106.067C537.402 106.693 536.341 107.166 535.05 107.166ZM541.947 107V105.785H544.005V99.4943H542.318V98.5608C543.2 98.4074 543.826 98.1772 544.363 97.8448H545.476V105.785H547.317V107H541.947ZM550.505 107.166C548.638 107.166 547.462 105.466 547.462 102.384C547.462 99.3025 548.638 97.6658 550.505 97.6658C552.385 97.6658 553.548 99.3152 553.548 102.384C553.548 105.466 552.385 107.166 550.505 107.166ZM550.505 106.003C551.464 106.003 552.142 105.018 552.142 102.384C552.142 99.75 551.464 98.8293 550.505 98.8293C549.546 98.8293 548.868 99.75 548.868 102.384C548.868 105.018 549.546 106.003 550.505 106.003Z" fill="#231815"/>
<path d="M514.164 45V35.5251H516.094L518.843 40.5758L519.79 42.6217H519.854C519.764 41.6371 519.611 40.384 519.611 39.31V35.5251H521.401V45H519.483L516.746 39.9365L515.787 37.9034H515.724C515.813 38.9264 515.954 40.1155 515.954 41.2024V45H514.164ZM526.529 45.179C523.958 45.179 521.989 43.4656 521.989 40.3073C521.989 37.1874 524.01 35.3589 526.529 35.3589C527.897 35.3589 528.843 35.9471 529.457 36.5736L528.459 37.7756C527.986 37.328 527.449 36.9828 526.592 36.9828C525.02 36.9828 523.92 38.2103 523.92 40.2434C523.92 42.302 524.866 43.5423 526.733 43.5423C527.181 43.5423 527.641 43.4145 527.909 43.1843V41.3175H526.234V39.7703H529.597V44.041C528.958 44.6675 527.846 45.179 526.529 45.179ZM532.308 40.0644L532.027 41.1001H534.277L533.996 40.0644C533.702 39.0798 533.446 37.9929 533.177 36.97H533.113C532.871 38.0057 532.589 39.0798 532.308 40.0644ZM529.035 45L532.065 35.5251H534.29L537.333 45H535.351L534.686 42.5705H531.617L530.953 45H529.035ZM533.344 35.0648L530.799 33.3642L531.809 32.1367L534.175 34.1186L533.344 35.0648ZM538.523 45V41.5348L535.684 35.5251H537.692L538.638 37.8395C538.907 38.5428 539.162 39.2077 539.457 39.9365H539.508C539.802 39.2077 540.083 38.5428 540.352 37.8395L541.298 35.5251H543.267L540.416 41.5348V45H538.523ZM545.909 45C546.075 41.8161 546.663 39.8086 548.428 37.3536H544.17V35.7808H550.461V36.9316C548.313 39.5529 547.968 41.407 547.814 45H545.909Z" fill="#FF0000"/>
<path d="M29.8532 330.154C29.8532 330.658 29.7483 331.095 29.5385 331.465C29.3288 331.834 29.0441 332.137 28.6844 332.371C28.3298 332.606 27.9302 332.778 27.4857 332.888V332.933C28.3648 333.043 29.0316 333.313 29.4861 333.742C29.9456 334.172 30.1754 334.746 30.1754 335.466C30.1754 336.105 30.018 336.677 29.7034 337.181C29.3937 337.686 28.9142 338.083 28.2649 338.373C27.6156 338.662 26.7789 338.807 25.755 338.807C25.1506 338.807 24.5862 338.757 24.0618 338.657C23.5423 338.562 23.0528 338.415 22.5933 338.215V336.245C23.0628 336.485 23.5548 336.667 24.0693 336.792C24.5837 336.912 25.0632 336.971 25.5078 336.971C26.3369 336.971 26.9163 336.829 27.2459 336.544C27.5806 336.255 27.7479 335.85 27.7479 335.331C27.7479 335.026 27.6705 334.769 27.5157 334.559C27.3608 334.349 27.0911 334.189 26.7065 334.08C26.3269 333.97 25.795 333.915 25.1107 333.915H24.2791V332.139H25.1257C25.8 332.139 26.3119 332.077 26.6616 331.952C27.0162 331.822 27.2559 331.647 27.3808 331.427C27.5107 331.203 27.5756 330.948 27.5756 330.663C27.5756 330.273 27.4557 329.969 27.216 329.749C26.9762 329.529 26.5766 329.419 26.0172 329.419C25.6676 329.419 25.3479 329.464 25.0582 329.554C24.7735 329.639 24.5163 329.744 24.2865 329.869C24.0568 329.989 23.8545 330.106 23.6797 330.221L22.6083 328.625C23.0378 328.316 23.5398 328.058 24.1142 327.854C24.6936 327.649 25.3829 327.546 26.1821 327.546C27.3109 327.546 28.2049 327.774 28.8643 328.228C29.5236 328.683 29.8532 329.324 29.8532 330.154ZM37.0532 327.704L32.97 338.657H30.8946L34.9779 327.704H37.0532ZM37.6675 334.005C37.6675 333.375 37.7125 332.753 37.8024 332.139C37.8973 331.52 38.0596 330.938 38.2894 330.393C38.5191 329.844 38.8413 329.359 39.2559 328.94C39.6704 328.515 40.1974 328.183 40.8367 327.943C41.4761 327.699 42.2502 327.576 43.1593 327.576C43.3741 327.576 43.6238 327.586 43.9085 327.606C44.1982 327.621 44.438 327.649 44.6278 327.689V329.539C44.428 329.494 44.2132 329.459 43.9834 329.434C43.7587 329.404 43.5339 329.389 43.3091 329.389C42.4001 329.389 41.6958 329.534 41.1963 329.824C40.7019 330.114 40.3522 330.516 40.1474 331.03C39.9477 331.54 39.8303 332.134 39.7953 332.813H39.8927C40.0326 332.569 40.2074 332.351 40.4172 332.162C40.6319 331.972 40.8917 331.822 41.1963 331.712C41.501 331.597 41.8582 331.54 42.2677 331.54C42.9071 331.54 43.4615 331.677 43.931 331.952C44.4005 332.221 44.7626 332.614 45.0174 333.128C45.2721 333.642 45.3995 334.269 45.3995 335.009C45.3995 335.798 45.2471 336.477 44.9424 337.046C44.6377 337.616 44.2057 338.053 43.6463 338.358C43.0919 338.657 42.4326 338.807 41.6684 338.807C41.1089 338.807 40.587 338.712 40.1025 338.522C39.618 338.328 39.1934 338.033 38.8288 337.638C38.4642 337.244 38.1795 336.747 37.9747 336.147C37.7699 335.543 37.6675 334.829 37.6675 334.005ZM41.6234 336.957C42.0779 336.957 42.4475 336.802 42.7322 336.492C43.0169 336.182 43.1593 335.698 43.1593 335.039C43.1593 334.504 43.0344 334.085 42.7847 333.78C42.5399 333.47 42.1678 333.315 41.6684 333.315C41.3287 333.315 41.029 333.393 40.7693 333.548C40.5146 333.697 40.3173 333.89 40.1774 334.124C40.0376 334.354 39.9676 334.591 39.9676 334.836C39.9676 335.091 40.0026 335.343 40.0725 335.593C40.1425 335.843 40.2473 336.07 40.3872 336.275C40.527 336.48 40.6994 336.644 40.9042 336.769C41.1139 336.894 41.3537 336.957 41.6234 336.957Z" fill="black"/>
<path d="M101.316 338.657H99.0005V332.319C99.0005 332.144 99.0029 331.929 99.0079 331.675C99.0129 331.415 99.0204 331.15 99.0304 330.88C99.0404 330.606 99.0504 330.358 99.0604 330.139C99.0054 330.204 98.8931 330.316 98.7232 330.476C98.5584 330.631 98.4036 330.77 98.2587 330.895L97 331.907L95.8837 330.513L99.4125 327.704H101.316V338.657ZM110.096 338.657H107.781V332.319C107.781 332.144 107.784 331.929 107.789 331.675C107.794 331.415 107.801 331.15 107.811 330.88C107.821 330.606 107.831 330.358 107.841 330.139C107.786 330.204 107.674 330.316 107.504 330.476C107.339 330.631 107.184 330.77 107.04 330.895L105.781 331.907L104.665 330.513L108.193 327.704H110.096V338.657ZM118.802 327.704L114.719 338.657H112.644L116.727 327.704H118.802ZM119.417 334.005C119.417 333.375 119.462 332.753 119.551 332.139C119.646 331.52 119.809 330.938 120.038 330.393C120.268 329.844 120.59 329.359 121.005 328.94C121.419 328.515 121.946 328.183 122.586 327.943C123.225 327.699 123.999 327.576 124.908 327.576C125.123 327.576 125.373 327.586 125.658 327.606C125.947 327.621 126.187 327.649 126.377 327.689V329.539C126.177 329.494 125.962 329.459 125.732 329.434C125.508 329.404 125.283 329.389 125.058 329.389C124.149 329.389 123.445 329.534 122.945 329.824C122.451 330.114 122.101 330.516 121.896 331.03C121.697 331.54 121.579 332.134 121.544 332.813H121.642C121.782 332.569 121.956 332.351 122.166 332.162C122.381 331.972 122.641 331.822 122.945 331.712C123.25 331.597 123.607 331.54 124.017 331.54C124.656 331.54 125.211 331.677 125.68 331.952C126.15 332.221 126.512 332.614 126.766 333.128C127.021 333.642 127.148 334.269 127.148 335.009C127.148 335.798 126.996 336.477 126.691 337.046C126.387 337.616 125.955 338.053 125.395 338.358C124.841 338.657 124.182 338.807 123.417 338.807C122.858 338.807 122.336 338.712 121.852 338.522C121.367 338.328 120.942 338.033 120.578 337.638C120.213 337.244 119.929 336.747 119.724 336.147C119.519 335.543 119.417 334.829 119.417 334.005ZM123.372 336.957C123.827 336.957 124.197 336.802 124.481 336.492C124.766 336.182 124.908 335.698 124.908 335.039C124.908 334.504 124.783 334.085 124.534 333.78C124.289 333.47 123.917 333.315 123.417 333.315C123.078 333.315 122.778 333.393 122.518 333.548C122.264 333.697 122.066 333.89 121.926 334.124C121.787 334.354 121.717 334.591 121.717 334.836C121.717 335.091 121.752 335.343 121.822 335.593C121.891 335.843 121.996 336.07 122.136 336.275C122.276 336.48 122.448 336.644 122.653 336.769C122.863 336.894 123.103 336.957 123.372 336.957Z" fill="black"/>
<path d="M178.17 338.657H175.854V332.319C175.854 332.144 175.857 331.929 175.862 331.675C175.867 331.415 175.874 331.15 175.884 330.88C175.894 330.606 175.904 330.358 175.914 330.139C175.859 330.204 175.747 330.316 175.577 330.476C175.412 330.631 175.258 330.77 175.113 330.895L173.854 331.907L172.738 330.513L176.267 327.704H178.17V338.657ZM188.838 332.379C188.838 333.008 188.791 333.632 188.696 334.252C188.606 334.871 188.446 335.456 188.217 336.005C187.987 336.549 187.665 337.034 187.25 337.458C186.835 337.878 186.309 338.208 185.669 338.447C185.03 338.687 184.256 338.807 183.347 338.807C183.132 338.807 182.88 338.797 182.59 338.777C182.3 338.762 182.06 338.737 181.871 338.702V336.844C182.07 336.894 182.283 336.934 182.507 336.964C182.732 336.989 182.96 337.001 183.189 337.001C184.103 337.001 184.808 336.857 185.302 336.567C185.802 336.277 186.151 335.875 186.351 335.361C186.556 334.846 186.673 334.252 186.703 333.578H186.613C186.468 333.817 186.296 334.035 186.096 334.229C185.901 334.419 185.652 334.572 185.347 334.686C185.042 334.796 184.655 334.851 184.186 334.851C183.561 334.851 183.017 334.716 182.552 334.447C182.093 334.172 181.736 333.777 181.481 333.263C181.231 332.743 181.106 332.117 181.106 331.382C181.106 330.588 181.256 329.909 181.556 329.344C181.861 328.775 182.293 328.338 182.852 328.033C183.412 327.729 184.071 327.576 184.83 327.576C185.389 327.576 185.911 327.674 186.396 327.869C186.88 328.058 187.305 328.351 187.67 328.745C188.039 329.14 188.326 329.639 188.531 330.244C188.736 330.848 188.838 331.56 188.838 332.379ZM184.875 329.434C184.425 329.434 184.058 329.589 183.774 329.899C183.489 330.209 183.347 330.693 183.347 331.352C183.347 331.882 183.469 332.301 183.714 332.611C183.958 332.921 184.331 333.076 184.83 333.076C185.175 333.076 185.474 333.001 185.729 332.851C185.984 332.696 186.181 332.504 186.321 332.274C186.466 332.039 186.538 331.799 186.538 331.555C186.538 331.3 186.503 331.048 186.433 330.798C186.363 330.548 186.259 330.321 186.119 330.116C185.979 329.911 185.804 329.747 185.594 329.622C185.389 329.497 185.15 329.434 184.875 329.434ZM195.656 327.704L191.573 338.657H189.498L193.581 327.704H195.656ZM196.271 334.005C196.271 333.375 196.316 332.753 196.405 332.139C196.5 331.52 196.663 330.938 196.892 330.393C197.122 329.844 197.444 329.359 197.859 328.94C198.273 328.515 198.8 328.183 199.44 327.943C200.079 327.699 200.853 327.576 201.762 327.576C201.977 327.576 202.227 327.586 202.512 327.606C202.801 327.621 203.041 327.649 203.231 327.689V329.539C203.031 329.494 202.816 329.459 202.586 329.434C202.362 329.404 202.137 329.389 201.912 329.389C201.003 329.389 200.299 329.534 199.799 329.824C199.305 330.114 198.955 330.516 198.75 331.03C198.551 331.54 198.433 332.134 198.398 332.813H198.496C198.636 332.569 198.81 332.351 199.02 332.162C199.235 331.972 199.495 331.822 199.799 331.712C200.104 331.597 200.461 331.54 200.871 331.54C201.51 331.54 202.065 331.677 202.534 331.952C203.004 332.221 203.366 332.614 203.62 333.128C203.875 333.642 204.003 334.269 204.003 335.009C204.003 335.798 203.85 336.477 203.545 337.046C203.241 337.616 202.809 338.053 202.249 338.358C201.695 338.657 201.036 338.807 200.271 338.807C199.712 338.807 199.19 338.712 198.706 338.522C198.221 338.328 197.796 338.033 197.432 337.638C197.067 337.244 196.783 336.747 196.578 336.147C196.373 335.543 196.271 334.829 196.271 334.005ZM200.226 336.957C200.681 336.957 201.051 336.802 201.335 336.492C201.62 336.182 201.762 335.698 201.762 335.039C201.762 334.504 201.637 334.085 201.388 333.78C201.143 333.47 200.771 333.315 200.271 333.315C199.932 333.315 199.632 333.393 199.372 333.548C199.118 333.697 198.92 333.89 198.78 334.124C198.641 334.354 198.571 334.591 198.571 334.836C198.571 335.091 198.606 335.343 198.676 335.593C198.746 335.843 198.85 336.07 198.99 336.275C199.13 336.48 199.302 336.644 199.507 336.769C199.717 336.894 199.957 336.957 200.226 336.957Z" fill="black"/>
<path d="M271.103 338.657H263.446V337.046L266.195 334.267C266.75 333.697 267.194 333.223 267.529 332.843C267.868 332.459 268.113 332.109 268.263 331.794C268.418 331.48 268.495 331.143 268.495 330.783C268.495 330.348 268.373 330.024 268.128 329.809C267.888 329.589 267.566 329.479 267.162 329.479C266.737 329.479 266.325 329.577 265.925 329.772C265.526 329.966 265.109 330.244 264.674 330.603L263.416 329.112C263.73 328.842 264.062 328.588 264.412 328.348C264.767 328.108 265.176 327.916 265.641 327.771C266.11 327.621 266.672 327.546 267.326 327.546C268.046 327.546 268.663 327.676 269.177 327.936C269.696 328.196 270.096 328.55 270.376 329C270.655 329.444 270.795 329.949 270.795 330.513C270.795 331.118 270.675 331.67 270.436 332.169C270.196 332.668 269.846 333.163 269.387 333.652C268.932 334.142 268.383 334.684 267.739 335.278L266.33 336.604V336.709H271.103V338.657ZM273.313 338.657L277.426 329.652H272.024V327.704H279.883V329.157L275.74 338.657H273.313ZM286.656 327.704L282.573 338.657H280.498L284.581 327.704H286.656ZM287.271 334.005C287.271 333.375 287.316 332.753 287.405 332.139C287.5 331.52 287.663 330.938 287.892 330.393C288.122 329.844 288.444 329.359 288.859 328.94C289.273 328.515 289.8 328.183 290.44 327.943C291.079 327.699 291.853 327.576 292.762 327.576C292.977 327.576 293.227 327.586 293.512 327.606C293.801 327.621 294.041 327.649 294.231 327.689V329.539C294.031 329.494 293.816 329.459 293.586 329.434C293.362 329.404 293.137 329.389 292.912 329.389C292.003 329.389 291.299 329.534 290.799 329.824C290.305 330.114 289.955 330.516 289.75 331.03C289.551 331.54 289.433 332.134 289.398 332.813H289.496C289.636 332.569 289.81 332.351 290.02 332.162C290.235 331.972 290.495 331.822 290.799 331.712C291.104 331.597 291.461 331.54 291.871 331.54C292.51 331.54 293.065 331.677 293.534 331.952C294.004 332.221 294.366 332.614 294.62 333.128C294.875 333.642 295.003 334.269 295.003 335.009C295.003 335.798 294.85 336.477 294.545 337.046C294.241 337.616 293.809 338.053 293.249 338.358C292.695 338.657 292.036 338.807 291.271 338.807C290.712 338.807 290.19 338.712 289.706 338.522C289.221 338.328 288.796 338.033 288.432 337.638C288.067 337.244 287.783 336.747 287.578 336.147C287.373 335.543 287.271 334.829 287.271 334.005ZM291.226 336.957C291.681 336.957 292.051 336.802 292.335 336.492C292.62 336.182 292.762 335.698 292.762 335.039C292.762 334.504 292.637 334.085 292.388 333.78C292.143 333.47 291.771 333.315 291.271 333.315C290.932 333.315 290.632 333.393 290.372 333.548C290.118 333.697 289.92 333.89 289.78 334.124C289.641 334.354 289.571 334.591 289.571 334.836C289.571 335.091 289.606 335.343 289.676 335.593C289.746 335.843 289.85 336.07 289.99 336.275C290.13 336.48 290.302 336.644 290.507 336.769C290.717 336.894 290.957 336.957 291.226 336.957Z" fill="black"/>
<path d="M361.822 332.002C362.491 332.002 363.085 332.13 363.605 332.384C364.129 332.639 364.541 333.014 364.841 333.508C365.141 334.003 365.291 334.612 365.291 335.336C365.291 336.126 365.126 336.807 364.796 337.382C364.471 337.951 363.984 338.388 363.335 338.693C362.691 338.998 361.887 339.15 360.923 339.15C360.348 339.15 359.806 339.1 359.297 339C358.792 338.905 358.35 338.758 357.971 338.558V336.558C358.35 336.757 358.805 336.927 359.334 337.067C359.869 337.202 360.371 337.269 360.84 337.269C361.3 337.269 361.687 337.209 362.002 337.089C362.316 336.965 362.553 336.775 362.713 336.52C362.878 336.26 362.961 335.931 362.961 335.531C362.961 334.997 362.781 334.587 362.421 334.302C362.062 334.018 361.51 333.875 360.765 333.875C360.481 333.875 360.183 333.903 359.874 333.958C359.569 334.013 359.314 334.068 359.11 334.123L358.188 333.628L358.6 328.046H364.541V330.009H360.631L360.428 332.16C360.598 332.125 360.783 332.09 360.983 332.055C361.182 332.02 361.462 332.002 361.822 332.002ZM372.266 328.046L368.183 339H366.107L370.191 328.046H372.266ZM374.041 339L378.155 329.994H372.753V328.046H380.612V329.5L376.469 339H374.041Z" fill="black"/>
<path d="M449.17 338.657H446.854V332.319C446.854 332.144 446.857 331.929 446.862 331.675C446.867 331.415 446.874 331.15 446.884 330.88C446.894 330.606 446.904 330.358 446.914 330.139C446.859 330.204 446.747 330.316 446.577 330.476C446.412 330.631 446.258 330.77 446.113 330.895L444.854 331.907L443.738 330.513L447.267 327.704H449.17V338.657ZM459.456 330.154C459.456 330.658 459.351 331.095 459.142 331.465C458.932 331.834 458.647 332.137 458.287 332.371C457.933 332.606 457.533 332.778 457.089 332.888V332.933C457.968 333.043 458.635 333.313 459.089 333.742C459.549 334.172 459.778 334.746 459.778 335.466C459.778 336.105 459.621 336.677 459.306 337.181C458.997 337.686 458.517 338.083 457.868 338.373C457.219 338.662 456.382 338.807 455.358 338.807C454.754 338.807 454.189 338.757 453.665 338.657C453.145 338.562 452.656 338.415 452.196 338.215V336.245C452.666 336.485 453.158 336.667 453.672 336.792C454.187 336.912 454.666 336.971 455.111 336.971C455.94 336.971 456.519 336.829 456.849 336.544C457.184 336.255 457.351 335.85 457.351 335.331C457.351 335.026 457.274 334.769 457.119 334.559C456.964 334.349 456.694 334.189 456.31 334.08C455.93 333.97 455.398 333.915 454.714 333.915H453.882V332.139H454.729C455.403 332.139 455.915 332.077 456.265 331.952C456.619 331.822 456.859 331.647 456.984 331.427C457.114 331.203 457.179 330.948 457.179 330.663C457.179 330.273 457.059 329.969 456.819 329.749C456.579 329.529 456.18 329.419 455.62 329.419C455.271 329.419 454.951 329.464 454.661 329.554C454.377 329.639 454.119 329.744 453.89 329.869C453.66 329.989 453.458 330.106 453.283 330.221L452.211 328.625C452.641 328.316 453.143 328.058 453.717 327.854C454.297 327.649 454.986 327.546 455.785 327.546C456.914 327.546 457.808 327.774 458.467 328.228C459.127 328.683 459.456 329.324 459.456 330.154ZM466.656 327.704L462.573 338.657H460.498L464.581 327.704H466.656ZM468.432 338.657L472.545 329.652H467.143V327.704H475.003V329.157L470.859 338.657H468.432Z" fill="black"/>
<path d="M520.126 339H517.811V334.272H513.473V339H511.151V328.046H513.473V332.339H517.811V328.046H520.126V339ZM522.899 339V328.046H525.221V339H522.899ZM534.287 339H527.978V328.046H534.287V329.949H530.301V332.354H534.009V334.257H530.301V337.082H534.287V339ZM531.237 342.222C530.893 342.222 530.598 342.139 530.353 341.974C530.113 341.815 529.994 341.525 529.994 341.105C529.994 340.676 530.113 340.381 530.353 340.221C530.598 340.061 530.893 339.981 531.237 339.981C531.577 339.981 531.869 340.061 532.114 340.221C532.359 340.381 532.481 340.676 532.481 341.105C532.481 341.525 532.359 341.815 532.114 341.974C531.869 342.139 531.577 342.222 531.237 342.222ZM532.563 324.667C532.708 324.897 532.896 325.152 533.125 325.432C533.36 325.711 533.6 325.984 533.845 326.248C534.089 326.513 534.302 326.738 534.481 326.923V327.125H532.968C532.698 326.965 532.404 326.775 532.084 326.556C531.769 326.331 531.48 326.081 531.215 325.806C530.945 326.081 530.658 326.328 530.353 326.548C530.049 326.763 529.764 326.955 529.499 327.125H527.978V326.923C528.168 326.733 528.385 326.508 528.63 326.248C528.875 325.984 529.112 325.711 529.342 325.432C529.572 325.152 529.756 324.897 529.896 324.667H532.563ZM546.297 339H543.345L538.58 330.714H538.512C538.532 331.058 538.55 331.405 538.565 331.755C538.58 332.105 538.595 332.454 538.61 332.804C538.625 333.149 538.64 333.496 538.655 333.845V339H536.579V328.046H539.509L544.266 336.25H544.319C544.309 335.911 544.296 335.574 544.281 335.239C544.266 334.904 544.251 334.57 544.236 334.235C544.226 333.9 544.216 333.566 544.206 333.231V328.046H546.297V339ZM557.273 339H554.95V329.979H551.976V328.046H560.247V329.979H557.273V339ZM568.638 339L567.844 336.393H563.851L563.057 339H560.554L564.42 328.002H567.26L571.141 339H568.638ZM567.29 334.445L566.495 331.897C566.445 331.728 566.378 331.51 566.293 331.246C566.213 330.976 566.131 330.704 566.046 330.429C565.966 330.149 565.901 329.907 565.851 329.702C565.801 329.907 565.731 330.162 565.641 330.466C565.556 330.766 565.474 331.051 565.394 331.321C565.314 331.59 565.257 331.783 565.222 331.897L564.435 334.445H567.29ZM565.836 342.222C565.491 342.222 565.197 342.139 564.952 341.974C564.712 341.815 564.592 341.525 564.592 341.105C564.592 340.676 564.712 340.381 564.952 340.221C565.197 340.061 565.491 339.981 565.836 339.981C566.176 339.981 566.468 340.061 566.713 340.221C566.957 340.381 567.08 340.676 567.08 341.105C567.08 341.525 566.957 341.815 566.713 341.974C566.468 342.139 566.176 342.222 565.836 342.222ZM572.527 339V328.046H574.849V339H572.527Z" fill="#FF0000"/>
</svg>
