<svg width="579" height="346" viewBox="0 0 579 346" fill="none" xmlns="http://www.w3.org/2000/svg">
<path d="M1.3252 21.1141H552.732" stroke="#666666" stroke-opacity="0.3" stroke-width="0.650244" stroke-dasharray="2.6"/>
<path d="M87.9487 21.7371L87.9487 313.895" stroke="#666666" stroke-opacity="0.3" stroke-width="0.650244" stroke-dasharray="2.6"/>
<path d="M179.374 21.7371L179.374 313.895" stroke="#666666" stroke-opacity="0.3" stroke-width="0.650244" stroke-dasharray="2.6"/>
<path d="M272.076 21.7371L272.076 313.895" stroke="#666666" stroke-opacity="0.3" stroke-width="0.650244" stroke-dasharray="2.6"/>
<path d="M364.14 21.7371L364.14 313.895" stroke="#666666" stroke-opacity="0.3" stroke-width="0.650244" stroke-dasharray="2.6"/>
<path d="M458.122 21.7371L458.122 313.895" stroke="#666666" stroke-opacity="0.3" stroke-width="0.650244" stroke-dasharray="2.6"/>
<path d="M550.186 21.7371L550.186 313.895" stroke="#666666" stroke-opacity="0.3" stroke-width="0.650244" stroke-dasharray="2.6"/>
<path d="M1.3252 53.301H552.732" stroke="#666666" stroke-opacity="0.3" stroke-width="0.650244" stroke-dasharray="2.6"/>
<path d="M1.3252 85.8132H552.732" stroke="#666666" stroke-opacity="0.3" stroke-width="0.650244" stroke-dasharray="2.6"/>
<path d="M1.3252 118.326H552.732" stroke="#666666" stroke-opacity="0.3" stroke-width="0.650244" stroke-dasharray="2.6"/>
<path d="M1.3252 150.838H552.732" stroke="#666666" stroke-opacity="0.3" stroke-width="0.650244" stroke-dasharray="2.6"/>
<path d="M1.3252 183.35H552.732" stroke="#666666" stroke-opacity="0.3" stroke-width="0.650244" stroke-dasharray="2.6"/>
<path d="M1.3252 215.862H552.732" stroke="#666666" stroke-opacity="0.3" stroke-width="0.650244" stroke-dasharray="2.6"/>
<path d="M1.3252 248.375H552.732" stroke="#666666" stroke-opacity="0.3" stroke-width="0.650244" stroke-dasharray="2.6"/>
<path d="M1.3252 280.887H552.732" stroke="#666666" stroke-opacity="0.3" stroke-width="0.650244" stroke-dasharray="2.6"/>
<path d="M1 313.4L553.382 313.4" stroke="black" stroke-opacity="0.4" stroke-width="2.60097"/>
<path d="M7.82764 297.468L20.1823 281.862H30.9113L52.6944 215.862L64.7239 232.769H108.29L120.97 184.65L143.403 215.862L166.487 152.138H186.319L199.975 136.532H253.295L266.299 119.626H287.432L312.467 86.4637L323.196 119.626H344.979L370.664 152.138H401.875L412.929 119.626H423.658L435.363 103.37H479.254L491.609 119.626L504.289 86.4637H524.121L548.505 55.9022" stroke="#6CD4CB" stroke-width="2.9261"/>
<circle cx="6.85227" cy="296.818" r="4.22658" fill="white" stroke="#404641" stroke-width="2.60097"/>
<circle cx="88.1325" cy="231.794" r="4.22658" fill="white" stroke="#404641" stroke-width="2.60097"/>
<circle cx="167.462" cy="150.513" r="4.22658" fill="white" stroke="#404641" stroke-width="2.60097"/>
<circle cx="311.166" cy="85.4885" r="4.22658" fill="white" stroke="#404641" stroke-width="2.60097"/>
<circle cx="368.388" cy="150.513" r="4.22658" fill="white" stroke="#404641" stroke-width="2.60097"/>
<circle cx="445.767" cy="101.745" r="4.22658" fill="white" stroke="#404641" stroke-width="2.60097"/>
<circle cx="521.195" cy="85.4885" r="4.22658" fill="white" stroke="#404641" stroke-width="2.60097"/>
<circle cx="547.855" cy="55.577" r="4.22658" fill="white" stroke="#FF0000" stroke-width="2.60097"/>
<path d="M358.328 263.64L382.244 263.64" stroke="#6CD4CB" stroke-width="2.33964"/>
<path d="M386.578 268.801L389.173 264.035L386.74 259.555H388.787L389.71 261.464C389.935 261.901 390.122 262.35 390.396 262.924H390.459C390.683 262.35 390.87 261.901 391.07 261.464L391.944 259.555H393.89L391.457 264.122L394.052 268.801H392.006L390.97 266.755C390.733 266.281 390.521 265.794 390.247 265.233H390.197C389.972 265.794 389.747 266.281 389.523 266.755L388.537 268.801H386.578ZM397.022 268.976C395.063 268.976 393.541 267.616 393.541 265.307C393.541 263.049 395.138 261.639 396.798 261.639C398.719 261.639 399.717 263.049 399.717 264.97C399.717 265.32 399.68 265.657 399.63 265.819H395.325C395.475 266.967 396.224 267.566 397.259 267.566C397.833 267.566 398.332 267.391 398.831 267.079L399.455 268.202C398.769 268.676 397.883 268.976 397.022 268.976ZM395.3 264.596H398.145C398.145 263.66 397.721 263.061 396.822 263.061C396.086 263.061 395.437 263.585 395.3 264.596ZM395.288 260.778L394.701 260.104L396.036 258.806H397.509L398.844 260.104L398.257 260.778L396.798 259.83H396.748L395.288 260.778ZM399.093 259.78L398.395 259.218L399.543 257.434L400.541 258.095L399.093 259.78ZM400.188 271.484V261.814H401.685L401.823 262.537H401.86C402.447 262.038 403.17 261.639 403.919 261.639C405.641 261.639 406.664 263.049 406.664 265.195C406.664 267.591 405.229 268.976 403.694 268.976C403.083 268.976 402.497 268.701 401.96 268.215L402.022 269.363V271.484H400.188ZM403.283 267.466C404.131 267.466 404.78 266.742 404.78 265.22C404.78 263.885 404.356 263.149 403.395 263.149C402.921 263.149 402.497 263.386 402.022 263.872V266.942C402.459 267.329 402.908 267.466 403.283 267.466ZM408.966 268.801V258.844H410.8V261.352L410.713 262.662C411.274 262.138 411.961 261.639 412.909 261.639C414.419 261.639 415.068 262.687 415.068 264.446V268.801H413.233V264.671C413.233 263.585 412.934 263.211 412.248 263.211C411.674 263.211 411.312 263.486 410.8 263.997V268.801H408.966ZM417.63 268.976C416.382 268.976 415.558 268.09 415.558 266.905C415.558 265.407 416.769 264.621 419.589 264.322C419.551 263.635 419.252 263.111 418.391 263.111C417.742 263.111 417.118 263.398 416.469 263.773L415.808 262.562C416.631 262.051 417.63 261.639 418.728 261.639C420.499 261.639 421.41 262.699 421.41 264.721V268.801H419.913L419.788 268.053H419.738C419.127 268.577 418.428 268.976 417.63 268.976ZM418.228 267.541C418.753 267.541 419.139 267.291 419.589 266.855V265.445C417.879 265.657 417.305 266.131 417.305 266.755C417.305 267.304 417.692 267.541 418.228 267.541ZM418.528 271.921C417.892 271.921 417.455 271.534 417.455 270.923C417.455 270.311 417.892 269.924 418.528 269.924C419.152 269.924 419.589 270.311 419.589 270.923C419.589 271.534 419.152 271.921 418.528 271.921ZM422.24 268.801V261.814H423.737L423.875 262.737H423.912C424.523 262.138 425.235 261.639 426.183 261.639C427.693 261.639 428.342 262.687 428.342 264.446V268.801H426.508V264.671C426.508 263.585 426.208 263.211 425.522 263.211C424.948 263.211 424.586 263.486 424.074 263.997V268.801H422.24ZM431.652 271.833C430.005 271.833 428.732 271.272 428.732 270.037C428.732 269.45 429.094 268.951 429.73 268.589V268.527C429.369 268.29 429.094 267.928 429.094 267.354C429.094 266.83 429.456 266.343 429.88 266.044V265.994C429.394 265.644 428.944 264.983 428.944 264.159C428.944 262.525 430.28 261.639 431.764 261.639C432.151 261.639 432.526 261.714 432.813 261.814H435.333V263.161H434.148C434.322 263.398 434.46 263.785 434.46 264.222C434.46 265.794 433.262 266.593 431.764 266.593C431.49 266.593 431.165 266.53 430.866 266.43C430.679 266.593 430.567 266.742 430.567 267.029C430.567 267.404 430.841 267.603 431.665 267.603H432.85C434.535 267.603 435.458 268.127 435.458 269.35C435.458 270.76 433.986 271.833 431.652 271.833ZM431.764 265.457C432.376 265.457 432.862 264.995 432.862 264.159C432.862 263.348 432.388 262.887 431.764 262.887C431.141 262.887 430.666 263.348 430.666 264.159C430.666 264.995 431.153 265.457 431.764 265.457ZM431.927 270.673C432.975 270.673 433.699 270.211 433.699 269.662C433.699 269.163 433.287 269.038 432.538 269.038H431.69C431.265 269.038 430.966 269.001 430.716 268.939C430.404 269.188 430.267 269.463 430.267 269.75C430.267 270.336 430.916 270.673 431.927 270.673ZM444.649 260.254V264.646C444.649 267.716 443.339 268.976 441.08 268.976C438.834 268.976 437.487 267.716 437.487 264.646V259.555H439.333V264.808C439.333 266.73 440.007 267.379 441.08 267.379C442.178 267.379 442.877 266.73 442.877 264.808V259.555H443.713C444.337 259.505 444.911 259.318 444.911 258.482C444.911 258.145 444.811 257.808 444.699 257.583L446.071 257.022C446.284 257.334 446.471 257.833 446.471 258.357C446.471 259.493 445.747 260.029 444.649 260.254ZM440.893 259.106L440.094 258.182L442.39 256.248L443.376 257.446L440.893 259.106ZM445.913 268.801V261.814H447.41L447.547 262.737H447.585C448.196 262.138 448.907 261.639 449.856 261.639C451.366 261.639 452.014 262.687 452.014 264.446V268.801H450.18V264.671C450.18 263.585 449.881 263.211 449.194 263.211C448.62 263.211 448.259 263.486 447.747 263.997V268.801H445.913ZM455.325 271.833C453.678 271.833 452.405 271.272 452.405 270.037C452.405 269.45 452.767 268.951 453.403 268.589V268.527C453.041 268.29 452.767 267.928 452.767 267.354C452.767 266.83 453.129 266.343 453.553 266.044V265.994C453.066 265.644 452.617 264.983 452.617 264.159C452.617 262.525 453.952 261.639 455.437 261.639C455.824 261.639 456.198 261.714 456.485 261.814H459.006V263.161H457.82C457.995 263.398 458.132 263.785 458.132 264.222C458.132 265.794 456.934 266.593 455.437 266.593C455.163 266.593 454.838 266.53 454.539 266.43C454.351 266.593 454.239 266.742 454.239 267.029C454.239 267.404 454.514 267.603 455.337 267.603H456.523C458.207 267.603 459.131 268.127 459.131 269.35C459.131 270.76 457.658 271.833 455.325 271.833ZM455.437 265.457C456.048 265.457 456.535 264.995 456.535 264.159C456.535 263.348 456.061 262.887 455.437 262.887C454.813 262.887 454.339 263.348 454.339 264.159C454.339 264.995 454.826 265.457 455.437 265.457ZM455.599 270.673C456.647 270.673 457.371 270.211 457.371 269.662C457.371 269.163 456.959 269.038 456.211 269.038H455.362C454.938 269.038 454.638 269.001 454.389 268.939C454.077 269.188 453.94 269.463 453.94 269.75C453.94 270.336 454.589 270.673 455.599 270.673ZM463.518 268.976C461.783 268.976 460.66 267.603 460.66 265.307C460.66 263.036 462.083 261.639 463.592 261.639C464.379 261.639 464.865 261.938 465.364 262.4L465.302 261.302V258.844H467.124V268.801H465.639L465.502 268.078H465.452C464.94 268.577 464.241 268.976 463.518 268.976ZM463.992 267.466C464.478 267.466 464.89 267.266 465.302 266.742V263.673C464.878 263.286 464.428 263.149 463.992 263.149C463.206 263.149 462.544 263.897 462.544 265.295C462.544 266.742 463.068 267.466 463.992 267.466ZM470.134 268.976C468.624 268.976 467.975 267.928 467.975 266.181V261.814H469.809V265.944C469.809 267.017 470.109 267.404 470.783 267.404C471.357 267.404 471.731 267.154 472.205 266.53V261.814H474.039V268.801H472.542L472.405 267.803H472.355C471.756 268.514 471.082 268.976 470.134 268.976ZM470.982 271.921C470.358 271.921 469.922 271.534 469.922 270.923C469.922 270.311 470.358 269.924 470.982 269.924C471.619 269.924 472.055 270.311 472.055 270.923C472.055 271.534 471.619 271.921 470.982 271.921ZM474.955 268.801V261.814H476.452L476.59 262.737H476.627C477.239 262.138 477.95 261.639 478.898 261.639C480.408 261.639 481.057 262.687 481.057 264.446V268.801H479.223V264.671C479.223 263.585 478.923 263.211 478.237 263.211C477.663 263.211 477.301 263.486 476.789 263.997V268.801H474.955ZM484.367 271.833C482.72 271.833 481.447 271.272 481.447 270.037C481.447 269.45 481.809 268.951 482.446 268.589V268.527C482.084 268.29 481.809 267.928 481.809 267.354C481.809 266.83 482.171 266.343 482.595 266.044V265.994C482.109 265.644 481.659 264.983 481.659 264.159C481.659 262.525 482.995 261.639 484.479 261.639C484.866 261.639 485.241 261.714 485.528 261.814H488.048V263.161H486.863C487.037 263.398 487.175 263.785 487.175 264.222C487.175 265.794 485.977 266.593 484.479 266.593C484.205 266.593 483.881 266.53 483.581 266.43C483.394 266.593 483.282 266.742 483.282 267.029C483.282 267.404 483.556 267.603 484.38 267.603H485.565C487.25 267.603 488.173 268.127 488.173 269.35C488.173 270.76 486.701 271.833 484.367 271.833ZM484.479 265.457C485.091 265.457 485.578 264.995 485.578 264.159C485.578 263.348 485.103 262.887 484.479 262.887C483.856 262.887 483.381 263.348 483.381 264.159C483.381 264.995 483.868 265.457 484.479 265.457ZM484.642 270.673C485.69 270.673 486.414 270.211 486.414 269.662C486.414 269.163 486.002 269.038 485.253 269.038H484.405C483.98 269.038 483.681 269.001 483.431 268.939C483.119 269.188 482.982 269.463 482.982 269.75C482.982 270.336 483.631 270.673 484.642 270.673ZM493.009 268.976C491.774 268.976 490.539 268.489 489.64 267.628L490.701 266.356C491.362 266.967 492.236 267.379 493.047 267.379C494.007 267.379 494.519 266.967 494.519 266.318C494.519 265.632 493.958 265.42 493.134 265.07L491.899 264.546C490.963 264.159 490.027 263.411 490.027 262.063C490.027 260.553 491.35 259.393 493.221 259.393C494.294 259.393 495.368 259.817 496.116 260.578L495.18 261.739C494.594 261.252 493.982 260.978 493.221 260.978C492.41 260.978 491.899 261.339 491.899 261.951C491.899 262.612 492.548 262.849 493.334 263.161L494.544 263.673C495.667 264.134 496.403 264.846 496.403 266.181C496.403 267.691 495.143 268.976 493.009 268.976ZM496.998 268.801V259.555H498.845V263.199H502.339V259.555H504.173V268.801H502.339V264.808H498.845V268.801H496.998ZM509.071 268.976C506.625 268.976 504.941 267.142 504.941 264.147C504.941 261.14 506.625 259.393 509.071 259.393C511.517 259.393 513.201 261.152 513.201 264.147C513.201 267.142 511.517 268.976 509.071 268.976ZM509.071 267.379C510.443 267.379 511.317 266.118 511.317 264.147C511.317 262.163 510.443 260.978 509.071 260.978C507.698 260.978 506.825 262.163 506.825 264.147C506.825 266.118 507.698 267.379 509.071 267.379ZM514.802 268.801L513.03 259.555H514.902L515.638 264.072C515.775 265.045 515.925 266.019 516.062 267.017H516.112C516.299 266.019 516.499 265.033 516.698 264.072L517.771 259.555H519.356L520.417 264.072C520.616 265.02 520.804 266.019 521.003 267.017H521.066C521.203 266.019 521.34 265.033 521.477 264.072L522.214 259.555H523.961L522.251 268.801H519.955L518.919 264.234C518.77 263.511 518.632 262.799 518.52 262.088H518.47C518.345 262.799 518.221 263.511 518.071 264.234L517.06 268.801H514.802ZM524.306 268.801V259.555H526.191L528.873 264.484L529.797 266.48H529.859C529.772 265.52 529.622 264.297 529.622 263.249V259.555H531.369V268.801H529.497L526.827 263.86L525.891 261.876H525.829C525.916 262.874 526.053 264.035 526.053 265.095V268.801H524.306ZM532.613 268.801V259.555H534.46V268.801H532.613ZM539.36 267.466C540.733 267.466 541.606 266.218 541.606 264.147C541.606 262.163 540.733 260.978 539.36 260.978C537.988 260.978 537.114 262.163 537.114 264.147C537.114 266.218 537.988 267.466 539.36 267.466ZM542.343 271.309C540.458 271.309 539.148 270.299 538.512 268.901C536.54 268.527 535.23 266.78 535.23 264.147C535.23 261.14 536.915 259.393 539.36 259.393C541.806 259.393 543.491 261.152 543.491 264.147C543.491 266.668 542.293 268.365 540.458 268.839C540.883 269.537 541.719 269.824 542.555 269.824C542.954 269.824 543.303 269.762 543.565 269.675L543.902 271.035C543.578 271.185 543.016 271.309 542.343 271.309Z" fill="#231815"/>
<circle cx="370.026" cy="263.9" r="3.37948" fill="white" stroke="#404641" stroke-width="2.07968"/>
<path d="M1.3252 345.558L1.3252 -7.9006e-05" stroke="black" stroke-opacity="0.4" stroke-width="2.60097"/>
<path d="M39.3214 287.675V278.251H40.8046V282.1H44.8324V278.251H46.3156V287.675H44.8324V283.391H40.8046V287.675H39.3214ZM49.3107 282.56L48.9271 283.826H51.4972L51.1264 282.56C50.8067 281.537 50.5254 280.489 50.2441 279.427H50.1802C49.9117 280.501 49.6176 281.537 49.3107 282.56ZM46.2675 287.675L49.3874 278.251H51.1008L54.2208 287.675H52.648L51.8552 284.989H48.5819L47.7763 287.675H46.2675ZM50.2313 290.731C49.6815 290.731 49.3107 290.385 49.3107 289.836C49.3107 289.324 49.6815 288.979 50.2313 288.979C50.7684 288.979 51.1392 289.324 51.1392 289.836C51.1392 290.385 50.7684 290.731 50.2313 290.731ZM54.1833 287.675V278.251H55.7049L58.8248 283.788L59.8094 285.782H59.8734C59.7966 284.81 59.6816 283.672 59.6816 282.65V278.251H61.0881V287.675H59.5665L56.4465 282.125L55.462 280.156H55.398C55.4748 281.128 55.5898 282.215 55.5898 283.238V287.675H54.1833ZM66.1308 287.841C63.6246 287.841 61.7834 286.076 61.7834 282.995C61.7834 279.926 63.6758 278.085 66.1692 278.085C67.499 278.085 68.394 278.673 68.9694 279.274L68.1767 280.22C67.7036 279.747 67.1282 279.376 66.2203 279.376C64.4685 279.376 63.305 280.732 63.305 282.944C63.305 285.181 64.3407 286.549 66.2842 286.549C66.8596 286.549 67.435 286.383 67.7675 286.089V283.877H65.9006V282.662H69.1101V286.741C68.4835 287.368 67.4223 287.841 66.1308 287.841ZM72.4907 287.675V286.818C75.112 284.248 76.6975 282.611 76.6975 281.179C76.6975 280.182 76.1605 279.517 75.0992 279.517C74.3576 279.517 73.7438 279.99 73.2452 280.565L72.414 279.747C73.2196 278.877 74.0507 278.34 75.2782 278.34C77.0044 278.34 78.1169 279.44 78.1169 281.102C78.1169 282.777 76.5953 284.465 74.6389 286.511C75.112 286.46 75.713 286.422 76.1733 286.422H78.5644V287.675H72.4907ZM78.5045 287.675V286.818C81.1257 284.248 82.7113 282.611 82.7113 281.179C82.7113 280.182 82.1742 279.517 81.1129 279.517C80.3713 279.517 79.7575 279.99 79.2589 280.565L78.4277 279.747C79.2333 278.877 80.0644 278.34 81.2919 278.34C83.0181 278.34 84.1306 279.44 84.1306 281.102C84.1306 282.777 82.609 284.465 80.6526 286.511C81.1257 286.46 81.7267 286.422 82.187 286.422H84.5781V287.675H78.5045Z" fill="#231815"/>
<path d="M114.123 241.004V231.58H115.606V235.429H119.634V231.58H121.117V241.004H119.634V236.72H115.606V241.004H114.123ZM124.112 235.889L123.729 237.155H126.299L125.928 235.889C125.608 234.866 125.327 233.818 125.046 232.756H124.982C124.713 233.83 124.419 234.866 124.112 235.889ZM121.069 241.004L124.189 231.58H125.903L129.023 241.004H127.45L126.657 238.319H123.384L122.578 241.004H121.069ZM125.033 244.06C124.483 244.06 124.112 243.715 124.112 243.165C124.112 242.653 124.483 242.308 125.033 242.308C125.57 242.308 125.941 242.653 125.941 243.165C125.941 243.715 125.57 244.06 125.033 244.06ZM128.985 241.004V231.58H130.507L133.627 237.117L134.611 239.111H134.675C134.598 238.14 134.483 237.002 134.483 235.979V231.58H135.89V241.004H134.368L131.248 235.454L130.264 233.485H130.2C130.277 234.457 130.392 235.544 130.392 236.567V241.004H128.985ZM140.933 241.17C138.426 241.17 136.585 239.405 136.585 236.324C136.585 233.255 138.478 231.414 140.971 231.414C142.301 231.414 143.196 232.002 143.771 232.603L142.978 233.549C142.505 233.076 141.93 232.705 141.022 232.705C139.27 232.705 138.107 234.061 138.107 236.273C138.107 238.51 139.142 239.879 141.086 239.879C141.661 239.879 142.237 239.712 142.569 239.418V237.206H140.702V235.991H143.912V240.07C143.285 240.697 142.224 241.17 140.933 241.17ZM147.83 241.004V239.789H149.888V233.498H148.2V232.565C149.083 232.411 149.709 232.181 150.246 231.849H151.359V239.789H153.2V241.004H147.83ZM156.401 241.17C154.636 241.17 153.332 240.122 153.332 238.664C153.332 237.5 154.15 236.72 155.02 236.26V236.209C154.316 235.71 153.754 235.032 153.754 234.073C153.754 232.616 154.905 231.67 156.439 231.67C158.076 231.67 159.099 232.68 159.099 234.125C159.099 235.071 158.434 235.851 157.858 236.273V236.337C158.689 236.823 159.444 237.475 159.444 238.702C159.444 240.096 158.216 241.17 156.401 241.17ZM157.014 235.902C157.564 235.39 157.858 234.828 157.858 234.214C157.858 233.37 157.334 232.731 156.413 232.731C155.646 232.731 155.071 233.242 155.071 234.073C155.071 235.058 155.966 235.493 157.014 235.902ZM156.426 240.109C157.398 240.109 158.05 239.546 158.05 238.664C158.05 237.577 157.014 237.206 155.736 236.682C155.096 237.129 154.636 237.756 154.636 238.523C154.636 239.457 155.416 240.109 156.426 240.109Z" fill="#231815"/>
<path d="M199.154 162.366V152.942H200.638V156.791H204.665V152.942H206.149V162.366H204.665V158.082H200.638V162.366H199.154ZM209.144 157.251L208.76 158.517H211.33L210.959 157.251C210.64 156.228 210.358 155.18 210.077 154.119H210.013C209.745 155.193 209.451 156.228 209.144 157.251ZM206.1 162.366L209.22 152.942H210.934L214.054 162.366H212.481L211.688 159.681H208.415L207.609 162.366H206.1ZM210.064 165.422C209.515 165.422 209.144 165.077 209.144 164.527C209.144 164.015 209.515 163.67 210.064 163.67C210.601 163.67 210.972 164.015 210.972 164.527C210.972 165.077 210.601 165.422 210.064 165.422ZM214.016 162.366V152.942H215.538L218.658 158.479L219.642 160.474H219.706C219.63 159.502 219.515 158.364 219.515 157.341V152.942H220.921V162.366H219.399L216.28 156.817L215.295 154.847H215.231C215.308 155.819 215.423 156.906 215.423 157.929V162.366H214.016ZM225.964 162.532C223.458 162.532 221.616 160.768 221.616 157.686C221.616 154.617 223.509 152.776 226.002 152.776C227.332 152.776 228.227 153.364 228.802 153.965L228.01 154.911C227.537 154.438 226.961 154.067 226.053 154.067C224.302 154.067 223.138 155.423 223.138 157.635C223.138 159.873 224.174 161.241 226.117 161.241C226.693 161.241 227.268 161.075 227.6 160.78V158.568H225.734V157.354H228.943V161.433C228.317 162.059 227.255 162.532 225.964 162.532ZM232.861 162.366V161.151H234.919V154.86H233.232V153.927C234.114 153.773 234.74 153.543 235.277 153.211H236.39V161.151H238.231V162.366H232.861ZM241.202 162.532C239.718 162.532 238.759 161.944 238.133 161.241L238.849 160.295C239.399 160.857 240.102 161.33 241.074 161.33C242.135 161.33 242.864 160.755 242.864 159.834C242.864 158.824 242.199 158.172 240.076 158.172V157.085C241.931 157.085 242.544 156.407 242.544 155.525C242.544 154.707 241.994 154.208 241.099 154.208C240.371 154.208 239.757 154.566 239.22 155.103L238.453 154.183C239.194 153.505 240.064 153.032 241.151 153.032C242.838 153.032 244.028 153.901 244.028 155.41C244.028 156.471 243.401 157.175 242.404 157.545V157.609C243.49 157.878 244.347 158.671 244.347 159.911C244.347 161.56 242.928 162.532 241.202 162.532Z" fill="#231815"/>
<path d="M325.103 95.2361V85.8123H326.586V89.6611H330.614V85.8123H332.097V95.2361H330.614V90.9526H326.586V95.2361H325.103ZM335.092 90.1214L334.708 91.3873H337.278L336.908 90.1214C336.588 89.0985 336.307 88.05 336.025 86.9887H335.961C335.693 88.0628 335.399 89.0985 335.092 90.1214ZM332.049 95.2361L335.169 85.8123H336.882L340.002 95.2361H338.429L337.636 92.5509H334.363L333.558 95.2361H332.049ZM336.013 98.2921C335.463 98.2921 335.092 97.9468 335.092 97.397C335.092 96.8856 335.463 96.5403 336.013 96.5403C336.55 96.5403 336.92 96.8856 336.92 97.397C336.92 97.9468 336.55 98.2921 336.013 98.2921ZM339.965 95.2361V85.8123H341.486L344.606 91.349L345.591 93.3437H345.655C345.578 92.3719 345.463 91.2339 345.463 90.2109V85.8123H346.869V95.2361H345.348L342.228 89.6867L341.243 87.7176H341.179C341.256 88.6893 341.371 89.7762 341.371 90.7991V95.2361H339.965ZM351.912 95.4023C349.406 95.4023 347.565 93.6378 347.565 90.5562C347.565 87.4874 349.457 85.6461 351.95 85.6461C353.28 85.6461 354.175 86.2343 354.751 86.8353L353.958 87.7815C353.485 87.3084 352.909 86.9376 352.002 86.9376C350.25 86.9376 349.086 88.2929 349.086 90.505C349.086 92.7427 350.122 94.1109 352.065 94.1109C352.641 94.1109 353.216 93.9446 353.549 93.6505V91.4385H351.682V90.2237H354.891V94.3027C354.265 94.9292 353.204 95.4023 351.912 95.4023ZM359.627 88.8811C359.627 90.0064 360.164 90.6457 361.162 90.6457C361.724 90.6457 362.402 90.3132 362.926 89.5077C362.76 87.8198 362.07 87.0399 361.072 87.0399C360.267 87.0399 359.627 87.7176 359.627 88.8811ZM360.765 95.4023C359.704 95.4023 358.937 94.9676 358.413 94.405L359.218 93.4971C359.563 93.9191 360.139 94.2004 360.689 94.2004C361.891 94.2004 362.901 93.2797 362.965 90.5945C362.415 91.2978 361.597 91.707 360.906 91.707C359.32 91.707 358.259 90.7736 358.259 88.8811C358.259 87.0782 359.538 85.9019 361.059 85.9019C362.862 85.9019 364.32 87.3212 364.32 90.3516C364.32 93.9574 362.619 95.4023 360.765 95.4023Z" fill="#231815"/>
<path d="M374.97 170.677V161.253H376.454V165.102H380.481V161.253H381.965V170.677H380.481V166.393H376.454V170.677H374.97ZM384.96 165.562L384.576 166.828H387.146L386.775 165.562C386.456 164.539 386.174 163.491 385.893 162.43H385.829C385.561 163.504 385.267 164.539 384.96 165.562ZM381.916 170.677L385.036 161.253H386.75L389.87 170.677H388.297L387.504 167.992H384.231L383.425 170.677H381.916ZM385.88 173.733C385.33 173.733 384.96 173.388 384.96 172.838C384.96 172.326 385.33 171.981 385.88 171.981C386.417 171.981 386.788 172.326 386.788 172.838C386.788 173.388 386.417 173.733 385.88 173.733ZM389.832 170.677V161.253H391.354L394.474 166.79L395.458 168.785H395.522C395.446 167.813 395.33 166.675 395.33 165.652V161.253H396.737V170.677H395.215L392.095 165.128L391.111 163.158H391.047C391.124 164.13 391.239 165.217 391.239 166.24V170.677H389.832ZM401.78 170.843C399.274 170.843 397.432 169.079 397.432 165.997C397.432 162.928 399.325 161.087 401.818 161.087C403.148 161.087 404.043 161.675 404.618 162.276L403.826 163.222C403.352 162.749 402.777 162.378 401.869 162.378C400.117 162.378 398.954 163.734 398.954 165.946C398.954 168.184 399.99 169.552 401.933 169.552C402.509 169.552 403.084 169.386 403.416 169.091V166.879H401.55V165.665H404.759V169.744C404.132 170.37 403.071 170.843 401.78 170.843ZM408.677 170.677V169.462H410.735V163.171H409.048V162.238C409.93 162.084 410.556 161.854 411.093 161.522H412.206V169.462H414.047V170.677H408.677ZM417.018 170.843C415.534 170.843 414.575 170.255 413.949 169.552L414.665 168.606C415.215 169.168 415.918 169.641 416.89 169.641C417.951 169.641 418.68 169.066 418.68 168.145C418.68 167.135 418.015 166.483 415.892 166.483V165.396C417.746 165.396 418.36 164.718 418.36 163.836C418.36 163.018 417.81 162.519 416.915 162.519C416.186 162.519 415.573 162.877 415.036 163.414L414.268 162.494C415.01 161.816 415.88 161.343 416.966 161.343C418.654 161.343 419.843 162.212 419.843 163.721C419.843 164.782 419.217 165.486 418.22 165.856V165.92C419.306 166.189 420.163 166.982 420.163 168.222C420.163 169.871 418.744 170.843 417.018 170.843Z" fill="#231815"/>
<path d="M441.568 124.645V115.222H443.051V119.07H447.079V115.222H448.562V124.645H447.079V120.362H443.051V124.645H441.568ZM451.557 119.531L451.174 120.796H453.744L453.373 119.531C453.053 118.508 452.772 117.459 452.491 116.398H452.427C452.158 117.472 451.864 118.508 451.557 119.531ZM448.514 124.645L451.634 115.222H453.347L456.467 124.645H454.895L454.102 121.96H450.828L450.023 124.645H448.514ZM452.478 127.701C451.928 127.701 451.557 127.356 451.557 126.806C451.557 126.295 451.928 125.949 452.478 125.949C453.015 125.949 453.386 126.295 453.386 126.806C453.386 127.356 453.015 127.701 452.478 127.701ZM456.43 124.645V115.222H457.951L461.071 120.758L462.056 122.753H462.12C462.043 121.781 461.928 120.643 461.928 119.62V115.222H463.335V124.645H461.813L458.693 119.096L457.709 117.127H457.645C457.721 118.099 457.836 119.185 457.836 120.208V124.645H456.43ZM468.377 124.811C465.871 124.811 464.03 123.047 464.03 119.965C464.03 116.897 465.922 115.055 468.416 115.055C469.746 115.055 470.641 115.643 471.216 116.244L470.423 117.191C469.95 116.718 469.375 116.347 468.467 116.347C466.715 116.347 465.552 117.702 465.552 119.914C465.552 122.152 466.587 123.52 468.531 123.52C469.106 123.52 469.682 123.354 470.014 123.06V120.848H468.147V119.633H471.357V123.712C470.73 124.338 469.669 124.811 468.377 124.811ZM475.274 124.645V123.431H477.333V117.14H475.645V116.206C476.527 116.053 477.154 115.822 477.691 115.49H478.803V123.431H480.645V124.645H475.274ZM483.615 124.811C482.132 124.811 481.173 124.223 480.546 123.52L481.262 122.574C481.812 123.136 482.516 123.61 483.487 123.61C484.549 123.61 485.277 123.034 485.277 122.114C485.277 121.103 484.613 120.451 482.49 120.451V119.364C484.344 119.364 484.958 118.687 484.958 117.804C484.958 116.986 484.408 116.487 483.513 116.487C482.784 116.487 482.17 116.845 481.633 117.382L480.866 116.462C481.608 115.784 482.477 115.311 483.564 115.311C485.252 115.311 486.441 116.181 486.441 117.689C486.441 118.751 485.815 119.454 484.817 119.825V119.889C485.904 120.157 486.761 120.95 486.761 122.19C486.761 123.84 485.341 124.811 483.615 124.811Z" fill="#231815"/>
<path d="M507.568 107V97.5763H509.051V101.425H513.079V97.5763H514.562V107H513.079V102.716H509.051V107H507.568ZM517.557 101.885L517.174 103.151H519.744L519.373 101.885C519.053 100.862 518.772 99.8139 518.491 98.7526H518.427C518.158 99.8267 517.864 100.862 517.557 101.885ZM514.514 107L517.634 97.5763H519.347L522.467 107H520.895L520.102 104.315H516.828L516.023 107H514.514ZM518.478 110.056C517.928 110.056 517.557 109.711 517.557 109.161C517.557 108.649 517.928 108.304 518.478 108.304C519.015 108.304 519.386 108.649 519.386 109.161C519.386 109.711 519.015 110.056 518.478 110.056ZM522.43 107V97.5763H523.951L527.071 103.113L528.056 105.108H528.12C528.043 104.136 527.928 102.998 527.928 101.975V97.5763H529.335V107H527.813L524.693 101.451L523.709 99.4815H523.645C523.721 100.453 523.836 101.54 523.836 102.563V107H522.43ZM534.377 107.166C531.871 107.166 530.03 105.402 530.03 102.32C530.03 99.2513 531.922 97.41 534.416 97.41C535.746 97.41 536.641 97.9982 537.216 98.5992L536.423 99.5454C535.95 99.0723 535.375 98.7015 534.467 98.7015C532.715 98.7015 531.552 100.057 531.552 102.269C531.552 104.507 532.587 105.875 534.531 105.875C535.106 105.875 535.682 105.709 536.014 105.414V103.202H534.147V101.988H537.357V106.067C536.73 106.693 535.669 107.166 534.377 107.166ZM541.274 107V105.785H543.333V99.4943H541.645V98.5608C542.527 98.4074 543.154 98.1772 543.691 97.8448H544.803V105.785H546.645V107H541.274ZM549.833 107.166C547.966 107.166 546.789 105.466 546.789 102.384C546.789 99.3025 547.966 97.6658 549.833 97.6658C551.712 97.6658 552.876 99.3152 552.876 102.384C552.876 105.466 551.712 107.166 549.833 107.166ZM549.833 106.003C550.792 106.003 551.469 105.018 551.469 102.384C551.469 99.75 550.792 98.8293 549.833 98.8293C548.874 98.8293 548.196 99.75 548.196 102.384C548.196 105.018 548.874 106.003 549.833 106.003Z" fill="#231815"/>
<path d="M513.491 45V35.5379H515.384V39.2716H518.964V35.5379H520.844V45H518.964V40.9083H515.384V45H513.491ZM520.675 45L523.706 35.5379H525.931L528.961 45H526.979L525.624 40.0772C525.342 39.0926 525.074 37.9929 524.805 36.9828H524.754C524.498 38.0057 524.23 39.0926 523.949 40.0772L522.593 45H520.675ZM522.555 42.5705V41.1129H527.056V42.5705H522.555ZM524.792 48.2094C524.153 48.2094 523.706 47.8131 523.706 47.1737C523.706 46.56 524.153 46.1508 524.792 46.1508C525.445 46.1508 525.892 46.56 525.892 47.1737C525.892 47.8131 525.445 48.2094 524.792 48.2094ZM528.803 45V35.5379H530.721L533.47 40.5886L534.429 42.6345H534.493C534.39 41.6499 534.237 40.384 534.237 39.31V35.5379H536.04V45H534.109L531.373 39.9365L530.414 37.9162H530.35C530.439 38.9264 530.593 40.1155 530.593 41.2152V45H528.803ZM541.168 45.179C538.598 45.179 536.628 43.4656 536.628 40.3073C536.628 37.1874 538.649 35.3717 541.168 35.3717C542.523 35.3717 543.469 35.9599 544.083 36.5736L543.086 37.7883C542.613 37.3408 542.076 36.9956 541.232 36.9956C539.646 36.9956 538.559 38.2231 538.559 40.2434C538.559 42.3148 539.505 43.5423 541.359 43.5423C541.82 43.5423 542.28 43.4145 542.549 43.1971V41.3302H540.861V39.7831H544.236V44.041C543.597 44.6803 542.472 45.179 541.168 45.179ZM547.809 45C547.988 41.8289 548.576 39.8086 550.34 37.3664H546.082V35.7808H552.361V36.9444C550.212 39.5657 549.88 41.407 549.714 45H547.809Z" fill="#FF0000"/>
<path d="M29.1809 330.154C29.1809 330.658 29.076 331.095 28.8662 331.465C28.6564 331.834 28.3717 332.136 28.0121 332.371C27.6574 332.606 27.2579 332.778 26.8133 332.888V332.933C27.6924 333.043 28.3592 333.313 28.8137 333.742C29.2733 334.172 29.503 334.746 29.503 335.465C29.503 336.105 29.3457 336.677 29.031 337.181C28.7213 337.686 28.2418 338.083 27.5925 338.372C26.9432 338.662 26.1066 338.807 25.0826 338.807C24.4783 338.807 23.9139 338.757 23.3894 338.657C22.87 338.562 22.3805 338.415 21.921 338.215V336.245C22.3905 336.484 22.8824 336.667 23.3969 336.792C23.9114 336.911 24.3909 336.971 24.8354 336.971C25.6645 336.971 26.2439 336.829 26.5736 336.544C26.9082 336.255 27.0756 335.85 27.0756 335.331C27.0756 335.026 26.9981 334.769 26.8433 334.559C26.6885 334.349 26.4187 334.189 26.0341 334.079C25.6545 333.97 25.1226 333.915 24.4383 333.915H23.6067V332.139H24.4533C25.1276 332.139 25.6396 332.076 25.9892 331.952C26.3438 331.822 26.5836 331.647 26.7084 331.427C26.8383 331.202 26.9032 330.948 26.9032 330.663C26.9032 330.273 26.7834 329.969 26.5436 329.749C26.3039 329.529 25.9043 329.419 25.3449 329.419C24.9952 329.419 24.6756 329.464 24.3859 329.554C24.1012 329.639 23.8439 329.744 23.6142 329.869C23.3844 329.989 23.1821 330.106 23.0073 330.221L21.9359 328.625C22.3655 328.315 22.8675 328.058 23.4419 327.853C24.0213 327.649 24.7105 327.546 25.5097 327.546C26.6385 327.546 27.5326 327.773 28.1919 328.228C28.8512 328.683 29.1809 329.324 29.1809 330.154ZM36.3808 327.704L32.2976 338.657H30.2223L34.3055 327.704H36.3808ZM36.9952 334.004C36.9952 333.375 37.0401 332.753 37.13 332.139C37.2249 331.52 37.3873 330.938 37.617 330.393C37.8468 329.844 38.1689 329.359 38.5835 328.94C38.9981 328.515 39.525 328.183 40.1644 327.943C40.8037 327.699 41.5779 327.576 42.4869 327.576C42.7017 327.576 42.9514 327.586 43.2361 327.606C43.5258 327.621 43.7656 327.649 43.9554 327.689V329.539C43.7556 329.494 43.5408 329.459 43.3111 329.434C43.0863 329.404 42.8615 329.389 42.6368 329.389C41.7277 329.389 41.0235 329.534 40.524 329.824C40.0295 330.114 39.6799 330.516 39.4751 331.03C39.2753 331.54 39.1579 332.134 39.123 332.813H39.2203C39.3602 332.568 39.535 332.351 39.7448 332.161C39.9596 331.972 40.2193 331.822 40.524 331.712C40.8287 331.597 41.1858 331.54 41.5954 331.54C42.2347 331.54 42.7891 331.677 43.2586 331.952C43.7281 332.221 44.0903 332.613 44.345 333.128C44.5997 333.642 44.7271 334.269 44.7271 335.008C44.7271 335.798 44.5747 336.477 44.2701 337.046C43.9654 337.616 43.5333 338.053 42.9739 338.357C42.4195 338.657 41.7602 338.807 40.996 338.807C40.4366 338.807 39.9146 338.712 39.4301 338.522C38.9456 338.327 38.5211 338.033 38.1565 337.638C37.7918 337.244 37.5071 336.747 37.3024 336.147C37.0976 335.543 36.9952 334.829 36.9952 334.004ZM40.951 336.956C41.4056 336.956 41.7752 336.802 42.0599 336.492C42.3446 336.182 42.4869 335.698 42.4869 335.038C42.4869 334.504 42.3621 334.084 42.1123 333.78C41.8676 333.47 41.4955 333.315 40.996 333.315C40.6563 333.315 40.3567 333.393 40.0969 333.547C39.8422 333.697 39.6449 333.89 39.5051 334.124C39.3652 334.354 39.2953 334.591 39.2953 334.836C39.2953 335.091 39.3302 335.343 39.4002 335.593C39.4701 335.843 39.575 336.07 39.7148 336.275C39.8547 336.479 40.027 336.644 40.2318 336.769C40.4416 336.894 40.6813 336.956 40.951 336.956Z" fill="black"/>
<path d="M100.643 338.657H98.3281V332.319C98.3281 332.144 98.3306 331.929 98.3356 331.674C98.3406 331.415 98.3481 331.15 98.3581 330.88C98.368 330.606 98.378 330.358 98.388 330.139C98.3331 330.203 98.2207 330.316 98.0509 330.476C97.8861 330.631 97.7312 330.77 97.5864 330.895L96.3277 331.907L95.2113 330.513L98.7402 327.704H100.643V338.657ZM109.424 338.657H107.109V332.319C107.109 332.144 107.111 331.929 107.116 331.674C107.121 331.415 107.129 331.15 107.139 330.88C107.149 330.606 107.159 330.358 107.169 330.139C107.114 330.203 107.002 330.316 106.832 330.476C106.667 330.631 106.512 330.77 106.367 330.895L105.108 331.907L103.992 330.513L107.521 327.704H109.424V338.657ZM118.13 327.704L114.047 338.657H111.971L116.055 327.704H118.13ZM118.744 334.004C118.744 333.375 118.789 332.753 118.879 332.139C118.974 331.52 119.136 330.938 119.366 330.393C119.596 329.844 119.918 329.359 120.333 328.94C120.747 328.515 121.274 328.183 121.913 327.943C122.553 327.699 123.327 327.576 124.236 327.576C124.451 327.576 124.7 327.586 124.985 327.606C125.275 327.621 125.515 327.649 125.704 327.689V329.539C125.505 329.494 125.29 329.459 125.06 329.434C124.835 329.404 124.611 329.389 124.386 329.389C123.477 329.389 122.773 329.534 122.273 329.824C121.779 330.114 121.429 330.516 121.224 331.03C121.024 331.54 120.907 332.134 120.872 332.813H120.969C121.109 332.568 121.284 332.351 121.494 332.161C121.709 331.972 121.968 331.822 122.273 331.712C122.578 331.597 122.935 331.54 123.344 331.54C123.984 331.54 124.538 331.677 125.008 331.952C125.477 332.221 125.839 332.613 126.094 333.128C126.349 333.642 126.476 334.269 126.476 335.008C126.476 335.798 126.324 336.477 126.019 337.046C125.714 337.616 125.282 338.053 124.723 338.357C124.169 338.657 123.509 338.807 122.745 338.807C122.186 338.807 121.664 338.712 121.179 338.522C120.695 338.327 120.27 338.033 119.906 337.638C119.541 337.244 119.256 336.747 119.051 336.147C118.847 335.543 118.744 334.829 118.744 334.004ZM122.7 336.956C123.155 336.956 123.524 336.802 123.809 336.492C124.094 336.182 124.236 335.698 124.236 335.038C124.236 334.504 124.111 334.084 123.861 333.78C123.617 333.47 123.245 333.315 122.745 333.315C122.405 333.315 122.106 333.393 121.846 333.547C121.591 333.697 121.394 333.89 121.254 334.124C121.114 334.354 121.044 334.591 121.044 334.836C121.044 335.091 121.079 335.343 121.149 335.593C121.219 335.843 121.324 336.07 121.464 336.275C121.604 336.479 121.776 336.644 121.981 336.769C122.191 336.894 122.43 336.956 122.7 336.956Z" fill="black"/>
<path d="M177.497 338.657H175.182V332.319C175.182 332.144 175.185 331.929 175.19 331.675C175.195 331.415 175.202 331.15 175.212 330.88C175.222 330.606 175.232 330.358 175.242 330.139C175.187 330.204 175.075 330.316 174.905 330.476C174.74 330.631 174.585 330.77 174.44 330.895L173.182 331.907L172.065 330.513L175.594 327.704H177.497V338.657ZM188.166 332.379C188.166 333.008 188.119 333.632 188.024 334.252C187.934 334.871 187.774 335.456 187.544 336.005C187.314 336.549 186.992 337.034 186.578 337.458C186.163 337.878 185.636 338.208 184.997 338.447C184.357 338.687 183.583 338.807 182.674 338.807C182.459 338.807 182.207 338.797 181.918 338.777C181.628 338.762 181.388 338.737 181.198 338.702V336.844C181.398 336.894 181.61 336.934 181.835 336.964C182.06 336.989 182.287 337.001 182.517 337.001C183.431 337.001 184.135 336.857 184.63 336.567C185.129 336.277 185.479 335.875 185.679 335.361C185.883 334.846 186.001 334.252 186.031 333.578H185.941C185.796 333.817 185.624 334.035 185.424 334.229C185.229 334.419 184.979 334.572 184.675 334.686C184.37 334.796 183.983 334.851 183.513 334.851C182.889 334.851 182.345 334.716 181.88 334.447C181.421 334.172 181.063 333.777 180.809 333.263C180.559 332.743 180.434 332.117 180.434 331.382C180.434 330.588 180.584 329.909 180.884 329.344C181.188 328.775 181.62 328.338 182.18 328.033C182.739 327.729 183.398 327.576 184.158 327.576C184.717 327.576 185.239 327.674 185.724 327.869C186.208 328.058 186.633 328.351 186.997 328.745C187.367 329.14 187.654 329.639 187.859 330.244C188.064 330.848 188.166 331.56 188.166 332.379ZM184.203 329.434C183.753 329.434 183.386 329.589 183.101 329.899C182.817 330.209 182.674 330.693 182.674 331.352C182.674 331.882 182.797 332.301 183.041 332.611C183.286 332.921 183.658 333.076 184.158 333.076C184.502 333.076 184.802 333.001 185.057 332.851C185.311 332.696 185.509 332.504 185.649 332.274C185.793 332.039 185.866 331.799 185.866 331.555C185.866 331.3 185.831 331.048 185.761 330.798C185.691 330.548 185.586 330.321 185.446 330.116C185.306 329.911 185.132 329.747 184.922 329.622C184.717 329.497 184.477 329.434 184.203 329.434ZM194.984 327.704L190.901 338.657H188.825L192.909 327.704H194.984ZM195.598 334.005C195.598 333.375 195.643 332.753 195.733 332.139C195.828 331.52 195.99 330.938 196.22 330.393C196.45 329.844 196.772 329.359 197.187 328.94C197.601 328.515 198.128 328.183 198.767 327.943C199.407 327.699 200.181 327.576 201.09 327.576C201.305 327.576 201.554 327.586 201.839 327.606C202.129 327.621 202.369 327.649 202.558 327.689V329.539C202.359 329.494 202.144 329.459 201.914 329.434C201.689 329.404 201.465 329.389 201.24 329.389C200.331 329.389 199.627 329.534 199.127 329.824C198.633 330.114 198.283 330.516 198.078 331.03C197.878 331.54 197.761 332.134 197.726 332.813H197.823C197.963 332.569 198.138 332.351 198.348 332.162C198.563 331.972 198.822 331.822 199.127 331.712C199.432 331.597 199.789 331.54 200.198 331.54C200.838 331.54 201.392 331.677 201.862 331.952C202.331 332.221 202.693 332.614 202.948 333.128C203.203 333.642 203.33 334.269 203.33 335.009C203.33 335.798 203.178 336.477 202.873 337.046C202.568 337.616 202.136 338.053 201.577 338.358C201.023 338.657 200.363 338.807 199.599 338.807C199.04 338.807 198.518 338.712 198.033 338.522C197.549 338.328 197.124 338.033 196.76 337.638C196.395 337.244 196.11 336.747 195.905 336.147C195.701 335.543 195.598 334.829 195.598 334.005ZM199.554 336.957C200.009 336.957 200.378 336.802 200.663 336.492C200.948 336.182 201.09 335.698 201.09 335.039C201.09 334.504 200.965 334.085 200.715 333.78C200.471 333.47 200.099 333.315 199.599 333.315C199.259 333.315 198.96 333.393 198.7 333.548C198.445 333.697 198.248 333.89 198.108 334.124C197.968 334.354 197.898 334.591 197.898 334.836C197.898 335.091 197.933 335.343 198.003 335.593C198.073 335.843 198.178 336.07 198.318 336.275C198.458 336.48 198.63 336.644 198.835 336.769C199.045 336.894 199.284 336.957 199.554 336.957Z" fill="black"/>
<path d="M270.43 338.657H262.773V337.046L265.523 334.267C266.077 333.697 266.522 333.223 266.856 332.843C267.196 332.459 267.441 332.109 267.591 331.794C267.745 331.48 267.823 331.143 267.823 330.783C267.823 330.348 267.701 330.024 267.456 329.809C267.216 329.589 266.894 329.479 266.489 329.479C266.065 329.479 265.653 329.577 265.253 329.772C264.853 329.966 264.436 330.244 264.002 330.603L262.743 329.112C263.058 328.842 263.39 328.588 263.74 328.348C264.094 328.108 264.504 327.916 264.968 327.771C265.438 327.621 266 327.546 266.654 327.546C267.373 327.546 267.99 327.676 268.505 327.936C269.024 328.196 269.424 328.55 269.703 329C269.983 329.444 270.123 329.949 270.123 330.513C270.123 331.118 270.003 331.67 269.763 332.169C269.524 332.668 269.174 333.163 268.714 333.652C268.26 334.142 267.71 334.684 267.066 335.278L265.658 336.604V336.709H270.43V338.657ZM272.64 338.657L276.754 329.652H271.352V327.704H279.211V329.157L275.068 338.657H272.64ZM285.984 327.704L281.901 338.657H279.825L283.909 327.704H285.984ZM286.598 334.005C286.598 333.375 286.643 332.753 286.733 332.139C286.828 331.52 286.99 330.938 287.22 330.393C287.45 329.844 287.772 329.359 288.187 328.94C288.601 328.515 289.128 328.183 289.767 327.943C290.407 327.699 291.181 327.576 292.09 327.576C292.305 327.576 292.554 327.586 292.839 327.606C293.129 327.621 293.369 327.649 293.558 327.689V329.539C293.359 329.494 293.144 329.459 292.914 329.434C292.689 329.404 292.465 329.389 292.24 329.389C291.331 329.389 290.627 329.534 290.127 329.824C289.633 330.114 289.283 330.516 289.078 331.03C288.878 331.54 288.761 332.134 288.726 332.813H288.823C288.963 332.569 289.138 332.351 289.348 332.162C289.563 331.972 289.822 331.822 290.127 331.712C290.432 331.597 290.789 331.54 291.198 331.54C291.838 331.54 292.392 331.677 292.862 331.952C293.331 332.221 293.693 332.614 293.948 333.128C294.203 333.642 294.33 334.269 294.33 335.009C294.33 335.798 294.178 336.477 293.873 337.046C293.568 337.616 293.136 338.053 292.577 338.358C292.023 338.657 291.363 338.807 290.599 338.807C290.04 338.807 289.518 338.712 289.033 338.522C288.549 338.328 288.124 338.033 287.76 337.638C287.395 337.244 287.11 336.747 286.905 336.147C286.701 335.543 286.598 334.829 286.598 334.005ZM290.554 336.957C291.009 336.957 291.378 336.802 291.663 336.492C291.948 336.182 292.09 335.698 292.09 335.039C292.09 334.504 291.965 334.085 291.715 333.78C291.471 333.47 291.099 333.315 290.599 333.315C290.259 333.315 289.96 333.393 289.7 333.548C289.445 333.697 289.248 333.89 289.108 334.124C288.968 334.354 288.898 334.591 288.898 334.836C288.898 335.091 288.933 335.343 289.003 335.593C289.073 335.843 289.178 336.07 289.318 336.275C289.458 336.48 289.63 336.644 289.835 336.769C290.045 336.894 290.284 336.957 290.554 336.957Z" fill="black"/>
<path d="M361.149 332.002C361.819 332.002 362.413 332.13 362.933 332.384C363.457 332.639 363.869 333.014 364.169 333.508C364.468 334.003 364.618 334.612 364.618 335.336C364.618 336.126 364.453 336.807 364.124 337.382C363.799 337.951 363.312 338.388 362.663 338.693C362.018 338.998 361.214 339.15 360.25 339.15C359.676 339.15 359.134 339.1 358.625 339C358.12 338.905 357.678 338.758 357.298 338.558V336.558C357.678 336.757 358.133 336.927 358.662 337.067C359.196 337.202 359.698 337.269 360.168 337.269C360.627 337.269 361.015 337.209 361.329 337.089C361.644 336.965 361.881 336.775 362.041 336.52C362.206 336.26 362.288 335.931 362.288 335.531C362.288 334.997 362.108 334.587 361.749 334.302C361.389 334.018 360.837 333.875 360.093 333.875C359.808 333.875 359.511 333.903 359.201 333.958C358.897 334.013 358.642 334.068 358.437 334.123L357.516 333.628L357.928 328.046H363.869V330.009H359.958L359.756 332.16C359.926 332.125 360.11 332.09 360.31 332.055C360.51 332.02 360.79 332.002 361.149 332.002ZM371.593 328.046L367.51 339H365.435L369.518 328.046H371.593ZM373.369 339L377.482 329.994H372.08V328.046H379.94V329.5L375.797 339H373.369Z" fill="black"/>
<path d="M448.497 338.657H446.182V332.319C446.182 332.144 446.185 331.929 446.19 331.675C446.195 331.415 446.202 331.15 446.212 330.88C446.222 330.606 446.232 330.358 446.242 330.139C446.187 330.204 446.075 330.316 445.905 330.476C445.74 330.631 445.585 330.77 445.44 330.895L444.182 331.907L443.065 330.513L446.594 327.704H448.497V338.657ZM458.784 330.154C458.784 330.658 458.679 331.095 458.469 331.465C458.259 331.834 457.975 332.137 457.615 332.371C457.26 332.606 456.861 332.778 456.416 332.888V332.933C457.295 333.043 457.962 333.313 458.417 333.742C458.876 334.172 459.106 334.746 459.106 335.466C459.106 336.105 458.949 336.677 458.634 337.181C458.324 337.686 457.845 338.083 457.196 338.373C456.546 338.662 455.71 338.807 454.686 338.807C454.081 338.807 453.517 338.757 452.992 338.657C452.473 338.562 451.984 338.415 451.524 338.215V336.245C451.994 336.485 452.485 336.667 453 336.792C453.514 336.912 453.994 336.971 454.438 336.971C455.268 336.971 455.847 336.829 456.177 336.544C456.511 336.255 456.679 335.85 456.679 335.331C456.679 335.026 456.601 334.769 456.446 334.559C456.292 334.349 456.022 334.189 455.637 334.08C455.258 333.97 454.726 333.915 454.041 333.915H453.21V332.139H454.056C454.731 332.139 455.243 332.077 455.592 331.952C455.947 331.822 456.187 331.647 456.311 331.427C456.441 331.203 456.506 330.948 456.506 330.663C456.506 330.273 456.386 329.969 456.147 329.749C455.907 329.529 455.507 329.419 454.948 329.419C454.598 329.419 454.279 329.464 453.989 329.554C453.704 329.639 453.447 329.744 453.217 329.869C452.987 329.989 452.785 330.106 452.61 330.221L451.539 328.625C451.969 328.316 452.471 328.058 453.045 327.854C453.624 327.649 454.314 327.546 455.113 327.546C456.242 327.546 457.136 327.774 457.795 328.228C458.454 328.683 458.784 329.324 458.784 330.154ZM465.984 327.704L461.901 338.657H459.825L463.909 327.704H465.984ZM467.76 338.657L471.873 329.652H466.471V327.704H474.33V329.157L470.187 338.657H467.76Z" fill="black"/>
<path d="M519.454 339H517.139V334.272H512.801V339H510.478V328.046H512.801V332.339H517.139V328.046H519.454V339ZM522.226 339V328.046H524.549V339H522.226ZM533.614 339H527.306V328.046H533.614V329.949H529.628V332.354H533.337V334.257H529.628V337.082H533.614V339ZM530.565 342.222C530.22 342.222 529.926 342.139 529.681 341.974C529.441 341.815 529.321 341.525 529.321 341.105C529.321 340.676 529.441 340.381 529.681 340.221C529.926 340.061 530.22 339.981 530.565 339.981C530.905 339.981 531.197 340.061 531.442 340.221C531.686 340.381 531.809 340.676 531.809 341.105C531.809 341.525 531.686 341.815 531.442 341.974C531.197 342.139 530.905 342.222 530.565 342.222ZM531.891 324.667C532.036 324.897 532.223 325.152 532.453 325.432C532.688 325.711 532.927 325.984 533.172 326.248C533.417 326.513 533.629 326.738 533.809 326.923V327.125H532.296C532.026 326.965 531.731 326.775 531.412 326.556C531.097 326.331 530.807 326.081 530.542 325.806C530.273 326.081 529.986 326.328 529.681 326.548C529.376 326.763 529.091 326.955 528.827 327.125H527.306V326.923C527.496 326.733 527.713 326.508 527.958 326.248C528.202 325.984 528.44 325.711 528.669 325.432C528.899 325.152 529.084 324.897 529.224 324.667H531.891ZM545.624 339H542.672L537.907 330.714H537.84C537.86 331.058 537.877 331.405 537.892 331.755C537.907 332.105 537.922 332.454 537.937 332.804C537.952 333.149 537.967 333.496 537.982 333.845V339H535.907V328.046H538.836L543.594 336.25H543.646C543.636 335.911 543.624 335.574 543.609 335.239C543.594 334.904 543.579 334.57 543.564 334.235C543.554 333.9 543.544 333.566 543.534 333.231V328.046H545.624V339ZM556.6 339H554.278V329.979H551.303V328.046H559.575V329.979H556.6V339ZM567.966 339L567.172 336.393H563.178L562.384 339H559.882L563.748 328.002H566.587L570.468 339H567.966ZM566.617 334.445L565.823 331.897C565.773 331.728 565.706 331.51 565.621 331.246C565.541 330.976 565.458 330.704 565.374 330.429C565.294 330.149 565.229 329.907 565.179 329.702C565.129 329.907 565.059 330.162 564.969 330.466C564.884 330.766 564.802 331.051 564.722 331.321C564.642 331.59 564.584 331.783 564.549 331.897L563.763 334.445H566.617ZM565.164 342.222C564.819 342.222 564.524 342.139 564.28 341.974C564.04 341.815 563.92 341.525 563.92 341.105C563.92 340.676 564.04 340.381 564.28 340.221C564.524 340.061 564.819 339.981 565.164 339.981C565.503 339.981 565.796 340.061 566.04 340.221C566.285 340.381 566.407 340.676 566.407 341.105C566.407 341.525 566.285 341.815 566.04 341.974C565.796 342.139 565.503 342.222 565.164 342.222ZM571.854 339V328.046H574.177V339H571.854Z" fill="#FF0000"/>
</svg>
