<svg width="579" height="346" viewBox="0 0 579 346" fill="none" xmlns="http://www.w3.org/2000/svg">
<path d="M1.99756 21.114H553.404" stroke="#666666" stroke-opacity="0.3" stroke-width="0.650244" stroke-dasharray="2.6"/>
<path d="M88.6211 21.7371L88.6211 313.895" stroke="#666666" stroke-opacity="0.3" stroke-width="0.650244" stroke-dasharray="2.6"/>
<path d="M180.046 21.7371L180.046 313.895" stroke="#666666" stroke-opacity="0.3" stroke-width="0.650244" stroke-dasharray="2.6"/>
<path d="M272.749 21.7371L272.749 313.895" stroke="#666666" stroke-opacity="0.3" stroke-width="0.650244" stroke-dasharray="2.6"/>
<path d="M364.812 21.7371L364.812 313.895" stroke="#666666" stroke-opacity="0.3" stroke-width="0.650244" stroke-dasharray="2.6"/>
<path d="M458.794 21.7371L458.794 313.895" stroke="#666666" stroke-opacity="0.3" stroke-width="0.650244" stroke-dasharray="2.6"/>
<path d="M550.857 21.7371L550.857 313.895" stroke="#666666" stroke-opacity="0.3" stroke-width="0.650244" stroke-dasharray="2.6"/>
<path d="M1.99756 53.301H553.404" stroke="#666666" stroke-opacity="0.3" stroke-width="0.650244" stroke-dasharray="2.6"/>
<path d="M1.99756 85.8132H553.404" stroke="#666666" stroke-opacity="0.3" stroke-width="0.650244" stroke-dasharray="2.6"/>
<path d="M1.99756 118.326H553.404" stroke="#666666" stroke-opacity="0.3" stroke-width="0.650244" stroke-dasharray="2.6"/>
<path d="M1.99756 150.838H553.404" stroke="#666666" stroke-opacity="0.3" stroke-width="0.650244" stroke-dasharray="2.6"/>
<path d="M1.99756 183.35H553.404" stroke="#666666" stroke-opacity="0.3" stroke-width="0.650244" stroke-dasharray="2.6"/>
<path d="M1.99756 215.862H553.404" stroke="#666666" stroke-opacity="0.3" stroke-width="0.650244" stroke-dasharray="2.6"/>
<path d="M1.99756 248.375H553.404" stroke="#666666" stroke-opacity="0.3" stroke-width="0.650244" stroke-dasharray="2.6"/>
<path d="M1.99756 280.886H553.404" stroke="#666666" stroke-opacity="0.3" stroke-width="0.650244" stroke-dasharray="2.6"/>
<path d="M1.67236 313.4L554.054 313.4" stroke="black" stroke-opacity="0.4" stroke-width="2.60097"/>
<path d="M8.5 297.468L20.8546 281.862H31.5836L53.3668 215.862L65.3963 232.768H108.963L121.642 184.65L144.076 215.862L167.159 152.138H186.992L200.647 136.532H253.967L266.972 119.626H288.105L313.139 86.4636L323.868 119.626H345.651L371.336 152.138H402.548L413.602 119.626H424.331L436.035 103.37H479.927L492.281 119.626L504.961 86.4636H524.793L549.178 55.9021" stroke="#6CD4CB" stroke-width="2.9261"/>
<circle cx="7.52463" cy="296.818" r="4.22658" fill="white" stroke="#404641" stroke-width="2.60097"/>
<circle cx="88.8049" cy="231.793" r="4.22658" fill="white" stroke="#404641" stroke-width="2.60097"/>
<circle cx="168.134" cy="150.513" r="4.22658" fill="white" stroke="#404641" stroke-width="2.60097"/>
<circle cx="311.839" cy="85.4885" r="4.22658" fill="white" stroke="#404641" stroke-width="2.60097"/>
<circle cx="369.06" cy="150.513" r="4.22658" fill="white" stroke="#404641" stroke-width="2.60097"/>
<circle cx="446.439" cy="101.745" r="4.22658" fill="white" stroke="#404641" stroke-width="2.60097"/>
<circle cx="521.867" cy="85.4885" r="4.22658" fill="white" stroke="#404641" stroke-width="2.60097"/>
<circle cx="548.527" cy="55.5769" r="4.22658" fill="white" stroke="#FF0000" stroke-width="2.60097"/>
<path d="M359 263.64L382.916 263.64" stroke="#6CD4CB" stroke-width="2.33964"/>
<path d="M390.969 268.976C389.734 268.976 388.498 268.489 387.6 267.628L388.66 266.356C389.322 266.967 390.195 267.379 391.006 267.379C391.967 267.379 392.479 266.967 392.479 266.318C392.479 265.632 391.917 265.42 391.094 265.07L389.858 264.546C388.922 264.159 387.987 263.411 387.987 262.063C387.987 260.553 389.309 259.393 391.181 259.393C392.254 259.393 393.327 259.817 394.076 260.578L393.14 261.739C392.554 261.252 391.942 260.978 391.181 260.978C390.37 260.978 389.858 261.339 389.858 261.951C389.858 262.612 390.507 262.849 391.293 263.161L392.504 263.673C393.627 264.134 394.363 264.846 394.363 266.181C394.363 267.691 393.103 268.976 390.969 268.976ZM394.958 268.801V259.555H396.805V263.199H400.299V259.555H402.133V268.801H400.299V264.808H396.805V268.801H394.958ZM407.031 268.976C404.585 268.976 402.9 267.142 402.9 264.147C402.9 261.14 404.585 259.393 407.031 259.393C409.476 259.393 411.161 261.152 411.161 264.147C411.161 267.142 409.476 268.976 407.031 268.976ZM407.031 267.379C408.403 267.379 409.277 266.118 409.277 264.147C409.277 262.163 408.403 260.978 407.031 260.978C405.658 260.978 404.784 262.163 404.784 264.147C404.784 266.118 405.658 267.379 407.031 267.379ZM412.761 268.801L410.989 259.555H412.861L413.597 264.072C413.735 265.045 413.884 266.019 414.022 267.017H414.072C414.259 266.019 414.458 265.033 414.658 264.072L415.731 259.555H417.316L418.376 264.072C418.576 265.02 418.763 266.019 418.963 267.017H419.025C419.163 266.019 419.3 265.033 419.437 264.072L420.173 259.555H421.92L420.211 268.801H417.915L416.879 264.234C416.729 263.511 416.592 262.799 416.48 262.088H416.43C416.305 262.799 416.18 263.511 416.031 264.234L415.02 268.801H412.761ZM422.266 268.801V259.555H424.15L426.833 264.484L427.756 266.48H427.819C427.731 265.52 427.582 264.297 427.582 263.249V259.555H429.329V268.801H427.457L424.787 263.86L423.851 261.876H423.788C423.876 262.874 424.013 264.035 424.013 265.095V268.801H422.266ZM430.573 268.801V259.555H432.419V268.801H430.573ZM437.32 267.466C438.693 267.466 439.566 266.218 439.566 264.147C439.566 262.163 438.693 260.978 437.32 260.978C435.947 260.978 435.074 262.163 435.074 264.147C435.074 266.218 435.947 267.466 437.32 267.466ZM440.302 271.309C438.418 271.309 437.108 270.299 436.471 268.901C434.5 268.527 433.19 266.78 433.19 264.147C433.19 261.14 434.874 259.393 437.32 259.393C439.766 259.393 441.45 261.152 441.45 264.147C441.45 266.668 440.252 268.365 438.418 268.839C438.842 269.537 439.678 269.824 440.514 269.824C440.914 269.824 441.263 269.762 441.525 269.675L441.862 271.035C441.538 271.185 440.976 271.309 440.302 271.309ZM446.01 263.985L445.736 264.995H447.932L447.657 263.985C447.37 263.024 447.121 261.963 446.859 260.965H446.796C446.559 261.976 446.285 263.024 446.01 263.985ZM442.816 268.801L445.773 259.555H447.944L450.914 268.801H448.98L448.331 266.43H445.336L444.687 268.801H442.816ZM450.805 271.484V261.814H452.303L452.44 262.537H452.477C453.064 262.038 453.788 261.639 454.536 261.639C456.258 261.639 457.281 263.049 457.281 265.195C457.281 267.591 455.846 268.976 454.312 268.976C453.7 268.976 453.114 268.701 452.577 268.215L452.64 269.363V271.484H450.805ZM453.9 267.466C454.748 267.466 455.397 266.742 455.397 265.22C455.397 263.885 454.973 263.149 454.012 263.149C453.538 263.149 453.114 263.386 452.64 263.872V266.942C453.076 267.329 453.526 267.466 453.9 267.466ZM457.796 271.484V261.814H459.293L459.43 262.537H459.468C460.054 262.038 460.778 261.639 461.527 261.639C463.249 261.639 464.272 263.049 464.272 265.195C464.272 267.591 462.837 268.976 461.302 268.976C460.691 268.976 460.104 268.701 459.568 268.215L459.63 269.363V271.484H457.796ZM460.89 267.466C461.739 267.466 462.388 266.742 462.388 265.22C462.388 263.885 461.963 263.149 461.003 263.149C460.528 263.149 460.104 263.386 459.63 263.872V266.942C460.067 267.329 460.516 267.466 460.89 267.466ZM466.723 268.801V259.555H469.943C471.877 259.555 473.411 260.241 473.411 262.363C473.411 263.748 472.713 264.609 471.652 265.02L473.811 268.801H471.752L469.855 265.307H468.57V268.801H466.723ZM468.57 263.847H469.768C470.953 263.847 471.615 263.348 471.615 262.363C471.615 261.364 470.953 261.027 469.768 261.027H468.57V263.847ZM475.664 268.976C474.416 268.976 473.592 268.09 473.592 266.905C473.592 265.407 474.803 264.621 477.623 264.322C477.585 263.635 477.286 263.111 476.425 263.111C475.776 263.111 475.152 263.398 474.503 263.773L473.842 262.562C474.665 262.051 475.664 261.639 476.762 261.639C478.534 261.639 479.445 262.699 479.445 264.721V268.801H477.947L477.822 268.053H477.773C477.161 268.577 476.462 268.976 475.664 268.976ZM476.263 267.541C476.787 267.541 477.174 267.291 477.623 266.855V265.445C475.913 265.657 475.339 266.131 475.339 266.755C475.339 267.304 475.726 267.541 476.263 267.541ZM480.274 268.801V261.814H481.772L481.909 262.737H481.946C482.558 262.138 483.269 261.639 484.217 261.639C485.727 261.639 486.376 262.687 486.376 264.446V268.801H484.542V264.671C484.542 263.585 484.242 263.211 483.556 263.211C482.982 263.211 482.62 263.486 482.108 263.997V268.801H480.274ZM487.228 268.801V258.844H489.037V264.821H489.087L491.471 261.814H493.48L491.084 264.696L493.704 268.801H491.72L490.023 265.906L489.037 267.029V268.801H487.228ZM493.743 268.801V261.814H495.578V268.801H493.743ZM494.667 260.691C494.03 260.691 493.594 260.291 493.594 259.68C493.594 259.081 494.03 258.682 494.667 258.682C495.291 258.682 495.727 259.081 495.727 259.68C495.727 260.291 495.291 260.691 494.667 260.691ZM496.493 268.801V261.814H497.991L498.128 262.737H498.165C498.777 262.138 499.488 261.639 500.436 261.639C501.946 261.639 502.595 262.687 502.595 264.446V268.801H500.761V264.671C500.761 263.585 500.461 263.211 499.775 263.211C499.201 263.211 498.839 263.486 498.328 263.997V268.801H496.493ZM505.905 271.833C504.258 271.833 502.986 271.272 502.986 270.037C502.986 269.45 503.347 268.951 503.984 268.589V268.527C503.622 268.29 503.347 267.928 503.347 267.354C503.347 266.83 503.709 266.343 504.134 266.044V265.994C503.647 265.644 503.198 264.983 503.198 264.159C503.198 262.525 504.533 261.639 506.018 261.639C506.405 261.639 506.779 261.714 507.066 261.814H509.586V263.161H508.401C508.576 263.398 508.713 263.785 508.713 264.222C508.713 265.794 507.515 266.593 506.018 266.593C505.743 266.593 505.419 266.53 505.119 266.43C504.932 266.593 504.82 266.742 504.82 267.029C504.82 267.404 505.094 267.603 505.918 267.603H507.103C508.788 267.603 509.711 268.127 509.711 269.35C509.711 270.76 508.239 271.833 505.905 271.833ZM506.018 265.457C506.629 265.457 507.116 264.995 507.116 264.159C507.116 263.348 506.642 262.887 506.018 262.887C505.394 262.887 504.92 263.348 504.92 264.159C504.92 264.995 505.406 265.457 506.018 265.457ZM506.18 270.673C507.228 270.673 507.952 270.211 507.952 269.662C507.952 269.163 507.54 269.038 506.791 269.038H505.943C505.519 269.038 505.219 269.001 504.97 268.939C504.658 269.188 504.52 269.463 504.52 269.75C504.52 270.336 505.169 270.673 506.18 270.673Z" fill="#231815"/>
<circle cx="370.698" cy="263.9" r="3.37948" fill="white" stroke="#404641" stroke-width="2.07968"/>
<path d="M1.99756 345.558L1.99756 -7.9006e-05" stroke="black" stroke-opacity="0.4" stroke-width="2.60097"/>
<path d="M39.316 287.675V286.818C41.9373 284.248 43.5228 282.611 43.5228 281.179C43.5228 280.182 42.9858 279.517 41.9245 279.517C41.1829 279.517 40.5691 279.99 40.0704 280.565L39.2393 279.747C40.0449 278.877 40.876 278.34 42.1035 278.34C43.8297 278.34 44.9421 279.44 44.9421 281.102C44.9421 282.777 43.4205 284.465 41.4642 286.511C41.9373 286.46 42.5383 286.421 42.9986 286.421H45.3897V287.675H39.316ZM45.3297 287.675V286.818C47.951 284.248 49.5365 282.611 49.5365 281.179C49.5365 280.182 48.9995 279.517 47.9382 279.517C47.1966 279.517 46.5828 279.99 46.0841 280.565L45.253 279.747C46.0586 278.877 46.8897 278.34 48.1172 278.34C49.8434 278.34 50.9558 279.44 50.9558 281.102C50.9558 282.777 49.4342 284.465 47.4779 286.511C47.951 286.46 48.552 286.421 49.0123 286.421H51.4034V287.675H45.3297ZM51.8933 287.675V280.642H53.0952L53.2103 281.614H53.2486C53.9008 280.987 54.6168 280.463 55.5758 280.463C57.0718 280.463 57.7368 281.46 57.7368 283.25V287.675H56.2663V283.429C56.2663 282.215 55.9083 281.729 55.0771 281.729C54.425 281.729 53.9775 282.061 53.3637 282.688V287.675H51.8933ZM61.0232 287.841C59.2587 287.841 58.1207 286.498 58.1207 284.158C58.1207 281.882 59.5655 280.463 61.1383 280.463C61.9438 280.463 62.4553 280.77 63.0307 281.256L62.9668 280.092V277.484H64.4372V287.675H63.2353L63.1202 286.882H63.0691C62.5448 287.419 61.816 287.841 61.0232 287.841ZM61.3685 286.626C61.9566 286.626 62.4553 286.358 62.9668 285.769V282.33C62.4425 281.857 61.9438 281.69 61.4196 281.69C60.435 281.69 59.6423 282.624 59.6423 284.145C59.6423 285.744 60.2688 286.626 61.3685 286.626Z" fill="#231815"/>
<path d="M114.655 241.004V239.789H116.713V233.498H115.026V232.564C115.908 232.411 116.534 232.181 117.071 231.848H118.184V239.789H120.025V241.004H114.655ZM123.226 241.17C121.461 241.17 120.157 240.121 120.157 238.664C120.157 237.5 120.975 236.72 121.845 236.26V236.209C121.142 235.71 120.579 235.032 120.579 234.073C120.579 232.616 121.73 231.669 123.264 231.669C124.901 231.669 125.924 232.68 125.924 234.124C125.924 235.071 125.259 235.851 124.684 236.273V236.337C125.515 236.822 126.269 237.475 126.269 238.702C126.269 240.096 125.042 241.17 123.226 241.17ZM123.84 235.902C124.389 235.39 124.684 234.828 124.684 234.214C124.684 233.37 124.159 232.731 123.239 232.731C122.471 232.731 121.896 233.242 121.896 234.073C121.896 235.058 122.791 235.493 123.84 235.902ZM123.251 240.109C124.223 240.109 124.875 239.546 124.875 238.664C124.875 237.577 123.84 237.206 122.561 236.682C121.922 237.129 121.461 237.756 121.461 238.523C121.461 239.456 122.241 240.109 123.251 240.109ZM129.061 241.17C127.475 241.17 126.925 240.185 126.925 238.702V235.147H125.902V234.048L127.002 233.971L127.168 232.027H128.396V233.971H130.224V235.147H128.396V238.715C128.396 239.559 128.69 239.994 129.419 239.994C129.662 239.994 129.968 239.917 130.173 239.827L130.442 240.914C130.045 241.042 129.572 241.17 129.061 241.17ZM130.486 241.004V230.813H131.957V233.511L131.893 234.904C132.506 234.316 133.21 233.792 134.169 233.792C135.665 233.792 136.33 234.789 136.33 236.579V241.004H134.859V236.759C134.859 235.544 134.501 235.058 133.67 235.058C133.018 235.058 132.57 235.39 131.957 236.017V241.004H130.486Z" fill="#231815"/>
<path d="M199.686 162.366V161.151H201.745V154.86H200.057V153.927C200.939 153.773 201.566 153.543 202.103 153.211H203.215V161.151H205.056V162.366H199.686ZM208.027 162.532C206.544 162.532 205.585 161.944 204.958 161.241L205.674 160.295C206.224 160.857 206.927 161.33 207.899 161.33C208.96 161.33 209.689 160.755 209.689 159.834C209.689 158.824 209.024 158.172 206.902 158.172V157.085C208.756 157.085 209.37 156.407 209.37 155.525C209.37 154.707 208.82 154.208 207.925 154.208C207.196 154.208 206.582 154.566 206.045 155.103L205.278 154.183C206.019 153.505 206.889 153.032 207.976 153.032C209.664 153.032 210.853 153.901 210.853 155.41C210.853 156.471 210.226 157.175 209.229 157.545V157.609C210.316 157.878 211.172 158.671 211.172 159.911C211.172 161.56 209.753 162.532 208.027 162.532ZM214.092 162.532C212.506 162.532 211.956 161.548 211.956 160.064V156.51H210.934V155.41L212.033 155.333L212.199 153.39H213.427V155.333H215.255V156.51H213.427V160.077C213.427 160.921 213.721 161.356 214.45 161.356C214.693 161.356 215 161.279 215.204 161.19L215.473 162.276C215.076 162.404 214.603 162.532 214.092 162.532ZM215.517 162.366V152.175H216.988V154.873L216.924 156.267C217.538 155.679 218.241 155.154 219.2 155.154C220.696 155.154 221.361 156.152 221.361 157.942V162.366H219.89V158.121C219.89 156.906 219.532 156.42 218.701 156.42C218.049 156.42 217.602 156.753 216.988 157.379V162.366H215.517Z" fill="#231815"/>
<path d="M326.453 88.8811C326.453 90.0064 326.99 90.6457 327.987 90.6457C328.55 90.6457 329.227 90.3132 329.752 89.5077C329.585 87.8198 328.895 87.0399 327.898 87.0399C327.092 87.0399 326.453 87.7176 326.453 88.8811ZM327.591 95.4023C326.529 95.4023 325.762 94.9676 325.238 94.405L326.043 93.4971C326.389 93.9191 326.964 94.2004 327.514 94.2004C328.716 94.2004 329.726 93.2797 329.79 90.5945C329.24 91.2978 328.422 91.707 327.731 91.707C326.146 91.707 325.084 90.7736 325.084 88.8811C325.084 87.0782 326.363 85.9019 327.885 85.9019C329.688 85.9019 331.145 87.3212 331.145 90.3516C331.145 93.9574 329.445 95.4023 327.591 95.4023ZM334.026 95.4023C332.441 95.4023 331.891 94.4177 331.891 92.9345V89.3798H330.868V88.2802L331.968 88.2034L332.134 86.2599H333.361V88.2034H335.19V89.3798H333.361V92.9473C333.361 93.7912 333.656 94.2259 334.384 94.2259C334.627 94.2259 334.934 94.1492 335.139 94.0597L335.407 95.1466C335.011 95.2744 334.538 95.4023 334.026 95.4023ZM335.452 95.2361V85.0451H336.922V87.7431L336.858 89.1369C337.472 88.5487 338.175 88.0244 339.134 88.0244C340.63 88.0244 341.295 89.0218 341.295 90.8119V95.2361H339.825V90.9909C339.825 89.7762 339.467 89.2903 338.636 89.2903C337.984 89.2903 337.536 89.6228 336.922 90.2493V95.2361H335.452Z" fill="#231815"/>
<path d="M375.502 170.677V169.462H377.561V163.171H375.873V162.238C376.755 162.084 377.382 161.854 377.919 161.522H379.031V169.462H380.872V170.677H375.502ZM383.843 170.843C382.36 170.843 381.401 170.255 380.774 169.552L381.49 168.606C382.04 169.168 382.743 169.641 383.715 169.641C384.776 169.641 385.505 169.066 385.505 168.145C385.505 167.135 384.84 166.483 382.718 166.483V165.396C384.572 165.396 385.185 164.718 385.185 163.836C385.185 163.018 384.636 162.519 383.741 162.519C383.012 162.519 382.398 162.877 381.861 163.414L381.094 162.494C381.835 161.816 382.705 161.343 383.792 161.343C385.48 161.343 386.669 162.212 386.669 163.721C386.669 164.782 386.042 165.486 385.045 165.856V165.92C386.132 166.189 386.988 166.982 386.988 168.222C386.988 169.871 385.569 170.843 383.843 170.843ZM389.908 170.843C388.322 170.843 387.772 169.859 387.772 168.375V164.821H386.749V163.721L387.849 163.644L388.015 161.701H389.243V163.644H391.071V164.821H389.243V168.388C389.243 169.232 389.537 169.667 390.266 169.667C390.509 169.667 390.816 169.59 391.02 169.501L391.289 170.587C390.892 170.715 390.419 170.843 389.908 170.843ZM391.333 170.677V160.486H392.804V163.184L392.74 164.578C393.354 163.99 394.057 163.465 395.016 163.465C396.512 163.465 397.177 164.463 397.177 166.253V170.677H395.706V166.432C395.706 165.217 395.348 164.731 394.517 164.731C393.865 164.731 393.417 165.064 392.804 165.69V170.677H391.333Z" fill="#231815"/>
<path d="M442.1 124.645V123.431H444.158V117.14H442.47V116.206C443.353 116.053 443.979 115.822 444.516 115.49H445.629V123.431H447.47V124.645H442.1ZM450.441 124.811C448.957 124.811 447.998 124.223 447.372 123.52L448.088 122.574C448.638 123.136 449.341 123.61 450.313 123.61C451.374 123.61 452.103 123.034 452.103 122.114C452.103 121.103 451.438 120.451 449.315 120.451V119.364C451.169 119.364 451.783 118.687 451.783 117.804C451.783 116.986 451.233 116.487 450.338 116.487C449.609 116.487 448.996 116.845 448.459 117.382L447.691 116.462C448.433 115.784 449.303 115.311 450.389 115.311C452.077 115.311 453.266 116.181 453.266 117.689C453.266 118.751 452.64 119.454 451.642 119.825V119.889C452.729 120.157 453.586 120.95 453.586 122.19C453.586 123.84 452.167 124.811 450.441 124.811ZM456.505 124.811C454.92 124.811 454.37 123.827 454.37 122.344V118.789H453.347V117.689L454.447 117.613L454.613 115.669H455.84V117.613H457.669V118.789H455.84V122.356C455.84 123.2 456.135 123.635 456.863 123.635C457.106 123.635 457.413 123.558 457.618 123.469L457.886 124.556C457.49 124.684 457.017 124.811 456.505 124.811ZM457.931 124.645V114.454H459.401V117.152L459.337 118.546C459.951 117.958 460.654 117.434 461.613 117.434C463.109 117.434 463.774 118.431 463.774 120.221V124.645H462.304V120.4C462.304 119.185 461.946 118.699 461.115 118.699C460.463 118.699 460.015 119.032 459.401 119.658V124.645H457.931Z" fill="#231815"/>
<path d="M508.1 107V105.785H510.158V99.4943H508.47V98.5608C509.353 98.4074 509.979 98.1772 510.516 97.8448H511.629V105.785H513.47V107H508.1ZM516.658 107.166C514.791 107.166 513.615 105.466 513.615 102.384C513.615 99.3025 514.791 97.6658 516.658 97.6658C518.538 97.6658 519.701 99.3152 519.701 102.384C519.701 105.466 518.538 107.166 516.658 107.166ZM516.658 106.003C517.617 106.003 518.295 105.018 518.295 102.384C518.295 99.75 517.617 98.8293 516.658 98.8293C515.699 98.8293 515.021 99.75 515.021 102.384C515.021 105.018 515.699 106.003 516.658 106.003ZM522.505 107.166C520.92 107.166 520.37 106.182 520.37 104.698V101.144H519.347V100.044L520.447 99.9674L520.613 98.0238H521.84V99.9674H523.669V101.144H521.84V104.711C521.84 105.555 522.135 105.99 522.863 105.99C523.106 105.99 523.413 105.913 523.618 105.824L523.886 106.91C523.49 107.038 523.017 107.166 522.505 107.166ZM523.931 107V96.8091H525.401V99.507L525.337 100.901C525.951 100.313 526.654 99.7883 527.613 99.7883C529.109 99.7883 529.774 100.786 529.774 102.576V107H528.304V102.755C528.304 101.54 527.946 101.054 527.115 101.054C526.463 101.054 526.015 101.387 525.401 102.013V107H523.931Z" fill="#231815"/>
<path d="M515.378 45C515.545 41.8161 516.133 39.8086 517.897 37.3536H513.639V35.7808H519.93V36.9316C517.782 39.5529 517.437 41.407 517.284 45H515.378ZM522.882 45.179C521.182 45.179 520.53 44.0922 520.53 42.4938V39.3227H519.519V37.929L520.632 37.8395L520.849 35.9087H522.409V37.8395H524.174V39.3227H522.409V42.4938C522.409 43.3122 522.742 43.6958 523.381 43.6958C523.611 43.6958 523.893 43.619 524.084 43.5423L524.391 44.9105C524.008 45.0384 523.509 45.179 522.882 45.179ZM524.352 45V34.7963H526.231V37.3664L526.142 38.709C526.717 38.1719 527.421 37.6605 528.392 37.6605C529.94 37.6605 530.604 38.7346 530.604 40.5375V45H528.725V40.7676C528.725 39.6552 528.418 39.2716 527.715 39.2716C527.127 39.2716 526.756 39.5529 526.231 40.0772V45H524.352Z" fill="#FF0000"/>
<path d="M29.8532 330.154C29.8532 330.658 29.7483 331.095 29.5385 331.465C29.3288 331.834 29.0441 332.137 28.6844 332.371C28.3298 332.606 27.9302 332.778 27.4857 332.888V332.933C28.3648 333.043 29.0316 333.313 29.4861 333.742C29.9456 334.172 30.1754 334.746 30.1754 335.466C30.1754 336.105 30.018 336.677 29.7034 337.181C29.3937 337.686 28.9142 338.083 28.2649 338.373C27.6156 338.662 26.7789 338.807 25.755 338.807C25.1506 338.807 24.5862 338.757 24.0618 338.657C23.5423 338.562 23.0528 338.415 22.5933 338.215V336.245C23.0628 336.485 23.5548 336.667 24.0693 336.792C24.5837 336.912 25.0632 336.971 25.5078 336.971C26.3369 336.971 26.9163 336.829 27.2459 336.544C27.5806 336.255 27.7479 335.85 27.7479 335.331C27.7479 335.026 27.6705 334.769 27.5157 334.559C27.3608 334.349 27.0911 334.189 26.7065 334.08C26.3269 333.97 25.795 333.915 25.1107 333.915H24.2791V332.139H25.1257C25.8 332.139 26.3119 332.077 26.6616 331.952C27.0162 331.822 27.2559 331.647 27.3808 331.427C27.5107 331.203 27.5756 330.948 27.5756 330.663C27.5756 330.273 27.4557 329.969 27.216 329.749C26.9762 329.529 26.5766 329.419 26.0172 329.419C25.6676 329.419 25.3479 329.464 25.0582 329.554C24.7735 329.639 24.5163 329.744 24.2865 329.869C24.0568 329.989 23.8545 330.106 23.6797 330.221L22.6083 328.625C23.0378 328.316 23.5398 328.058 24.1142 327.854C24.6936 327.649 25.3829 327.546 26.1821 327.546C27.3109 327.546 28.2049 327.774 28.8643 328.228C29.5236 328.683 29.8532 329.324 29.8532 330.154ZM37.0532 327.704L32.97 338.657H30.8946L34.9779 327.704H37.0532ZM37.6675 334.005C37.6675 333.375 37.7125 332.753 37.8024 332.139C37.8973 331.52 38.0596 330.938 38.2894 330.393C38.5191 329.844 38.8413 329.359 39.2559 328.94C39.6704 328.515 40.1974 328.183 40.8367 327.943C41.4761 327.699 42.2502 327.576 43.1593 327.576C43.3741 327.576 43.6238 327.586 43.9085 327.606C44.1982 327.621 44.438 327.649 44.6278 327.689V329.539C44.428 329.494 44.2132 329.459 43.9834 329.434C43.7587 329.404 43.5339 329.389 43.3091 329.389C42.4001 329.389 41.6958 329.534 41.1963 329.824C40.7019 330.114 40.3522 330.516 40.1474 331.03C39.9477 331.54 39.8303 332.134 39.7953 332.813H39.8927C40.0326 332.569 40.2074 332.351 40.4172 332.162C40.6319 331.972 40.8917 331.822 41.1963 331.712C41.501 331.597 41.8582 331.54 42.2677 331.54C42.9071 331.54 43.4615 331.677 43.931 331.952C44.4005 332.221 44.7626 332.614 45.0174 333.128C45.2721 333.642 45.3995 334.269 45.3995 335.009C45.3995 335.798 45.2471 336.477 44.9424 337.046C44.6377 337.616 44.2057 338.053 43.6463 338.358C43.0919 338.657 42.4326 338.807 41.6684 338.807C41.1089 338.807 40.587 338.712 40.1025 338.522C39.618 338.328 39.1934 338.033 38.8288 337.638C38.4642 337.244 38.1795 336.747 37.9747 336.147C37.7699 335.543 37.6675 334.829 37.6675 334.005ZM41.6234 336.957C42.0779 336.957 42.4475 336.802 42.7322 336.492C43.0169 336.182 43.1593 335.698 43.1593 335.039C43.1593 334.504 43.0344 334.085 42.7847 333.78C42.5399 333.47 42.1678 333.315 41.6684 333.315C41.3287 333.315 41.029 333.393 40.7693 333.548C40.5146 333.697 40.3173 333.89 40.1774 334.124C40.0376 334.354 39.9676 334.591 39.9676 334.836C39.9676 335.091 40.0026 335.343 40.0725 335.593C40.1425 335.843 40.2473 336.07 40.3872 336.275C40.527 336.48 40.6994 336.644 40.9042 336.769C41.1139 336.894 41.3537 336.957 41.6234 336.957Z" fill="black"/>
<path d="M101.316 338.657H99.0005V332.319C99.0005 332.144 99.0029 331.929 99.0079 331.675C99.0129 331.415 99.0204 331.15 99.0304 330.88C99.0404 330.606 99.0504 330.358 99.0604 330.139C99.0054 330.204 98.8931 330.316 98.7232 330.476C98.5584 330.631 98.4036 330.77 98.2587 330.895L97 331.907L95.8837 330.513L99.4125 327.704H101.316V338.657ZM110.096 338.657H107.781V332.319C107.781 332.144 107.784 331.929 107.789 331.675C107.794 331.415 107.801 331.15 107.811 330.88C107.821 330.606 107.831 330.358 107.841 330.139C107.786 330.204 107.674 330.316 107.504 330.476C107.339 330.631 107.184 330.77 107.04 330.895L105.781 331.907L104.665 330.513L108.193 327.704H110.096V338.657ZM118.802 327.704L114.719 338.657H112.644L116.727 327.704H118.802ZM119.417 334.005C119.417 333.375 119.462 332.753 119.551 332.139C119.646 331.52 119.809 330.938 120.038 330.393C120.268 329.844 120.59 329.359 121.005 328.94C121.419 328.515 121.946 328.183 122.586 327.943C123.225 327.699 123.999 327.576 124.908 327.576C125.123 327.576 125.373 327.586 125.658 327.606C125.947 327.621 126.187 327.649 126.377 327.689V329.539C126.177 329.494 125.962 329.459 125.732 329.434C125.508 329.404 125.283 329.389 125.058 329.389C124.149 329.389 123.445 329.534 122.945 329.824C122.451 330.114 122.101 330.516 121.896 331.03C121.697 331.54 121.579 332.134 121.544 332.813H121.642C121.782 332.569 121.956 332.351 122.166 332.162C122.381 331.972 122.641 331.822 122.945 331.712C123.25 331.597 123.607 331.54 124.017 331.54C124.656 331.54 125.211 331.677 125.68 331.952C126.15 332.221 126.512 332.614 126.766 333.128C127.021 333.642 127.148 334.269 127.148 335.009C127.148 335.798 126.996 336.477 126.691 337.046C126.387 337.616 125.955 338.053 125.395 338.358C124.841 338.657 124.182 338.807 123.417 338.807C122.858 338.807 122.336 338.712 121.852 338.522C121.367 338.328 120.942 338.033 120.578 337.638C120.213 337.244 119.929 336.747 119.724 336.147C119.519 335.543 119.417 334.829 119.417 334.005ZM123.372 336.957C123.827 336.957 124.197 336.802 124.481 336.492C124.766 336.182 124.908 335.698 124.908 335.039C124.908 334.504 124.783 334.085 124.534 333.78C124.289 333.47 123.917 333.315 123.417 333.315C123.078 333.315 122.778 333.393 122.518 333.548C122.264 333.697 122.066 333.89 121.926 334.124C121.787 334.354 121.717 334.591 121.717 334.836C121.717 335.091 121.752 335.343 121.822 335.593C121.891 335.843 121.996 336.07 122.136 336.275C122.276 336.48 122.448 336.644 122.653 336.769C122.863 336.894 123.103 336.957 123.372 336.957Z" fill="black"/>
<path d="M178.17 338.657H175.854V332.319C175.854 332.144 175.857 331.929 175.862 331.675C175.867 331.415 175.874 331.15 175.884 330.88C175.894 330.606 175.904 330.358 175.914 330.139C175.859 330.204 175.747 330.316 175.577 330.476C175.412 330.631 175.258 330.77 175.113 330.895L173.854 331.907L172.738 330.513L176.267 327.704H178.17V338.657ZM188.838 332.379C188.838 333.008 188.791 333.632 188.696 334.252C188.606 334.871 188.446 335.456 188.217 336.005C187.987 336.549 187.665 337.034 187.25 337.458C186.835 337.878 186.309 338.208 185.669 338.447C185.03 338.687 184.256 338.807 183.347 338.807C183.132 338.807 182.88 338.797 182.59 338.777C182.3 338.762 182.06 338.737 181.871 338.702V336.844C182.07 336.894 182.283 336.934 182.507 336.964C182.732 336.989 182.96 337.001 183.189 337.001C184.103 337.001 184.808 336.857 185.302 336.567C185.802 336.277 186.151 335.875 186.351 335.361C186.556 334.846 186.673 334.252 186.703 333.578H186.613C186.468 333.817 186.296 334.035 186.096 334.229C185.901 334.419 185.652 334.572 185.347 334.686C185.042 334.796 184.655 334.851 184.186 334.851C183.561 334.851 183.017 334.716 182.552 334.447C182.093 334.172 181.736 333.777 181.481 333.263C181.231 332.743 181.106 332.117 181.106 331.382C181.106 330.588 181.256 329.909 181.556 329.344C181.861 328.775 182.293 328.338 182.852 328.033C183.412 327.729 184.071 327.576 184.83 327.576C185.389 327.576 185.911 327.674 186.396 327.869C186.88 328.058 187.305 328.351 187.67 328.745C188.039 329.14 188.326 329.639 188.531 330.244C188.736 330.848 188.838 331.56 188.838 332.379ZM184.875 329.434C184.425 329.434 184.058 329.589 183.774 329.899C183.489 330.209 183.347 330.693 183.347 331.352C183.347 331.882 183.469 332.301 183.714 332.611C183.958 332.921 184.331 333.076 184.83 333.076C185.175 333.076 185.474 333.001 185.729 332.851C185.984 332.696 186.181 332.504 186.321 332.274C186.466 332.039 186.538 331.799 186.538 331.555C186.538 331.3 186.503 331.048 186.433 330.798C186.363 330.548 186.259 330.321 186.119 330.116C185.979 329.911 185.804 329.747 185.594 329.622C185.389 329.497 185.15 329.434 184.875 329.434ZM195.656 327.704L191.573 338.657H189.498L193.581 327.704H195.656ZM196.271 334.005C196.271 333.375 196.316 332.753 196.405 332.139C196.5 331.52 196.663 330.938 196.892 330.393C197.122 329.844 197.444 329.359 197.859 328.94C198.273 328.515 198.8 328.183 199.44 327.943C200.079 327.699 200.853 327.576 201.762 327.576C201.977 327.576 202.227 327.586 202.512 327.606C202.801 327.621 203.041 327.649 203.231 327.689V329.539C203.031 329.494 202.816 329.459 202.586 329.434C202.362 329.404 202.137 329.389 201.912 329.389C201.003 329.389 200.299 329.534 199.799 329.824C199.305 330.114 198.955 330.516 198.75 331.03C198.551 331.54 198.433 332.134 198.398 332.813H198.496C198.636 332.569 198.81 332.351 199.02 332.162C199.235 331.972 199.495 331.822 199.799 331.712C200.104 331.597 200.461 331.54 200.871 331.54C201.51 331.54 202.065 331.677 202.534 331.952C203.004 332.221 203.366 332.614 203.62 333.128C203.875 333.642 204.003 334.269 204.003 335.009C204.003 335.798 203.85 336.477 203.545 337.046C203.241 337.616 202.809 338.053 202.249 338.358C201.695 338.657 201.036 338.807 200.271 338.807C199.712 338.807 199.19 338.712 198.706 338.522C198.221 338.328 197.796 338.033 197.432 337.638C197.067 337.244 196.783 336.747 196.578 336.147C196.373 335.543 196.271 334.829 196.271 334.005ZM200.226 336.957C200.681 336.957 201.051 336.802 201.335 336.492C201.62 336.182 201.762 335.698 201.762 335.039C201.762 334.504 201.637 334.085 201.388 333.78C201.143 333.47 200.771 333.315 200.271 333.315C199.932 333.315 199.632 333.393 199.372 333.548C199.118 333.697 198.92 333.89 198.78 334.124C198.641 334.354 198.571 334.591 198.571 334.836C198.571 335.091 198.606 335.343 198.676 335.593C198.746 335.843 198.85 336.07 198.99 336.275C199.13 336.48 199.302 336.644 199.507 336.769C199.717 336.894 199.957 336.957 200.226 336.957Z" fill="black"/>
<path d="M271.103 338.657H263.446V337.046L266.195 334.267C266.75 333.697 267.194 333.223 267.529 332.843C267.868 332.459 268.113 332.109 268.263 331.794C268.418 331.48 268.495 331.143 268.495 330.783C268.495 330.348 268.373 330.024 268.128 329.809C267.888 329.589 267.566 329.479 267.162 329.479C266.737 329.479 266.325 329.577 265.925 329.772C265.526 329.966 265.109 330.244 264.674 330.603L263.416 329.112C263.73 328.842 264.062 328.588 264.412 328.348C264.767 328.108 265.176 327.916 265.641 327.771C266.11 327.621 266.672 327.546 267.326 327.546C268.046 327.546 268.663 327.676 269.177 327.936C269.696 328.196 270.096 328.55 270.376 329C270.655 329.444 270.795 329.949 270.795 330.513C270.795 331.118 270.675 331.67 270.436 332.169C270.196 332.668 269.846 333.163 269.387 333.652C268.932 334.142 268.383 334.684 267.739 335.278L266.33 336.604V336.709H271.103V338.657ZM273.313 338.657L277.426 329.652H272.024V327.704H279.883V329.157L275.74 338.657H273.313ZM286.656 327.704L282.573 338.657H280.498L284.581 327.704H286.656ZM287.271 334.005C287.271 333.375 287.316 332.753 287.405 332.139C287.5 331.52 287.663 330.938 287.892 330.393C288.122 329.844 288.444 329.359 288.859 328.94C289.273 328.515 289.8 328.183 290.44 327.943C291.079 327.699 291.853 327.576 292.762 327.576C292.977 327.576 293.227 327.586 293.512 327.606C293.801 327.621 294.041 327.649 294.231 327.689V329.539C294.031 329.494 293.816 329.459 293.586 329.434C293.362 329.404 293.137 329.389 292.912 329.389C292.003 329.389 291.299 329.534 290.799 329.824C290.305 330.114 289.955 330.516 289.75 331.03C289.551 331.54 289.433 332.134 289.398 332.813H289.496C289.636 332.569 289.81 332.351 290.02 332.162C290.235 331.972 290.495 331.822 290.799 331.712C291.104 331.597 291.461 331.54 291.871 331.54C292.51 331.54 293.065 331.677 293.534 331.952C294.004 332.221 294.366 332.614 294.62 333.128C294.875 333.642 295.003 334.269 295.003 335.009C295.003 335.798 294.85 336.477 294.545 337.046C294.241 337.616 293.809 338.053 293.249 338.358C292.695 338.657 292.036 338.807 291.271 338.807C290.712 338.807 290.19 338.712 289.706 338.522C289.221 338.328 288.796 338.033 288.432 337.638C288.067 337.244 287.783 336.747 287.578 336.147C287.373 335.543 287.271 334.829 287.271 334.005ZM291.226 336.957C291.681 336.957 292.051 336.802 292.335 336.492C292.62 336.182 292.762 335.698 292.762 335.039C292.762 334.504 292.637 334.085 292.388 333.78C292.143 333.47 291.771 333.315 291.271 333.315C290.932 333.315 290.632 333.393 290.372 333.548C290.118 333.697 289.92 333.89 289.78 334.124C289.641 334.354 289.571 334.591 289.571 334.836C289.571 335.091 289.606 335.343 289.676 335.593C289.746 335.843 289.85 336.07 289.99 336.275C290.13 336.48 290.302 336.644 290.507 336.769C290.717 336.894 290.957 336.957 291.226 336.957Z" fill="black"/>
<path d="M361.822 332.002C362.491 332.002 363.085 332.13 363.605 332.384C364.129 332.639 364.541 333.014 364.841 333.508C365.141 334.003 365.291 334.612 365.291 335.336C365.291 336.126 365.126 336.807 364.796 337.382C364.471 337.951 363.984 338.388 363.335 338.693C362.691 338.998 361.887 339.15 360.923 339.15C360.348 339.15 359.806 339.1 359.297 339C358.792 338.905 358.35 338.758 357.971 338.558V336.558C358.35 336.757 358.805 336.927 359.334 337.067C359.869 337.202 360.371 337.269 360.84 337.269C361.3 337.269 361.687 337.209 362.002 337.089C362.316 336.965 362.553 336.775 362.713 336.52C362.878 336.26 362.961 335.931 362.961 335.531C362.961 334.997 362.781 334.587 362.421 334.302C362.062 334.018 361.51 333.875 360.765 333.875C360.481 333.875 360.183 333.903 359.874 333.958C359.569 334.013 359.314 334.068 359.11 334.123L358.188 333.628L358.6 328.046H364.541V330.009H360.631L360.428 332.16C360.598 332.125 360.783 332.09 360.983 332.055C361.182 332.02 361.462 332.002 361.822 332.002ZM372.266 328.046L368.183 339H366.107L370.191 328.046H372.266ZM374.041 339L378.155 329.994H372.753V328.046H380.612V329.5L376.469 339H374.041Z" fill="black"/>
<path d="M449.17 338.657H446.854V332.319C446.854 332.144 446.857 331.929 446.862 331.675C446.867 331.415 446.874 331.15 446.884 330.88C446.894 330.606 446.904 330.358 446.914 330.139C446.859 330.204 446.747 330.316 446.577 330.476C446.412 330.631 446.258 330.77 446.113 330.895L444.854 331.907L443.738 330.513L447.267 327.704H449.17V338.657ZM459.456 330.154C459.456 330.658 459.351 331.095 459.142 331.465C458.932 331.834 458.647 332.137 458.287 332.371C457.933 332.606 457.533 332.778 457.089 332.888V332.933C457.968 333.043 458.635 333.313 459.089 333.742C459.549 334.172 459.778 334.746 459.778 335.466C459.778 336.105 459.621 336.677 459.306 337.181C458.997 337.686 458.517 338.083 457.868 338.373C457.219 338.662 456.382 338.807 455.358 338.807C454.754 338.807 454.189 338.757 453.665 338.657C453.145 338.562 452.656 338.415 452.196 338.215V336.245C452.666 336.485 453.158 336.667 453.672 336.792C454.187 336.912 454.666 336.971 455.111 336.971C455.94 336.971 456.519 336.829 456.849 336.544C457.184 336.255 457.351 335.85 457.351 335.331C457.351 335.026 457.274 334.769 457.119 334.559C456.964 334.349 456.694 334.189 456.31 334.08C455.93 333.97 455.398 333.915 454.714 333.915H453.882V332.139H454.729C455.403 332.139 455.915 332.077 456.265 331.952C456.619 331.822 456.859 331.647 456.984 331.427C457.114 331.203 457.179 330.948 457.179 330.663C457.179 330.273 457.059 329.969 456.819 329.749C456.579 329.529 456.18 329.419 455.62 329.419C455.271 329.419 454.951 329.464 454.661 329.554C454.377 329.639 454.119 329.744 453.89 329.869C453.66 329.989 453.458 330.106 453.283 330.221L452.211 328.625C452.641 328.316 453.143 328.058 453.717 327.854C454.297 327.649 454.986 327.546 455.785 327.546C456.914 327.546 457.808 327.774 458.467 328.228C459.127 328.683 459.456 329.324 459.456 330.154ZM466.656 327.704L462.573 338.657H460.498L464.581 327.704H466.656ZM468.432 338.657L472.545 329.652H467.143V327.704H475.003V329.157L470.859 338.657H468.432Z" fill="black"/>
<path d="M534.332 339H531.38L526.615 330.714H526.547C526.567 331.058 526.585 331.405 526.6 331.755C526.615 332.105 526.63 332.454 526.645 332.804C526.66 333.149 526.675 333.496 526.69 333.845V339H524.614V328.046H527.544L532.301 336.25H532.354C532.344 335.911 532.331 335.574 532.316 335.239C532.301 334.904 532.286 334.57 532.271 334.235C532.261 333.9 532.251 333.566 532.241 333.231V328.046H534.332V339ZM547.038 333.508C547.038 334.352 546.933 335.122 546.724 335.816C546.514 336.505 546.194 337.099 545.765 337.599C545.34 338.098 544.801 338.483 544.146 338.753C543.492 339.017 542.718 339.15 541.824 339.15C540.93 339.15 540.155 339.017 539.501 338.753C538.847 338.483 538.305 338.098 537.875 337.599C537.451 337.099 537.134 336.503 536.924 335.808C536.714 335.114 536.609 334.342 536.609 333.493C536.609 332.359 536.794 331.373 537.164 330.534C537.538 329.69 538.113 329.035 538.887 328.571C539.661 328.106 540.645 327.874 541.839 327.874C543.027 327.874 544.004 328.106 544.768 328.571C545.537 329.035 546.107 329.69 546.476 330.534C546.851 331.378 547.038 332.369 547.038 333.508ZM539.044 333.508C539.044 334.272 539.139 334.932 539.329 335.486C539.524 336.036 539.826 336.46 540.235 336.76C540.645 337.055 541.174 337.202 541.824 337.202C542.483 337.202 543.017 337.055 543.427 336.76C543.837 336.46 544.134 336.036 544.319 335.486C544.508 334.932 544.603 334.272 544.603 333.508C544.603 332.359 544.389 331.455 543.959 330.796C543.529 330.137 542.823 329.807 541.839 329.807C541.184 329.807 540.65 329.957 540.235 330.257C539.826 330.551 539.524 330.976 539.329 331.53C539.139 332.08 539.044 332.739 539.044 333.508ZM562.764 328.046L559.977 339H557.333L555.849 333.246C555.819 333.136 555.779 332.969 555.729 332.744C555.679 332.519 555.627 332.275 555.572 332.01C555.517 331.74 555.467 331.488 555.422 331.253C555.382 331.013 555.355 330.824 555.34 330.684C555.325 330.824 555.295 331.011 555.25 331.246C555.21 331.48 555.162 331.73 555.107 331.995C555.057 332.26 555.007 332.507 554.957 332.737C554.908 332.966 554.868 333.141 554.838 333.261L553.362 339H550.724L547.93 328.046H550.215L551.616 334.025C551.656 334.205 551.701 334.42 551.751 334.67C551.806 334.919 551.858 335.181 551.908 335.456C551.963 335.726 552.011 335.988 552.051 336.243C552.095 336.493 552.128 336.71 552.148 336.895C552.173 336.705 552.205 336.485 552.245 336.235C552.285 335.981 552.328 335.723 552.373 335.464C552.423 335.199 552.473 334.954 552.523 334.729C552.572 334.505 552.617 334.322 552.657 334.183L554.253 328.046H556.448L558.044 334.183C558.079 334.317 558.119 334.5 558.164 334.729C558.214 334.954 558.264 335.199 558.314 335.464C558.364 335.728 558.409 335.988 558.449 336.243C558.494 336.493 558.526 336.71 558.546 336.895C558.581 336.645 558.629 336.343 558.689 335.988C558.754 335.629 558.821 335.271 558.891 334.917C558.966 334.562 559.031 334.265 559.086 334.025L560.479 328.046H562.764Z" fill="#FF0000"/>
</svg>
