<svg width="17" height="17" viewBox="0 0 17 17" fill="none" xmlns="http://www.w3.org/2000/svg">
<path fill-rule="evenodd" clip-rule="evenodd" d="M2.09235 0.546204H14.462C15.3124 0.546204 16.0082 1.24205 16.0082 2.09241V11.3697C16.0082 12.22 15.3124 12.9159 14.462 12.9159H3.63856L0.546143 16.0083L0.553873 2.09241C0.553873 1.24205 1.24194 0.546204 2.09235 0.546204ZM2.99689 11.3697H14.462V2.09241H2.09235V12.2741L2.54075 11.8258L2.99689 11.3697ZM10.1017 4.7365C10.2563 4.89102 10.2563 5.13072 10.1017 5.28537L5.54813 9.82346H3.63856V7.91398L8.18442 3.36809C8.33904 3.21344 8.5787 3.21344 8.73332 3.36809L10.1017 4.7365ZM7.11753 9.82346H12.9158V8.27725H8.66374L7.11753 9.82346Z" fill="black"/>
</svg>
