<svg width="24" height="24" viewBox="0 0 24 24" fill="none" xmlns="http://www.w3.org/2000/svg">
<path fill-rule="evenodd" clip-rule="evenodd" d="M12.8461 2.5C7.51734 2.5 3.19211 6.81962 3.19211 12.1382C3.19211 14.3883 3.96559 16.4584 5.262 18.0994C5.4193 18.2985 5.40251 18.5839 5.22294 18.7632L2.21355 21.7679C2.80277 21.7639 3.56842 21.7568 4.42415 21.744C6.37195 21.7151 8.77807 21.6572 10.6327 21.5421C10.679 21.5392 10.7254 21.5428 10.7707 21.5527C11.4389 21.6991 12.1332 21.7763 12.8461 21.7763C18.1748 21.7763 22.5 17.4567 22.5 12.1382C22.5 6.81962 18.1747 2.5 12.8461 2.5ZM1.00001 22.773C0.797712 22.773 0.615345 22.651 0.538 22.4641C0.460656 22.2772 0.503577 22.0621 0.646738 21.9191L4.20803 18.3634C2.94013 16.6129 2.19211 14.4616 2.19211 12.1382C2.19211 6.26587 6.96652 1.5 12.8461 1.5C18.7256 1.5 23.5 6.26587 23.5 12.1382C23.5 18.0105 18.7256 22.7763 12.8461 22.7763C12.0852 22.7763 11.3424 22.6964 10.6257 22.5444C8.75615 22.6583 6.36574 22.7153 4.43901 22.7439C3.46261 22.7584 2.60318 22.7657 1.98781 22.7693C1.6801 22.7711 1.43335 22.772 1.26343 22.7725L1.06816 22.7729L1.00001 22.773Z" fill="white"/>
</svg>
