<svg width="25" height="25" viewBox="0 0 25 25" fill="none" xmlns="http://www.w3.org/2000/svg">
<path fill-rule="evenodd" clip-rule="evenodd" d="M2.94614 0.546204H22.1461C23.4661 0.546204 24.5461 1.62628 24.5461 2.9462V17.3462C24.5461 18.6661 23.4661 19.7462 22.1461 19.7462H5.34614L0.546143 24.5462L0.558142 2.9462C0.558142 1.62628 1.62614 0.546204 2.94614 0.546204ZM4.35014 17.3462H22.1461V2.9462H2.94614V18.7501L3.64214 18.0542L4.35014 17.3462ZM15.3781 7.05031C15.6181 7.29015 15.6181 7.66222 15.3781 7.90226L8.31014 14.9462H5.34614V11.9823L12.4021 4.92628C12.6421 4.68624 13.0141 4.68624 13.2541 4.92628L15.3781 7.05031ZM10.7461 14.9462H19.7461V12.5462H13.1461L10.7461 14.9462Z" fill="black"/>
</svg>
