<svg width="42" height="42" viewBox="0 0 42 42" fill="none" xmlns="http://www.w3.org/2000/svg">
<path d="M31.395 31.395C28.4035 33.6753 24.7609 34.9386 21 35C8.75 35 1.75 21 1.75 21C3.92681 16.9434 6.94599 13.3991 10.605 10.605M17.325 7.42004C18.5296 7.13808 19.7629 6.99714 21 7.00004C33.25 7.00004 40.25 21 40.25 21C39.1877 22.9874 37.9208 24.8583 36.47 26.5825M24.71 24.71C24.2294 25.2259 23.6498 25.6396 23.0058 25.9265C22.3618 26.2135 21.6666 26.3677 20.9617 26.3802C20.2567 26.3926 19.5565 26.2629 18.9028 25.9989C18.2491 25.7349 17.6553 25.3418 17.1567 24.8433C16.6582 24.3448 16.2652 23.7509 16.0011 23.0972C15.7371 22.4435 15.6074 21.7433 15.6199 21.0384C15.6323 20.3335 15.7866 19.6383 16.0735 18.9943C16.3605 18.3503 16.7742 17.7707 17.29 17.29" stroke="black" stroke-width="1.5" stroke-linecap="round" stroke-linejoin="round"/>
<path d="M1.75 1.75L40.25 40.25" stroke="black" stroke-width="1.5" stroke-linecap="round" stroke-linejoin="round"/>
</svg>
