<svg width="24" height="24" viewBox="0 0 24 24" fill="none" xmlns="http://www.w3.org/2000/svg">
<path fill-rule="evenodd" clip-rule="evenodd" d="M12 2.49963C6.7533 2.49963 2.5 6.75293 2.5 11.9996C2.5 17.2463 6.7533 21.4996 12 21.4996C17.2467 21.4996 21.5 17.2463 21.5 11.9996C21.5 6.75293 17.2467 2.49963 12 2.49963ZM1.5 11.9996C1.5 6.20064 6.20101 1.49963 12 1.49963C17.799 1.49963 22.5 6.20064 22.5 11.9996C22.5 17.7986 17.799 22.4996 12 22.4996C6.20101 22.4996 1.5 17.7986 1.5 11.9996Z" fill="#888888"/>
<path fill-rule="evenodd" clip-rule="evenodd" d="M12 10.4091C12.2761 10.4091 12.5 10.633 12.5 10.9091L12.5 16.3637C12.5 16.6398 12.2761 16.8637 12 16.8637C11.7239 16.8637 11.5 16.6398 11.5 16.3637L11.5 10.9091C11.5 10.633 11.7239 10.4091 12 10.4091Z" fill="#888888"/>
<path fill-rule="evenodd" clip-rule="evenodd" d="M11.5 7.99963C11.5 7.72349 11.7239 7.49963 12 7.49963H12.0109C12.2871 7.49963 12.5109 7.72349 12.5109 7.99963C12.5109 8.27578 12.2871 8.49963 12.0109 8.49963H12C11.7239 8.49963 11.5 8.27578 11.5 7.99963Z" fill="#888888"/>
</svg>
