<svg width="31" height="31" viewBox="0 0 31 31" fill="none" xmlns="http://www.w3.org/2000/svg">
<circle cx="15.5" cy="15.5" r="15.5" fill="#E2E2E2"/>
<path d="M19.375 12.0125H20.15M10.4625 8.13752H19.7625C21.4746 8.13752 22.8625 9.52544 22.8625 11.2375V20.5375C22.8625 22.2496 21.4746 23.6375 19.7625 23.6375H10.4625C8.75039 23.6375 7.36248 22.2496 7.36248 20.5375V11.2375C7.36248 9.52544 8.75039 8.13752 10.4625 8.13752ZM15.1125 18.9875C13.4004 18.9875 12.0125 17.5996 12.0125 15.8875C12.0125 14.1754 13.4004 12.7875 15.1125 12.7875C16.8246 12.7875 18.2125 14.1754 18.2125 15.8875C18.2125 17.5996 16.8246 18.9875 15.1125 18.9875Z" stroke="#B9B9B9" stroke-width="1.3"/>
</svg>
