<svg width="110" height="25" viewBox="0 0 110 25" fill="none" xmlns="http://www.w3.org/2000/svg">
<path d="M29.6789 18.2015C30.052 18.3487 30.4644 18.4665 30.9062 18.5549C31.3578 18.6433 31.8782 18.6825 32.4673 18.6825C33.1054 18.6825 33.6945 18.6138 34.2149 18.4665C34.7353 18.3193 35.1869 18.1131 35.56 17.8382C35.9331 17.5633 36.2178 17.2098 36.4142 16.7876C36.6105 16.3655 36.7185 15.8549 36.7185 15.2855C36.7185 14.7945 36.64 14.3625 36.5025 14.0189C36.3553 13.6753 36.1687 13.3807 35.9331 13.1451C35.6974 12.9095 35.4225 12.7131 35.128 12.5658C34.8236 12.4087 34.5094 12.2909 34.1953 12.1927C33.8811 12.1044 33.5669 12.0258 33.2822 11.9767C32.9778 11.9276 32.7127 11.8687 32.4967 11.8196C32.2022 11.7411 31.8978 11.6724 31.5836 11.5938C31.2596 11.5153 30.9651 11.4269 30.7 11.3189C30.5134 11.2502 30.3564 11.1618 30.2189 11.0636C29.8262 10.8182 29.6102 10.3665 29.728 9.93455C29.7673 9.78727 29.836 9.64982 29.944 9.532C30.1011 9.35527 30.2876 9.208 30.5233 9.09018C30.7393 8.992 30.9847 8.90364 31.24 8.85455C31.4953 8.80546 31.7211 8.776 31.9174 8.776C32.4869 8.776 33.0465 8.884 33.5669 9.09018C33.9793 9.24727 34.4014 9.47309 34.8334 9.748C34.9611 9.82655 35.128 9.79709 35.2163 9.67927L35.9723 8.61891C36.0607 8.49127 36.0313 8.31455 35.9036 8.22618C35.6778 8.07891 35.4618 7.94146 35.2556 7.82364C34.9513 7.64691 34.6371 7.48982 34.3229 7.372C34.0087 7.25418 33.6553 7.16582 33.292 7.09709C32.9189 7.03818 32.4967 7.00873 32.0254 7.00873C31.5542 7.00873 31.0534 7.05782 30.5429 7.16582C30.0422 7.264 29.5807 7.44073 29.1684 7.696C28.7658 7.94146 28.4222 8.28509 28.1669 8.70727C27.9116 9.12946 27.7742 9.66946 27.7742 10.3175C27.7742 10.7593 27.8429 11.1422 27.9902 11.4662C28.1374 11.7902 28.3338 12.0749 28.5694 12.3105C28.8051 12.5462 29.0898 12.7425 29.3844 12.8996C29.6887 13.0567 30.0029 13.1942 30.3269 13.2825C30.6411 13.3807 30.9553 13.4593 31.2596 13.5182C31.564 13.5771 31.8291 13.6262 32.0647 13.6655C32.4084 13.7244 32.752 13.8029 33.076 13.8716C33.4 13.9502 33.6945 14.0385 33.94 14.1465C34.1953 14.2545 34.4014 14.4116 34.5585 14.5884C34.7254 14.7749 34.804 15.0105 34.804 15.2658C34.804 15.4622 34.7549 15.6684 34.6469 15.8745C34.5389 16.0807 34.3916 16.2575 34.1756 16.4145C33.9793 16.5618 33.724 16.6895 33.4393 16.7778C33.1545 16.876 32.8207 16.9153 32.4476 16.9153C31.7603 16.9153 31.0829 16.768 30.4545 16.4735C29.9538 16.2378 29.4629 15.9629 28.9818 15.6585C28.8542 15.58 28.6873 15.6095 28.5989 15.7371L27.8625 16.8269C27.7742 16.9545 27.8134 17.1313 27.9313 17.2098C28.1669 17.3669 28.4025 17.524 28.6284 17.6615C28.9524 17.8676 29.3058 18.0542 29.6789 18.2015Z" fill="#231815"/>
<path d="M47.0276 18.4665H48.4022C48.5592 18.4665 48.6771 18.3389 48.6771 18.1916V7.46039C48.6771 7.3033 48.5494 7.18549 48.4022 7.18549H47.0276C46.8705 7.18549 46.7527 7.31312 46.7527 7.46039V11.908C46.7527 12.0651 46.6251 12.1829 46.4778 12.1829H41.0582C40.9011 12.1829 40.7832 12.0553 40.7832 11.908V7.46039C40.7832 7.3033 40.6556 7.18549 40.5083 7.18549H39.1338C38.9767 7.18549 38.8589 7.31312 38.8589 7.46039V18.1818C38.8589 18.3389 38.9865 18.4567 39.1338 18.4567H40.5083C40.6654 18.4567 40.7832 18.3291 40.7832 18.1818V14.1465C40.7832 13.9895 40.9109 13.8716 41.0582 13.8716H46.4778C46.6349 13.8716 46.7527 13.9993 46.7527 14.1465V18.1818C46.7527 18.3389 46.8803 18.4665 47.0276 18.4665Z" fill="#231815"/>
<path d="M52.6142 16.9644C53.1443 17.4945 53.7629 17.9167 54.4698 18.2211C55.1767 18.5255 55.9327 18.6825 56.7378 18.6825C57.5429 18.6825 58.3087 18.5255 59.0156 18.2211C59.7225 17.9167 60.3509 17.4945 60.8713 16.9644C61.4014 16.4342 61.8236 15.8156 62.128 15.1087C62.4323 14.4018 62.5894 13.636 62.5894 12.8309C62.5894 12.0356 62.4323 11.2698 62.128 10.5531C61.8236 9.83633 61.4014 9.21779 60.8713 8.6876C60.3411 8.15742 59.7225 7.73524 59.0156 7.43088C58.3087 7.12651 57.5429 6.96942 56.7378 6.96942C55.9425 6.96942 55.1767 7.12651 54.4698 7.43088C53.7629 7.73524 53.1345 8.15742 52.6142 8.6876C52.084 9.20797 51.6618 9.83633 51.3476 10.5531C51.0433 11.26 50.8862 12.0258 50.8862 12.8309C50.8862 13.636 51.0433 14.4116 51.3476 15.1087C51.6618 15.8156 52.084 16.4342 52.6142 16.9644ZM53.1345 11.2796C53.3407 10.7887 53.6254 10.3469 53.9691 9.9836C54.3225 9.61051 54.7349 9.31597 55.2062 9.09015C55.6774 8.86433 56.1978 8.75633 56.7378 8.75633C57.2778 8.75633 57.7982 8.86433 58.2694 9.09015C58.7407 9.31597 59.1531 9.61051 59.5065 9.9836C59.86 10.3567 60.1447 10.7887 60.3411 11.2796C60.5473 11.7705 60.6553 12.2909 60.6553 12.8211C60.6553 13.3611 60.5473 13.8913 60.3411 14.3724C60.1349 14.8633 59.8502 15.2953 59.5065 15.6684C59.1531 16.0415 58.7407 16.3458 58.2694 16.5618C57.7982 16.7876 57.2778 16.8956 56.7378 16.8956C56.1978 16.8956 55.6774 16.7778 55.2062 16.5618C54.7349 16.336 54.3225 16.0316 53.9691 15.6684C53.6156 15.2953 53.3309 14.8535 53.1345 14.3724C52.9283 13.8815 52.8203 13.3611 52.8203 12.8211C52.8203 12.2909 52.9283 11.7705 53.1345 11.2796Z" fill="#231815"/>
<path d="M67.5083 18.4763L70.5029 12.0847C70.6011 11.8687 70.9054 11.8687 71.0036 12.0847L73.9687 18.4567H74.008L78.0727 7.57816C78.1414 7.39161 78.004 7.20507 77.8076 7.20507H76.3447C76.2269 7.20507 76.1189 7.2738 76.0796 7.39162L73.9883 13.1451C73.9 13.3807 73.576 13.3905 73.4778 13.1647L71.0036 7.78434C70.9054 7.56834 70.6011 7.56834 70.5029 7.78434L68.0189 13.1451C67.9109 13.3709 67.5869 13.3513 67.5083 13.1254L65.4563 7.3818C65.4171 7.2738 65.3091 7.19525 65.1912 7.19525H63.7283C63.532 7.19525 63.4043 7.39162 63.4632 7.56834L67.4887 18.4763H67.5083Z" fill="#231815"/>
<path d="M89.7367 18.4665V7.47999C89.7367 7.3229 89.6091 7.20508 89.4618 7.20508H88.0872C87.9302 7.20508 87.8123 7.33271 87.8123 7.47999V13.7244C87.8123 13.9698 87.5276 14.0974 87.3509 13.9305L80.0265 7.20508H79.9872V18.1818C79.9872 18.3389 80.1149 18.4567 80.2622 18.4567H81.6367C81.7938 18.4567 81.9116 18.3291 81.9116 18.1818V12.0454C81.9116 11.8 82.1963 11.6822 82.3731 11.8393L89.6974 18.4665H89.7367Z" fill="#231815"/>
<path d="M93.1436 18.4665H94.5181C94.6752 18.4665 94.7931 18.3389 94.7931 18.1916V7.47999C94.7931 7.3229 94.6654 7.20508 94.5181 7.20508H93.1436C92.9865 7.20508 92.8687 7.33271 92.8687 7.47999V18.1818C92.8589 18.3389 92.9865 18.4665 93.1436 18.4665Z" fill="#231815"/>
<path d="M99.0149 16.9644C99.5451 17.4945 100.173 17.9167 100.88 18.2211C101.587 18.5254 102.343 18.6825 103.148 18.6825C103.953 18.6825 104.729 18.5254 105.426 18.2211C105.819 18.0542 106.192 17.8382 106.536 17.5927L106.634 17.524L107.537 18.4273C107.645 18.5353 107.822 18.5353 107.93 18.4273L108.705 17.6516C108.813 17.5436 108.813 17.3669 108.705 17.2589L107.812 16.3654L107.881 16.2673C108.146 15.904 108.372 15.5113 108.548 15.0989C108.853 14.392 109.01 13.6262 109.01 12.8211C109.01 12.0258 108.853 11.26 108.548 10.5433C108.244 9.82656 107.822 9.20802 107.292 8.67784C106.761 8.14766 106.143 7.72547 105.436 7.42111C104.729 7.11675 103.963 6.95966 103.158 6.95966C102.363 6.95966 101.597 7.11675 100.89 7.42111C100.183 7.72547 99.5549 8.14766 99.0247 8.67784C98.5043 9.1982 98.0723 9.83638 97.768 10.5433C97.4636 11.2502 97.3065 12.016 97.3065 12.8211C97.3065 13.6262 97.4636 14.4018 97.768 15.0989C98.0625 15.8156 98.4847 16.4342 99.0149 16.9644ZM99.5353 11.2796C99.7414 10.7887 100.026 10.3469 100.38 9.98365C100.733 9.61056 101.145 9.31602 101.617 9.0902C102.088 8.86438 102.608 8.75638 103.148 8.75638C103.688 8.75638 104.209 8.86438 104.68 9.0902C105.151 9.31602 105.564 9.61056 105.917 9.98365C106.271 10.3567 106.555 10.7887 106.752 11.2796C106.958 11.7705 107.066 12.2909 107.066 12.8211C107.066 13.3611 106.958 13.8913 106.752 14.3724C106.693 14.5196 106.614 14.6669 106.516 14.8436L106.428 15.0007L105.191 13.7636C105.083 13.6556 104.906 13.6556 104.798 13.7636L104.022 14.5393C103.914 14.6473 103.914 14.824 104.022 14.932L105.299 16.2084L105.151 16.3065C104.975 16.4145 104.827 16.5029 104.67 16.5814C104.199 16.8073 103.679 16.9153 103.139 16.9153C102.599 16.9153 102.078 16.7974 101.607 16.5814C101.136 16.3556 100.723 16.0513 100.37 15.688C100.016 15.3149 99.7316 14.8731 99.5353 14.392C99.3291 13.9011 99.2211 13.3807 99.2211 12.8407C99.2211 12.2909 99.3291 11.7705 99.5353 11.2796Z" fill="#231815"/>
<path d="M6.14473 9.91491L1 6.94V12.8702L1.00982 12.88L6.14473 9.91491Z" fill="url(#paint0_linear_224_887)"/>
<path d="M6.14473 15.8451L1 18.82L11.2895 24.76V18.82L6.14473 15.8451Z" fill="url(#paint1_linear_224_887)"/>
<path d="M21.5691 12.88L16.4244 9.91492L11.2796 12.88L6.14474 9.91492L1.00983 12.88L6.14474 15.8451L11.2796 18.8102H11.2895L16.4342 15.8451L21.5691 12.88Z" fill="url(#paint2_linear_224_887)"/>
<path d="M16.4342 15.8451L11.2895 18.82V24.76L16.4342 21.7851L21.5789 18.82V12.88L16.4342 15.8451Z" fill="url(#paint3_linear_224_887)"/>
<path d="M11.2895 1L6.14473 3.97491L1 6.94L6.14473 9.91491L11.2895 12.88L16.4244 9.91491L21.5789 6.94L11.2895 1Z" fill="url(#paint4_linear_224_887)"/>
<defs>
<linearGradient id="paint0_linear_224_887" x1="1.00388" y1="12.875" x2="3.57315" y2="8.4249" gradientUnits="userSpaceOnUse">
<stop stop-color="#C8C9CA"/>
<stop offset="0.0273" stop-color="#BDBDBE"/>
<stop offset="0.1363" stop-color="#959494"/>
<stop offset="0.2423" stop-color="#757373"/>
<stop offset="0.3433" stop-color="#5E5C5B"/>
<stop offset="0.4371" stop-color="#514E4D"/>
<stop offset="0.5168" stop-color="#4C4948"/>
<stop offset="1" stop-color="#231815"/>
</linearGradient>
<linearGradient id="paint1_linear_224_887" x1="6.14365" y1="24.7575" x2="6.14365" y2="15.8462" gradientUnits="userSpaceOnUse">
<stop stop-color="#C8C9CA"/>
<stop offset="0.0273" stop-color="#BDBDBE"/>
<stop offset="0.1363" stop-color="#959494"/>
<stop offset="0.2423" stop-color="#757373"/>
<stop offset="0.3433" stop-color="#5E5C5B"/>
<stop offset="0.4371" stop-color="#514E4D"/>
<stop offset="0.5168" stop-color="#4C4948"/>
<stop offset="1" stop-color="#231815"/>
</linearGradient>
<linearGradient id="paint2_linear_224_887" x1="11.2925" y1="18.8181" x2="11.2925" y2="9.9102" gradientUnits="userSpaceOnUse">
<stop stop-color="#C8C9CA"/>
<stop offset="0.0273" stop-color="#BDBDBE"/>
<stop offset="0.1363" stop-color="#959494"/>
<stop offset="0.2423" stop-color="#757373"/>
<stop offset="0.3433" stop-color="#5E5C5B"/>
<stop offset="0.4371" stop-color="#514E4D"/>
<stop offset="0.5168" stop-color="#4C4948"/>
<stop offset="1" stop-color="#231815"/>
</linearGradient>
<linearGradient id="paint3_linear_224_887" x1="13.8584" y1="16.2471" x2="19.002" y2="21.3907" gradientUnits="userSpaceOnUse">
<stop stop-color="#C8C9CA"/>
<stop offset="0.0273" stop-color="#BDBDBE"/>
<stop offset="0.1363" stop-color="#959494"/>
<stop offset="0.2423" stop-color="#757373"/>
<stop offset="0.3433" stop-color="#5E5C5B"/>
<stop offset="0.4371" stop-color="#514E4D"/>
<stop offset="0.5168" stop-color="#4C4948"/>
<stop offset="1" stop-color="#231815"/>
</linearGradient>
<linearGradient id="paint4_linear_224_887" x1="11.2873" y1="12.8787" x2="11.2873" y2="1" gradientUnits="userSpaceOnUse">
<stop stop-color="#C8C9CA"/>
<stop offset="0.0273" stop-color="#BDBDBE"/>
<stop offset="0.1363" stop-color="#959494"/>
<stop offset="0.2423" stop-color="#757373"/>
<stop offset="0.3433" stop-color="#5E5C5B"/>
<stop offset="0.4371" stop-color="#514E4D"/>
<stop offset="0.5168" stop-color="#4C4948"/>
<stop offset="1" stop-color="#231815"/>
</linearGradient>
</defs>
</svg>
