<svg width="67" height="58" viewBox="0 0 67 58" fill="none" xmlns="http://www.w3.org/2000/svg">
<path d="M1.60645 56.6976C1.91428 56.8226 2.25096 56.9188 2.6165 56.9861C2.98204 57.0535 3.41492 57.0919 3.90551 57.0919C4.43458 57.0919 4.91555 57.0342 5.34843 56.9092C5.77169 56.7937 6.14685 56.6206 6.45467 56.3897C6.7625 56.1589 6.99336 55.8702 7.15689 55.5239C7.32042 55.1776 7.407 54.764 7.407 54.2831C7.407 53.879 7.34928 53.5231 7.22423 53.2441C7.10879 52.9652 6.94526 52.7151 6.75287 52.5227C6.56048 52.3303 6.33923 52.1668 6.08913 52.0417C5.83902 51.9166 5.5793 51.8108 5.31957 51.7339C5.05985 51.6569 4.80012 51.5992 4.55963 51.5511C4.30953 51.503 4.08828 51.4645 3.90551 51.426C3.66502 51.3683 3.4053 51.301 3.15519 51.2433C2.88585 51.1856 2.64536 51.1086 2.42411 51.0124C2.19324 50.9258 2.00085 50.8008 1.85656 50.6661C1.69302 50.5122 1.61607 50.3199 1.61607 50.0986C1.61607 49.8774 1.68341 49.6946 1.81808 49.5407C1.94314 49.3964 2.10667 49.2713 2.29906 49.1751C2.48183 49.0885 2.68383 49.0212 2.89546 48.9731C3.10709 48.9346 3.28986 48.9154 3.45339 48.9154C3.92475 48.9154 4.38649 49.002 4.80974 49.1751C5.20414 49.329 5.61778 49.5599 6.04103 49.8389L6.92602 48.5883C6.6663 48.4056 6.42581 48.2517 6.20456 48.117C5.95446 47.9631 5.69473 47.8476 5.435 47.7514C5.17528 47.6553 4.88669 47.5783 4.57887 47.5302C4.27105 47.4821 3.92475 47.4532 3.53035 47.4532C3.14557 47.4532 2.73193 47.4917 2.30867 47.5782C1.89503 47.6648 1.51026 47.8091 1.17357 48.0111C0.836892 48.2131 0.56755 48.4921 0.346302 48.848C0.134673 49.1943 0.0288573 49.6464 0.0288573 50.1755C0.0288573 50.5411 0.0865765 50.8585 0.21163 51.1278C0.327063 51.3972 0.490595 51.6281 0.692604 51.8205C0.894613 52.0129 1.11586 52.1764 1.36597 52.3111C1.61607 52.4457 1.8758 52.5515 2.14514 52.6285C2.40487 52.7054 2.6646 52.7728 2.9147 52.8209C3.16481 52.869 3.38605 52.9075 3.57844 52.9459C3.86703 52.994 4.14599 53.0517 4.41534 53.1191C4.68469 53.1768 4.92517 53.2634 5.12718 53.3499C5.33881 53.4461 5.51196 53.5616 5.63701 53.7155C5.77168 53.8694 5.83903 54.0618 5.83903 54.2734C5.83903 54.437 5.79092 54.6101 5.71397 54.7737C5.62739 54.9372 5.50234 55.0911 5.32919 55.2161C5.16566 55.3412 4.96365 55.447 4.72316 55.5143C4.48268 55.5913 4.21333 55.6298 3.90551 55.6298C3.33796 55.6298 2.78003 55.5047 2.26058 55.2643C1.77961 55.043 1.30825 54.7736 0.865751 54.4658L0 55.7356C0.259726 55.9184 0.519453 56.0915 0.75994 56.2358C1.01005 56.4282 1.30825 56.5725 1.60645 56.6976Z" fill="#231815"/>
<path d="M15.6897 56.9186H17.2769V47.6166H15.6897V51.7433H10.7549V47.6166H9.16766V56.9186H10.7549V53.1285H15.6897V56.9186Z" fill="#231815"/>
<path d="M20.5084 55.6777C20.9412 56.1106 21.4607 56.4568 22.0379 56.7165C22.615 56.9666 23.2499 57.1013 23.904 57.1013C24.5678 57.1013 25.2027 56.9763 25.7798 56.7165C26.3666 56.4664 26.8765 56.1106 27.3093 55.6777C27.7422 55.2448 28.0981 54.7253 28.3482 54.1482C28.5983 53.571 28.733 52.9361 28.733 52.2723C28.733 51.6182 28.608 50.9834 28.3482 50.3966C28.0981 49.8098 27.7422 49.2903 27.3093 48.8574C26.8765 48.4246 26.357 48.0686 25.7798 47.8185C25.2027 47.5684 24.5678 47.4338 23.904 47.4338C23.2499 47.4338 22.615 47.5588 22.0379 47.8185C21.4511 48.0686 20.9412 48.4246 20.5084 48.8574C20.0755 49.2903 19.7292 49.8098 19.4695 50.3966C19.2194 50.9834 19.0943 51.6086 19.0943 52.2723C19.0943 52.9361 19.2194 53.571 19.4695 54.1482C19.7292 54.7349 20.0755 55.2448 20.5084 55.6777ZM20.9412 50.993C21.1144 50.589 21.3453 50.2234 21.6338 49.9252C21.9224 49.6174 22.2687 49.3769 22.6535 49.1942C23.0479 49.0114 23.4712 48.9152 23.9137 48.9152C24.3561 48.9152 24.789 49.0114 25.1738 49.1942C25.5586 49.3769 25.9049 49.627 26.1935 49.9252C26.4821 50.233 26.7129 50.589 26.8861 50.993C27.0592 51.397 27.1458 51.8299 27.1458 52.2628C27.1458 52.7053 27.0592 53.1381 26.8861 53.5421C26.7129 53.9461 26.4821 54.3021 26.1935 54.6099C25.9049 54.9178 25.5586 55.1678 25.1738 55.3506C24.789 55.5334 24.3561 55.6296 23.9137 55.6296C23.4712 55.6296 23.0383 55.5334 22.6535 55.3506C22.2687 55.1678 21.9224 54.9178 21.6338 54.6099C21.3453 54.3021 21.1144 53.9365 20.9412 53.5421C20.7681 53.1381 20.6815 52.7053 20.6815 52.2628C20.6911 51.8299 20.7777 51.397 20.9412 50.993Z" fill="#231815"/>
<path d="M32.7925 56.9284L35.4764 51.2145L38.1217 56.9188H38.1506L41.6232 47.636H39.9302L37.9582 53.0518L35.4667 47.6649L32.9753 53.0422L31.0418 47.636H29.3488L32.7829 56.9284H32.7925Z" fill="#231815"/>
<path d="M51.1182 56.9188V47.636H49.531V53.5327L43.1052 47.636H43.0764V56.9188H44.6636V51.1087L51.0798 56.9188H51.1182Z" fill="#231815"/>
<path d="M55.293 47.636H53.6962V56.9188H55.293V47.636Z" fill="#231815"/>
<path d="M58.7658 55.6777C59.1987 56.1106 59.7181 56.4568 60.3049 56.7165C60.8821 56.9666 61.517 57.1013 62.1711 57.1013C62.8348 57.1013 63.4697 56.9763 64.0469 56.7165C64.3643 56.5722 64.6818 56.3991 64.9607 56.1971L65.0377 56.1394L65.9419 57.0436L66.9039 56.0817L66.0093 55.1871L66.067 55.1101C66.2882 54.8119 66.471 54.4848 66.6153 54.1482C66.8654 53.571 67.0001 52.9361 67.0001 52.2723C67.0001 51.6182 66.875 50.9834 66.6153 50.3966C66.3652 49.8098 66.0093 49.2903 65.5764 48.8574C65.1435 48.4246 64.6241 48.0686 64.0469 47.8185C63.4601 47.5684 62.8348 47.4338 62.1711 47.4338C61.5073 47.4338 60.8821 47.5588 60.3049 47.8185C59.7181 48.0686 59.2083 48.4246 58.7658 48.8574C58.3329 49.2903 57.9866 49.8098 57.7269 50.3966C57.4768 50.9834 57.3421 51.6182 57.3421 52.2723C57.3421 52.9361 57.4672 53.571 57.7269 54.1482C57.977 54.7349 58.3329 55.2448 58.7658 55.6777ZM59.189 50.993C59.3526 50.589 59.5931 50.2234 59.8817 49.9252C60.1702 49.6174 60.5165 49.3769 60.9013 49.1942C61.2957 49.0114 61.719 48.9152 62.1615 48.9152C62.604 48.9152 63.0368 49.0114 63.4216 49.1942C63.8064 49.3769 64.1527 49.627 64.4413 49.9252C64.7299 50.233 64.9607 50.589 65.1339 50.993C65.307 51.397 65.3936 51.8299 65.3936 52.2628C65.3936 52.7053 65.307 53.1381 65.1339 53.5421C65.0858 53.6576 65.0184 53.7826 64.9415 53.9269L64.8645 54.052L63.6813 52.8687L62.7194 53.8307L63.9314 55.0428L63.816 55.1197C63.6717 55.2063 63.5467 55.2832 63.4216 55.341C63.0272 55.5237 62.604 55.62 62.1615 55.62C61.7093 55.62 61.2861 55.5237 60.9013 55.341C60.5165 55.1582 60.1702 54.9081 59.8817 54.6003C59.5931 54.2925 59.3622 53.9269 59.189 53.5325C59.0159 53.1285 58.9293 52.6956 58.9293 52.2531C58.9389 51.8299 59.0255 51.397 59.189 50.993Z" fill="#231815"/>
<path d="M25.2218 14.3229L16.9491 9.55164V19.0845L16.9683 19.0941L25.2218 14.3229Z" fill="url(#paint0_linear_1_88)"/>
<path d="M25.2218 23.8657L16.9491 28.6465L33.485 38.1891V28.6465V28.637L25.2218 23.8657Z" fill="url(#paint1_linear_1_88)"/>
<path d="M33.4854 28.6479H33.4965L33.4854 28.6368V28.6479Z" fill="#FFF000"/>
<path d="M50.0109 19.094L41.7477 14.3228L33.4846 19.094L25.2215 14.3228L16.968 19.094L25.2215 23.8653L33.4846 28.6366L33.4942 28.6461L41.7573 23.8749L50.0109 19.094Z" fill="url(#paint2_linear_1_88)"/>
<path d="M50.0225 19.1057V19.0945H50.0114L50.0225 19.1057Z" fill="#FFF000"/>
<path d="M41.7581 23.8749L33.495 28.6461H33.4854V38.1887L41.7581 33.4174L50.0212 28.6461V19.1036L41.7581 23.8749Z" fill="url(#paint3_linear_1_88)"/>
<path d="M33.485 -0.000183105L25.2218 4.77104L16.9491 9.55195L25.2218 14.3232L33.485 19.0945L41.7481 14.3232L50.0209 9.55195L33.485 -0.000183105Z" fill="url(#paint4_linear_1_88)"/>
<defs>
<linearGradient id="paint0_linear_1_88" x1="16.9563" y1="19.0892" x2="21.0863" y2="11.9359" gradientUnits="userSpaceOnUse">
<stop stop-color="#C8C9CA"/>
<stop offset="0.0273" stop-color="#BDBDBE"/>
<stop offset="0.1363" stop-color="#959494"/>
<stop offset="0.2423" stop-color="#757373"/>
<stop offset="0.3433" stop-color="#5E5C5B"/>
<stop offset="0.4371" stop-color="#514E4D"/>
<stop offset="0.5168" stop-color="#4C4948"/>
<stop offset="1" stop-color="#231815"/>
</linearGradient>
<linearGradient id="paint1_linear_1_88" x1="25.2184" y1="38.1904" x2="25.2184" y2="23.8656" gradientUnits="userSpaceOnUse">
<stop stop-color="#C8C9CA"/>
<stop offset="0.0273" stop-color="#BDBDBE"/>
<stop offset="0.1363" stop-color="#959494"/>
<stop offset="0.2423" stop-color="#757373"/>
<stop offset="0.3433" stop-color="#5E5C5B"/>
<stop offset="0.4371" stop-color="#514E4D"/>
<stop offset="0.5168" stop-color="#4C4948"/>
<stop offset="1" stop-color="#231815"/>
</linearGradient>
<linearGradient id="paint2_linear_1_88" x1="33.4946" y1="28.6425" x2="33.4946" y2="14.3233" gradientUnits="userSpaceOnUse">
<stop stop-color="#C8C9CA"/>
<stop offset="0.0273" stop-color="#BDBDBE"/>
<stop offset="0.1363" stop-color="#959494"/>
<stop offset="0.2423" stop-color="#757373"/>
<stop offset="0.3433" stop-color="#5E5C5B"/>
<stop offset="0.4371" stop-color="#514E4D"/>
<stop offset="0.5168" stop-color="#4C4948"/>
<stop offset="1" stop-color="#231815"/>
</linearGradient>
<linearGradient id="paint3_linear_1_88" x1="37.6199" y1="24.5095" x2="45.8882" y2="32.7778" gradientUnits="userSpaceOnUse">
<stop stop-color="#C8C9CA"/>
<stop offset="0.0273" stop-color="#BDBDBE"/>
<stop offset="0.1363" stop-color="#959494"/>
<stop offset="0.2423" stop-color="#757373"/>
<stop offset="0.3433" stop-color="#5E5C5B"/>
<stop offset="0.4371" stop-color="#514E4D"/>
<stop offset="0.5168" stop-color="#4C4948"/>
<stop offset="1" stop-color="#231815"/>
</linearGradient>
<linearGradient id="paint4_linear_1_88" x1="33.4866" y1="19.0955" x2="33.4866" y2="0.000779757" gradientUnits="userSpaceOnUse">
<stop stop-color="#C8C9CA"/>
<stop offset="0.0273" stop-color="#BDBDBE"/>
<stop offset="0.1363" stop-color="#959494"/>
<stop offset="0.2423" stop-color="#757373"/>
<stop offset="0.3433" stop-color="#5E5C5B"/>
<stop offset="0.4371" stop-color="#514E4D"/>
<stop offset="0.5168" stop-color="#4C4948"/>
<stop offset="1" stop-color="#231815"/>
</linearGradient>
</defs>
</svg>
