<svg width="24" height="24" viewBox="0 0 24 24" fill="none" xmlns="http://www.w3.org/2000/svg">
<path fill-rule="evenodd" clip-rule="evenodd" d="M1.00002 3.49995C1.27617 3.49995 1.50002 3.72381 1.50002 3.99995V9.49995H7.00002C7.27617 9.49995 7.50002 9.72381 7.50002 9.99995C7.50002 10.2761 7.27617 10.5 7.00002 10.5H1.00002C0.72388 10.5 0.500023 10.2761 0.500023 9.99995V3.99995C0.500023 3.72381 0.72388 3.49995 1.00002 3.49995Z" fill="black"/>
<path fill-rule="evenodd" clip-rule="evenodd" d="M10.675 2.60199C12.7146 2.31503 14.7922 2.6987 16.5948 3.69517C18.3973 4.69165 19.8272 6.24695 20.669 8.12675C21.5108 10.0065 21.7188 12.109 21.2618 14.1173C20.8048 16.1256 19.7074 17.931 18.1351 19.2614C16.5628 20.5919 14.6007 21.3753 12.5445 21.4936C10.4882 21.612 8.44919 21.0589 6.73463 19.9176C5.02007 18.7763 3.72285 17.1088 3.03844 15.1661C2.94668 14.9057 3.08343 14.6202 3.34388 14.5284C3.60433 14.4366 3.88985 14.5734 3.98161 14.8338C4.59398 16.572 5.75465 18.064 7.28873 19.0851C8.82281 20.1063 10.6472 20.6012 12.487 20.4953C14.3268 20.3894 16.0824 19.6885 17.4892 18.4981C18.896 17.3077 19.8778 15.6923 20.2867 13.8954C20.6956 12.0985 20.5095 10.2174 19.7563 8.53544C19.0031 6.85352 17.7238 5.46193 16.111 4.57035C14.4981 3.67876 12.6392 3.33548 10.8144 3.59224C8.98948 3.84899 7.29747 4.69186 5.99328 5.99385L5.98241 6.00437L1.34241 10.3644C1.14117 10.5535 0.824744 10.5436 0.635648 10.3424C0.446552 10.1411 0.456396 9.82471 0.657636 9.63562L5.2922 5.28072C6.7491 3.82864 8.638 2.88859 10.675 2.60199Z" fill="black"/>
</svg>
