<svg width="26" height="26" viewBox="0 0 26 26" fill="none" xmlns="http://www.w3.org/2000/svg">
<path d="M0.0824194 12.1785C0.145583 11.6892 0.192952 11.1955 0.283908 10.71C1.00714 6.83435 3.06312 3.86698 6.4146 1.81932C8.59439 0.49008 10.9889 -0.108085 13.5357 0.0159777C17.1878 0.194476 20.2481 1.66867 22.6799 4.40564C24.5117 6.46596 25.5855 8.8915 25.8318 11.6361C26.2026 15.7238 24.926 19.2539 22.0255 22.1586C20.0915 24.0955 17.7418 25.2601 15.0453 25.7095C14.6164 25.7811 14.1819 25.8203 13.7498 25.8747H12.237C12.173 25.8562 12.1078 25.8423 12.0419 25.833C10.0206 25.6906 8.13328 25.1114 6.40954 24.0531C3.06186 21.9984 1.00587 19.0374 0.282644 15.163C0.19232 14.6781 0.148109 14.1844 0.0817871 13.6951L0.0824194 12.1785ZM12.9868 24.7993C19.4927 24.812 24.818 19.4824 24.8307 12.9438C24.8433 6.42418 19.5249 1.08697 13.0001 1.07431C6.49419 1.06165 1.16821 6.39126 1.15557 12.9299C1.14357 19.452 6.46259 24.7867 12.9868 24.7993V24.7993Z" fill="#FFA1A1"/>
<path d="M12.8611 15.0977C16.4298 15.0888 19.4099 17.4068 20.2872 20.7729C20.3864 21.1527 20.2601 21.4451 19.955 21.5382C19.6499 21.6312 19.3524 21.4527 19.252 21.0653C18.9431 19.8716 18.3677 18.8297 17.4708 17.984C15.9959 16.5915 14.2342 15.9788 12.2282 16.2402C9.62139 16.5801 7.85975 18.0404 6.9104 20.4893C6.8346 20.6843 6.79292 20.8925 6.72976 21.0926C6.61796 21.4432 6.34382 21.6198 6.05011 21.5356C5.7564 21.4515 5.60795 21.1641 5.6907 20.8052C6.37034 17.8676 8.96828 15.5433 11.9863 15.1768C12.3179 15.1369 12.6533 15.116 12.8611 15.0977Z" fill="#FFA1A1"/>
<path d="M8.69494 8.63136C8.97885 8.6327 9.25068 8.74666 9.45096 8.94831C9.65125 9.14997 9.76369 9.4229 9.76368 9.70741C9.76118 9.99192 9.64633 10.2639 9.44427 10.4637C9.24221 10.6636 8.96939 10.7752 8.68547 10.774C8.40134 10.773 8.12919 10.6591 7.92863 10.4575C7.72808 10.2558 7.61548 9.98265 7.61548 9.69792C7.61798 9.41319 7.73299 9.14106 7.93532 8.94115C8.13766 8.74124 8.4108 8.62984 8.69494 8.63136Z" fill="#FFA1A1"/>
<path d="M17.3046 10.7734C17.0207 10.7761 16.7472 10.666 16.5441 10.4672C16.341 10.2684 16.2247 9.99702 16.2207 9.71251C16.2194 9.42789 16.3306 9.15432 16.5301 8.9517C16.7295 8.74908 17.001 8.63391 17.285 8.6314C17.5691 8.62853 17.8426 8.73854 18.0459 8.93737C18.2492 9.1362 18.3656 9.40764 18.3696 9.69226C18.3709 9.977 18.2596 10.2507 18.06 10.4533C17.8604 10.6559 17.5887 10.771 17.3046 10.7734Z" fill="#FFA1A1"/>
</svg>
