<svg width="26" height="26" viewBox="0 0 26 26" fill="none" xmlns="http://www.w3.org/2000/svg">
<path d="M0.00441808 12.1785C0.0707402 11.6892 0.115591 11.1955 0.205915 10.71C0.929141 6.83435 2.98512 3.86698 6.33723 1.81932C8.51702 0.49008 10.9109 -0.108085 13.4577 0.0159777C17.1098 0.194476 20.1701 1.66867 22.6019 4.40564C24.4337 6.46596 25.5075 8.8915 25.7538 11.6361C26.1252 15.7238 24.848 19.2539 21.9476 22.1586C20.0135 24.0955 17.6638 25.2601 14.9673 25.7095C14.5384 25.7811 14.1039 25.8203 13.6718 25.8747H12.1559C12.0921 25.8562 12.0271 25.8423 11.9613 25.833C9.9401 25.6906 8.05213 25.1114 6.32839 24.0531C2.9807 21.9984 0.925347 19.0374 0.201489 15.163C0.111165 14.6781 0.0663221 14.1844 0 13.6951L0.00441808 12.1785ZM12.9189 24.7993C19.4381 24.793 24.759 19.4577 24.7527 12.9337C24.7463 6.40013 19.4229 1.06798 12.912 1.07431C6.40103 1.08064 1.07189 6.41595 1.0782 12.94C1.08452 19.4735 6.40861 24.8057 12.9189 24.7993Z" fill="#FFA1A1"/>
<path d="M12.8861 18.3317C10.9966 18.3317 9.10699 18.3317 7.21713 18.3317C7.09164 18.3337 6.96635 18.3209 6.84383 18.2937C6.73463 18.2615 6.63875 18.1948 6.57045 18.1035C6.50216 18.0123 6.46512 17.9014 6.46484 17.7873C6.46621 17.6729 6.50475 17.5621 6.57462 17.4716C6.64449 17.3812 6.74188 17.316 6.85204 17.286C6.96651 17.2607 7.08349 17.2486 7.2007 17.2499C11.0137 17.2499 14.8267 17.2499 18.6397 17.2499H18.6896C19.1159 17.2562 19.3705 17.462 19.3673 17.7962C19.3642 18.1304 19.1147 18.3342 18.682 18.3342C16.75 18.3334 14.8181 18.3325 12.8861 18.3317Z" fill="#FFA1A1"/>
<path d="M8.61659 8.63136C8.9006 8.63253 9.17259 8.74642 9.37301 8.94809C9.57343 9.14976 9.68595 9.42279 9.68595 9.70741C9.68344 9.99203 9.56851 10.2641 9.36632 10.464C9.16412 10.6638 8.89114 10.7753 8.60711 10.774C8.32298 10.773 8.05083 10.6591 7.85028 10.4575C7.64972 10.2558 7.53711 9.98265 7.53711 9.69792C7.53961 9.41319 7.65463 9.14106 7.85696 8.94115C8.05929 8.74124 8.33245 8.62984 8.61659 8.63136Z" fill="#FFA1A1"/>
<path d="M17.2089 8.6314C17.4929 8.62853 17.7665 8.73854 17.9698 8.93737C18.173 9.1362 18.2894 9.40764 18.2934 9.69226C18.2947 9.977 18.1834 10.2507 17.9838 10.4533C17.7842 10.6559 17.5126 10.771 17.2284 10.7734C16.9445 10.7761 16.6711 10.666 16.4679 10.4672C16.2648 10.2684 16.1485 9.99702 16.1445 9.71251C16.1432 9.42789 16.2544 9.15432 16.4539 8.9517C16.6534 8.74908 16.9248 8.63391 17.2089 8.6314Z" fill="#FFA1A1"/>
</svg>
