<svg width="26" height="26" viewBox="0 0 26 26" fill="none" xmlns="http://www.w3.org/2000/svg">
<path d="M12.9277 15.0945H19.0805C19.1563 15.0945 19.2321 15.0945 19.3079 15.0945C19.788 15.1072 20.0274 15.4661 19.829 15.9035C18.723 18.3467 16.8603 19.8671 14.227 20.3533C10.7719 20.9913 7.40973 19.1614 5.99676 15.9364C5.78579 15.4553 6.01697 15.0945 6.54691 15.0933C8.67427 15.0907 10.8008 15.0907 12.9265 15.0933L12.9277 15.0945ZM18.5064 16.187H7.3093C8.63574 18.2569 10.4675 19.3848 12.8936 19.3899C15.3286 19.3956 17.1698 18.2651 18.5064 16.187Z" fill="#FFA1A1"/>
<path d="M0.00315742 12.1785C0.0663213 11.6892 0.113694 11.1955 0.20465 10.71C0.927877 6.83435 2.98386 3.86698 6.33534 1.81932C8.51512 0.49008 10.9097 -0.108085 13.4564 0.0159777C17.1086 0.194476 20.1689 1.66867 22.6007 4.40564C24.4324 6.46596 25.5062 8.8915 25.7526 11.6361C26.1233 15.7238 24.8468 19.2539 21.9463 22.1586C20.0122 24.0955 17.6625 25.2601 14.9661 25.7095C14.5372 25.7811 14.1026 25.8203 13.6706 25.8747H12.1546C12.0909 25.8562 12.0258 25.8422 11.9601 25.833C9.93884 25.6906 8.0515 25.1114 6.32776 24.0531C2.98007 21.9984 0.924087 19.0374 0.200861 15.163C0.110536 14.6781 0.0656904 14.1844 0 13.6951L0.00315742 12.1785ZM12.9069 24.7993C19.4128 24.812 24.7388 19.4824 24.7514 12.9438C24.764 6.42418 19.4456 1.08697 12.9208 1.07431C6.41493 1.06165 1.08894 6.39126 1.07631 12.9299C1.06368 19.452 6.38334 24.7867 12.9069 24.7993Z" fill="#FFA1A1"/>
<path d="M8.61487 8.63136C8.89889 8.63253 9.17088 8.74642 9.37129 8.94809C9.57171 9.14976 9.68424 9.42279 9.68424 9.70741C9.68157 9.99203 9.56648 10.264 9.36416 10.4638C9.16185 10.6635 8.88879 10.7749 8.60476 10.7733C8.32075 10.7722 8.04876 10.6583 7.84834 10.4566C7.64792 10.2549 7.5354 9.9819 7.5354 9.69728C7.53807 9.41267 7.65316 9.1407 7.85547 8.94093C8.05779 8.74115 8.33084 8.62984 8.61487 8.63136Z" fill="#FFA1A1"/>
<path d="M17.2275 10.7734C16.9435 10.7761 16.6701 10.666 16.467 10.4672C16.2638 10.2684 16.1476 9.99702 16.1436 9.71251C16.1422 9.42789 16.2535 9.15432 16.4529 8.9517C16.6524 8.74908 16.9239 8.63391 17.2079 8.6314C17.4919 8.62853 17.7655 8.73854 17.9688 8.93737C18.172 9.1362 18.2884 9.40764 18.2924 9.69226C18.2938 9.977 18.1824 10.2507 17.9828 10.4533C17.7832 10.6559 17.5116 10.771 17.2275 10.7734Z" fill="#FFA1A1"/>
</svg>
