<svg width="26" height="26" viewBox="0 0 26 26" fill="none" xmlns="http://www.w3.org/2000/svg">
<path d="M0.00378582 12.1785C0.0669497 11.6892 0.114326 11.1955 0.20465 10.71C0.928509 6.83435 2.98386 3.86698 6.33597 1.81932C8.51575 0.49008 10.9103 -0.108085 13.4571 0.0159777C17.1092 0.194476 20.1689 1.66867 22.6013 4.40564C24.4331 6.46596 25.5037 8.8915 25.7532 11.6361C26.124 15.7238 24.8474 19.2539 21.9463 22.1586C20.0128 24.0955 17.6625 25.2601 14.9661 25.7095C14.5372 25.7811 14.1026 25.8203 13.6712 25.8747H12.1553C12.0915 25.8562 12.0265 25.8422 11.9607 25.833C9.93947 25.6906 8.05213 25.1114 6.32775 24.0531C2.98007 21.9984 0.924715 19.0374 0.200857 15.163C0.110533 14.6781 0.0656905 14.1844 0 13.6951L0.00378582 12.1785ZM12.9075 24.7993C19.4134 24.812 24.7394 19.4824 24.752 12.9438C24.764 6.42418 19.4463 1.08697 12.9208 1.07431C6.41492 1.06165 1.08957 6.39126 1.07694 12.9299C1.06431 19.452 6.38397 24.7867 12.9075 24.7993Z" fill="#FFA1A1"/>
<path d="M13.0463 21.5637C9.47694 21.5719 6.49687 19.2546 5.62016 15.8878C5.52036 15.508 5.64732 15.2156 5.95177 15.1226C6.26759 15.027 6.55498 15.208 6.65541 15.5954C6.96429 16.7898 7.53971 17.8317 8.43663 18.6773C9.91088 20.0699 11.6725 20.6826 13.6792 20.4205C16.286 20.0806 18.0477 18.621 18.9976 16.172C19.0734 15.9771 19.1145 15.7682 19.1783 15.5682C19.2895 15.2175 19.5642 15.0409 19.8573 15.1251C20.1504 15.2093 20.2994 15.4966 20.2173 15.8555C19.5371 18.7925 16.9391 21.1174 13.9218 21.4839C13.5889 21.5244 13.2535 21.5453 13.0463 21.5637Z" fill="#FFA1A1"/>
<path d="M8.61537 8.63136C8.89938 8.63253 9.17137 8.74642 9.37179 8.94809C9.57221 9.14976 9.68473 9.42279 9.68473 9.70741C9.68222 9.99203 9.56729 10.2641 9.3651 10.464C9.1629 10.6638 8.88991 10.7753 8.60589 10.774C8.32176 10.773 8.04961 10.6591 7.84906 10.4575C7.6485 10.2558 7.53589 9.98265 7.53589 9.69792C7.53839 9.41319 7.65341 9.14106 7.85574 8.94115C8.05807 8.74124 8.33123 8.62984 8.61537 8.63136V8.63136Z" fill="#FFA1A1"/>
<path d="M17.2267 10.7734C16.9428 10.7761 16.6694 10.666 16.4662 10.4672C16.2631 10.2684 16.1468 9.99702 16.1428 9.71251C16.1415 9.428 16.2526 9.15453 16.452 8.95192C16.6513 8.74932 16.9226 8.63408 17.2065 8.6314C17.4906 8.62853 17.7641 8.73854 17.9674 8.93737C18.1707 9.1362 18.287 9.40764 18.291 9.69226C18.2924 9.97689 18.1812 10.2504 17.9817 10.4531C17.7822 10.6557 17.5107 10.7709 17.2267 10.7734Z" fill="#FFA1A1"/>
</svg>
