<svg width="26" height="26" viewBox="0 0 26 26" fill="none" xmlns="http://www.w3.org/2000/svg">
<path d="M12.1523 25.8863C11.6628 25.823 11.1701 25.7717 10.6844 25.685C7.70682 25.154 5.21564 23.7418 3.21587 21.4745C1.39169 19.4066 0.329275 16.9842 0.0665135 14.2403C-0.258149 10.8539 0.60467 7.77701 2.67834 5.07486C4.59852 2.57273 7.10929 0.950415 10.198 0.305418C14.0561 -0.500987 17.5945 0.289598 20.7363 2.6759C23.2628 4.59317 24.8539 7.14024 25.5279 10.2481C25.6473 10.7969 25.6934 11.3615 25.7742 11.9185C25.7869 12.0084 25.8052 12.0977 25.8203 12.1869V13.7061C25.8001 13.8877 25.7786 14.0694 25.7572 14.2517C25.4483 17.0367 24.3871 19.4927 22.5143 21.5758C20.5259 23.7867 18.0625 25.1679 15.1317 25.6901C14.646 25.7762 14.1533 25.8256 13.6638 25.8914L12.1523 25.8863Z" fill="#FFA1A1"/>
<path d="M7.52916 12.7375L8.36987 11.933C9.00151 11.3279 9.6382 10.7304 10.2648 10.1158C10.8061 9.58598 10.904 8.90554 10.5452 8.30232C10.074 7.5092 9.1171 7.3402 8.42103 7.93646C8.26228 8.08639 8.11113 8.24419 7.96815 8.40929C7.70981 8.68273 7.3643 8.68843 7.10596 8.42005C7.01311 8.3232 6.93352 8.21307 6.83814 8.11875C6.57412 7.85607 6.29746 7.60161 5.90648 7.56047C5.35316 7.5016 4.73352 7.86746 4.45939 8.39536C4.33229 8.64411 4.28242 8.92529 4.31619 9.20269C4.34996 9.4801 4.46583 9.74101 4.64888 9.95184C4.83016 10.1607 5.03608 10.3487 5.23631 10.5411C5.99301 11.2691 6.75287 11.9944 7.52916 12.7375Z" fill="white"/>
<path d="M18.2854 12.7404C18.7339 12.3106 19.1602 11.9055 19.5834 11.4972C20.1102 10.9909 20.6528 10.4965 21.1543 9.96481C21.6015 9.49072 21.6274 8.81027 21.2806 8.26022C20.8063 7.50888 19.8664 7.35127 19.2007 7.92031C19.0345 8.0745 18.8762 8.23695 18.7263 8.40707C18.4566 8.68874 18.1111 8.69 17.847 8.40707C17.7555 8.30832 17.6765 8.19756 17.5805 8.10388C17.3139 7.84309 17.036 7.58927 16.6419 7.56078C16.0646 7.51901 15.4475 7.90322 15.1954 8.44062C15.0699 8.70103 15.0292 8.99439 15.0791 9.27925C15.1289 9.56411 15.2669 9.82607 15.4734 10.0281C16.3924 10.9377 17.3348 11.8257 18.2854 12.7404Z" fill="white"/>
<path d="M12.9108 21.5738C9.46139 21.5782 6.40489 19.1938 5.60587 15.8707C5.54776 15.6289 5.5566 15.3966 5.77136 15.227C5.95516 15.082 6.18192 15.0497 6.35625 15.1877C6.49945 15.3113 6.60314 15.4744 6.65439 15.6567C6.9241 16.6106 7.34919 17.4778 7.99915 18.2291C9.07862 19.4774 10.4329 20.2306 12.0707 20.4274C14.2296 20.6876 16.0841 20.0318 17.602 18.4652C18.3172 17.7221 18.8351 16.8111 19.1084 15.8156C19.142 15.6853 19.1842 15.5574 19.2347 15.4327C19.2821 15.3188 19.3682 15.2255 19.4776 15.1691C19.5871 15.1126 19.7129 15.0968 19.8329 15.1244C19.9528 15.1518 20.0592 15.2208 20.1331 15.3193C20.207 15.4178 20.2436 15.5394 20.2365 15.6624C20.2341 15.7464 20.2212 15.8298 20.198 15.9106C19.303 18.9773 17.2849 20.8205 14.1677 21.4636C13.9945 21.497 13.8194 21.5196 13.6435 21.5314C13.3978 21.5522 13.154 21.5611 12.9108 21.5738Z" fill="white"/>
</svg>
