<svg width="184" height="137" viewBox="0 0 184 137" fill="none" xmlns="http://www.w3.org/2000/svg">
<g id="Group">
<path id="Vector" fill-rule="evenodd" clip-rule="evenodd" d="M96.2903 28.491C97.3778 27.8905 98.7059 27.9294 99.7566 28.5923L182.159 80.5844C184.333 81.956 184.264 85.1489 182.033 86.4255L97.9106 134.562C94.0649 136.763 89.3417 136.763 85.496 134.562L1.71567 86.6214C-0.592097 85.3008 -0.566569 81.964 1.76114 80.6789L96.2903 28.491Z" fill="#FCF5E6"/>
<path id="Vector_2" fill-rule="evenodd" clip-rule="evenodd" d="M67.3584 124.183L17.9761 95.9252L47.2545 79.3765L93.8216 105.835L67.3584 124.183Z" fill="#F4E8CD"/>
<g id="Group_2">
<path id="Vector_3" fill-rule="evenodd" clip-rule="evenodd" d="M44.6343 34.2617V77.8654L99.5554 109.009L138.001 87.2074V43.6037L99.5554 65.4056L44.6343 34.2617Z" fill="#E0E0E2"/>
<path id="Vector_4" fill-rule="evenodd" clip-rule="evenodd" d="M93.7562 72.9795L80.6948 65.5718L80.6523 80.3146L93.7138 87.7224" fill="white"/>
<path id="Vector_5" fill-rule="evenodd" clip-rule="evenodd" d="M79.9987 64.3975L94.4455 72.5908L94.3985 88.8977L79.9517 80.7044L79.9987 64.3975ZM81.7766 67.4231L81.761 72.841L86.5619 75.5639L86.5775 70.1458L81.7766 67.4231ZM87.8402 76.2884L87.8558 70.8703L92.6559 73.5926L92.6403 79.0104L87.8402 76.2884ZM81.7415 79.7026L81.7571 74.2837L86.558 77.0063L86.5424 82.4253L81.7415 79.7026ZM87.8203 83.1504L87.8359 77.7315L92.6359 80.4538L92.6203 85.8727L87.8203 83.1504Z" fill="#2DBBA6"/>
<path id="Vector_6" fill-rule="evenodd" clip-rule="evenodd" d="M63.5534 57.3799L50.4922 49.9722L50.4497 64.7152L63.5111 72.123" fill="white"/>
<path id="Vector_7" fill-rule="evenodd" clip-rule="evenodd" d="M49.7965 48.7974L64.2434 56.9907L64.1963 73.2976L49.7495 65.1042L49.7965 48.7974ZM51.5745 51.8226L51.5589 57.2407L56.3597 59.9634L56.3754 54.5453L51.5745 51.8226ZM57.6381 60.6883L57.6537 55.2704L62.4537 57.9927L62.4381 63.4105L57.6381 60.6883ZM51.5392 64.1025L51.5548 58.6836L56.3557 61.4062L56.3401 66.8252L51.5392 64.1025ZM57.6182 67.5501L57.6338 62.1312L62.4338 64.8534L62.4182 70.2724L57.6182 67.5501Z" fill="#2DBBA6"/>
<path id="Vector_8" fill-rule="evenodd" clip-rule="evenodd" d="M138.003 43.6025V87.2062L99.5576 109.008V65.4044L138.003 43.6025Z" fill="#C6C5CB"/>
<path id="Vector_9" fill-rule="evenodd" clip-rule="evenodd" d="M41.8862 23.3593L83.0781 0L140.745 32.7013V42.0465L99.5532 65.4055L41.8901 32.7045L41.8862 23.3593Z" fill="#71EAB0"/>
<path id="Vector_10" fill-rule="evenodd" clip-rule="evenodd" d="M41.8862 23.3594L41.8901 32.7046L99.5532 65.4056V56.0602L41.8862 23.3594Z" fill="#2DBBA6"/>
<path id="Vector_11" fill-rule="evenodd" clip-rule="evenodd" d="M99.5576 65.4049L140.749 42.0459V32.7007L99.5576 56.0595V65.4049Z" fill="#2DBBA6"/>
<path id="Vector_12" fill-rule="evenodd" clip-rule="evenodd" d="M66.6074 90.3217V70.6238C66.6074 67.7178 69.8096 65.9013 72.3717 67.3539C75.6038 69.1862 77.5948 72.5734 77.5948 76.239V96.5516L66.6074 90.3217Z" fill="#2DBBA6"/>
<path id="Vector_13" d="M67.8776 81.3722C68.3733 81.3722 68.7751 80.9775 68.7751 80.4906C68.7751 80.0036 68.3733 79.6089 67.8776 79.6089C67.3818 79.6089 66.98 80.0036 66.98 80.4906C66.98 80.9775 67.3818 81.3722 67.8776 81.3722Z" fill="#FEDA44"/>
<path id="Vector_14" fill-rule="evenodd" clip-rule="evenodd" d="M47.378 35.8203L36.3984 42.0472L85.8244 70.0779L96.8114 63.8474L47.378 35.8203Z" fill="#2DBBA6"/>
<path id="Vector_15" fill-rule="evenodd" clip-rule="evenodd" d="M41.8905 45.1606L36.3984 42.0464V45.1608C36.3984 46.8745 37.6341 48.9768 39.1443 49.8329C40.6546 50.689 41.8903 49.9874 41.8903 48.2744C41.8903 48.2484 41.8872 48.2211 41.8868 48.195C41.8901 47.4694 41.8905 45.1606 41.8905 45.1606Z" fill="#71EAB0"/>
<path id="Vector_16" fill-rule="evenodd" clip-rule="evenodd" d="M47.3856 48.2753L41.8936 45.1611V48.2756C41.8936 49.9893 43.1292 52.0915 44.6395 52.9476C46.1497 53.8037 47.3854 53.1022 47.3854 51.3891C47.3854 51.3632 47.3824 51.3359 47.3819 51.3097C47.3852 50.5841 47.3856 48.2753 47.3856 48.2753Z" fill="#2DBBA6"/>
<path id="Vector_17" fill-rule="evenodd" clip-rule="evenodd" d="M52.8805 51.3896L47.3882 48.2754V51.3898C47.3882 53.1035 48.6238 55.2058 50.1341 56.0619C51.6444 56.918 52.88 56.2164 52.88 54.5034C52.88 54.4774 52.877 54.4502 52.8766 54.424C52.88 53.6986 52.8805 51.3896 52.8805 51.3896Z" fill="#71EAB0"/>
<path id="Vector_18" fill-rule="evenodd" clip-rule="evenodd" d="M58.3685 54.5039L52.8765 51.3896V54.5041C52.8765 56.2178 54.1121 58.32 55.6224 59.1761C57.1327 60.0322 58.3683 59.3307 58.3683 57.6176C58.3683 57.5917 58.3653 57.5644 58.3649 57.5382C58.3681 56.8126 58.3685 54.5039 58.3685 54.5039Z" fill="#2DBBA6"/>
<path id="Vector_19" fill-rule="evenodd" clip-rule="evenodd" d="M63.8568 57.6186L58.3647 54.5044V57.6188C58.3647 59.3325 59.6004 61.4348 61.1107 62.2909C62.6209 63.147 63.8566 62.4454 63.8566 60.7326C63.8566 60.7066 63.8535 60.6794 63.8531 60.6532C63.8564 59.9274 63.8568 57.6186 63.8568 57.6186Z" fill="#71EAB0"/>
<path id="Vector_20" fill-rule="evenodd" clip-rule="evenodd" d="M69.3588 60.7334L63.8667 57.6191V60.7336C63.8667 62.4473 65.1024 64.5495 66.6126 65.4056C68.1229 66.2617 69.3586 65.5602 69.3586 63.8471C69.3586 63.8212 69.3555 63.7939 69.3551 63.7677C69.3583 63.0421 69.3588 60.7334 69.3588 60.7334Z" fill="#2DBBA6"/>
<path id="Vector_21" fill-rule="evenodd" clip-rule="evenodd" d="M74.8402 63.8481L69.3481 60.7339V63.8483C69.3481 65.562 70.5838 67.6643 72.0941 68.5204C73.6043 69.3765 74.84 68.675 74.84 66.9621C74.84 66.9361 74.837 66.9089 74.8365 66.8827C74.8398 66.1567 74.8402 63.8481 74.8402 63.8481Z" fill="#71EAB0"/>
<path id="Vector_22" fill-rule="evenodd" clip-rule="evenodd" d="M80.3422 66.9619L74.8501 63.8477V66.9621C74.8501 68.6758 76.0858 70.778 77.596 71.6341C79.1063 72.4902 80.342 71.7887 80.342 70.0759C80.342 70.0499 80.3389 70.0226 80.3385 69.9965C80.3417 69.2709 80.3422 66.9619 80.3422 66.9619Z" fill="#2DBBA6"/>
<path id="Vector_23" fill-rule="evenodd" clip-rule="evenodd" d="M85.83 70.0766L80.3379 66.9624V70.0768C80.3379 71.7905 81.5735 73.8928 83.0838 74.7489C84.5941 75.605 85.8297 74.9035 85.8297 73.1904C85.8297 73.1644 85.8267 73.1372 85.8263 73.111C85.8297 72.3854 85.83 70.0766 85.83 70.0766Z" fill="#71EAB0"/>
<g id="Group_3">
<path id="Vector_24" fill-rule="evenodd" clip-rule="evenodd" d="M41.8949 45.1619C41.8949 45.1619 52.879 38.9324 52.8788 38.9326C52.8785 38.9328 47.383 35.8203 47.383 35.8203C47.383 35.8203 36.1412 41.8984 36.4034 42.0472C36.6653 42.1961 41.8949 45.1619 41.8949 45.1619Z" fill="#71EAB0"/>
<path id="Vector_25" fill-rule="evenodd" clip-rule="evenodd" d="M52.8785 51.3914C52.8785 51.3914 63.8626 45.1619 63.8624 45.1621C63.8622 45.1623 58.3666 42.0498 58.3666 42.0498C58.3666 42.0498 47.1246 48.1281 47.3868 48.2769C47.6489 48.4258 52.8785 51.3914 52.8785 51.3914Z" fill="#71EAB0"/>
<path id="Vector_26" fill-rule="evenodd" clip-rule="evenodd" d="M63.8619 57.6189C63.8619 57.6189 74.846 51.3894 74.8458 51.3896C74.8456 51.3898 69.3498 48.2773 69.3498 48.2773C69.3498 48.2773 58.108 54.3555 58.3702 54.5043C58.6325 54.6533 63.8619 57.6189 63.8619 57.6189Z" fill="#71EAB0"/>
<path id="Vector_27" fill-rule="evenodd" clip-rule="evenodd" d="M74.8448 63.8497C74.8448 63.8497 85.8279 57.6207 85.8287 57.6204C85.828 57.6205 80.3327 54.5083 80.3327 54.5083C80.3327 54.5083 69.0907 60.5864 69.3532 60.7352C69.6152 60.8836 74.8448 63.8497 74.8448 63.8497Z" fill="#71EAB0"/>
<path id="Vector_28" fill-rule="evenodd" clip-rule="evenodd" d="M85.8287 70.0794C85.8287 70.0794 96.8128 63.8499 96.8126 63.8501C96.8122 63.8503 91.3166 60.7378 91.3166 60.7378C91.3166 60.7378 80.0748 66.8159 80.337 66.9647C80.5991 67.1136 85.8287 70.0794 85.8287 70.0794Z" fill="#71EAB0"/>
</g>
</g>
<g id="Group_4">
<g id="Group_5">
<path id="Vector_29" fill-rule="evenodd" clip-rule="evenodd" d="M144.773 76.9662C144.773 83.9799 142.283 90.3948 138.162 95.4412L156.363 113.574L151.298 118.621L133.01 100.402C128.117 104.08 121.935 106.304 115.324 106.304C99.0115 106.304 85.8755 93.1319 85.8755 76.9662C85.8755 60.7149 99.0973 47.6284 115.324 47.6284C131.637 47.6284 144.773 60.8005 144.773 76.9662ZM92.4005 76.9662C92.4005 89.5395 102.617 99.8034 115.324 99.8034C128.031 99.8034 138.334 89.5395 138.248 76.9662C138.248 64.3928 128.031 54.1289 115.324 54.1289C102.703 54.1289 92.4005 64.3073 92.4005 76.9662Z" fill="white"/>
<path id="Vector_30" fill-rule="evenodd" clip-rule="evenodd" d="M144.773 76.9662C144.773 83.9799 142.283 90.3948 138.162 95.4412L156.363 113.574L151.298 118.621L133.01 100.402C128.117 104.08 121.935 106.304 115.324 106.304C99.0115 106.304 85.8755 93.1319 85.8755 76.9662C85.8755 60.7149 99.0973 47.6284 115.324 47.6284C131.637 47.6284 144.773 60.8005 144.773 76.9662V76.9662ZM92.4005 76.9662C92.4005 89.5395 102.617 99.8034 115.324 99.8034C128.031 99.8034 138.334 89.5395 138.248 76.9662C138.248 64.3928 128.031 54.1289 115.324 54.1289C102.703 54.1289 92.4005 64.3073 92.4005 76.9662Z" stroke="#284356" stroke-width="1.73155"/>
</g>
<g id="Group_6">
<path id="Vector_31" fill-rule="evenodd" clip-rule="evenodd" d="M170.021 132.818C166.93 135.897 161.779 135.897 158.602 132.647L138.598 112.718C136.194 110.237 135.851 107.757 137.997 105.619L142.29 101.342C145.037 98.605 147.527 98.8616 150.017 101.342L170.021 121.271C173.198 124.436 173.284 129.568 170.193 132.647L170.021 132.818Z" fill="#FFA1A1"/>
<path id="Vector_32" fill-rule="evenodd" clip-rule="evenodd" d="M170.021 132.818C166.93 135.897 161.779 135.897 158.602 132.647L138.598 112.718C136.194 110.237 135.851 107.757 137.997 105.619L142.29 101.342C145.037 98.605 147.527 98.8616 150.017 101.342L170.021 121.271C173.198 124.436 173.284 129.568 170.193 132.647L170.021 132.818V132.818Z" stroke="#284356" stroke-width="1.73155" stroke-linecap="round" stroke-linejoin="round"/>
</g>
</g>
</g>
</svg>
