<svg width="232" height="110" viewBox="0 0 232 110" fill="none" xmlns="http://www.w3.org/2000/svg">
<path d="M12.1948 26.3616C10.625 26.3616 9.17896 26.0987 7.84889 25.5806C6.52655 25.0625 5.37435 24.3279 4.39999 23.369C3.42564 22.4178 2.66782 21.3043 2.11878 20.0283C1.56974 18.7524 1.29135 17.345 1.29135 15.8139C1.29135 14.2828 1.56974 12.8754 2.11878 11.5994C2.66782 10.3235 3.43338 9.20994 4.41546 8.25879C5.39755 7.30764 6.54975 6.57301 7.87982 6.04717C9.20989 5.52133 10.656 5.26614 12.2257 5.26614C13.8187 5.26614 15.288 5.5368 16.6258 6.07811C17.9713 6.61941 19.1158 7.4159 20.0592 8.47531L18.1414 10.3312C17.3527 9.5038 16.4711 8.8929 15.489 8.49078C14.507 8.08867 13.4553 7.88761 12.334 7.88761C11.1741 7.88761 10.0992 8.08093 9.10936 8.47531C8.11955 8.86969 7.26119 9.41874 6.53429 10.1224C5.80739 10.8261 5.24289 11.669 4.84077 12.6434C4.43866 13.6177 4.2376 14.6694 4.2376 15.8062C4.2376 16.9429 4.43866 18.0023 4.84077 18.9689C5.24289 19.9433 5.80739 20.7784 6.53429 21.4899C7.26119 22.2013 8.11955 22.7426 9.10936 23.137C10.0992 23.5314 11.1741 23.7247 12.334 23.7247C13.4553 23.7247 14.507 23.5236 15.489 23.1215C16.4711 22.7194 17.3527 22.093 18.1414 21.2501L20.0592 23.1061C19.1158 24.1655 17.9713 24.9697 16.6258 25.5187C15.288 26.0832 13.8033 26.3616 12.1948 26.3616Z" fill="black"/>
<path d="M33.1354 26.3616C31.5656 26.3616 30.1041 26.0987 28.7586 25.5651C27.413 25.0316 26.2531 24.2969 25.271 23.338C24.2889 22.3869 23.5234 21.2733 22.9743 19.9974C22.4253 18.7215 22.1469 17.3295 22.1469 15.8139C22.1469 14.2982 22.4253 12.9063 22.9743 11.6304C23.5234 10.3544 24.2889 9.24088 25.271 8.28972C26.2531 7.33857 27.413 6.5962 28.7431 6.06263C30.0732 5.52906 31.5424 5.26614 33.1277 5.26614C34.6975 5.26614 36.1435 5.52905 37.4736 6.04716C38.8037 6.56527 39.9559 7.30763 40.9457 8.25878C41.9355 9.20994 42.7011 10.3235 43.2424 11.5994C43.7837 12.8754 44.0544 14.2828 44.0544 15.8139C44.0544 17.345 43.7837 18.7524 43.2424 20.0283C42.7011 21.3043 41.9355 22.4178 40.9457 23.369C39.9559 24.3201 38.796 25.0547 37.4736 25.5806C36.159 26.0987 34.7052 26.3616 33.1354 26.3616ZM33.1354 23.7401C34.2722 23.7401 35.3316 23.5468 36.2982 23.1525C37.2726 22.7581 38.1154 22.209 38.8346 21.4899C39.5538 20.7707 40.1106 19.9355 40.5127 18.9689C40.9148 18.01 41.1158 16.9584 41.1158 15.8139C41.1158 14.6694 40.9148 13.6255 40.5127 12.6588C40.1106 11.6999 39.5538 10.8571 38.8346 10.1379C38.1154 9.41873 37.2726 8.86969 36.2982 8.47531C35.3239 8.08093 34.2722 7.88761 33.1354 7.88761C31.9755 7.88761 30.9083 8.08093 29.9417 8.47531C28.9674 8.86969 28.1167 9.42647 27.3976 10.1379C26.6707 10.8571 26.1062 11.6922 25.7041 12.6588C25.302 13.6177 25.1009 14.6694 25.1009 15.8139C25.1009 16.9584 25.302 18.0023 25.7041 18.9689C26.1062 19.9278 26.6707 20.7707 27.3976 21.4899C28.1245 22.209 28.9751 22.7581 29.9417 23.1525C30.9161 23.5468 31.9755 23.7401 33.1354 23.7401ZM30.9238 3.82781L34.9295 0H38.5253L33.5762 3.82781H30.9238Z" fill="black"/>
<path d="M7.07564 64.0134V45.9569H0V43.3973H17.0511V45.9569H9.98323V64.0134H7.07564Z" fill="black"/>
<path d="M23.2143 64.0134H20.268V43.3973H23.2143V64.0134ZM35.3164 54.8266H22.9204V52.267H35.3164V54.8266ZM35.0534 43.3973H37.9997V64.0134H35.0534V43.3973Z" fill="black"/>
<path d="M53.4888 64.2531C51.919 64.2531 50.4574 63.9902 49.1119 63.4566C47.7664 62.923 46.6064 62.1884 45.6244 61.2295C44.6423 60.2783 43.8767 59.1648 43.3277 57.8888C42.7786 56.6129 42.5002 55.221 42.5002 53.7053C42.5002 52.1742 42.7786 50.7668 43.3277 49.4909C43.8767 48.2149 44.65 47.1014 45.6398 46.1502C46.6296 45.1991 47.805 44.4645 49.1583 43.9386C50.5116 43.4205 51.9886 43.1576 53.5738 43.1576C54.7492 43.1576 55.7855 43.2272 56.667 43.3664C57.5486 43.5056 58.4069 43.5752 59.2266 43.5752C60.1314 43.5752 60.8196 43.3973 61.3068 43.0416C61.7862 42.6859 62.0259 42.1446 62.0259 41.4177C62.0259 41.062 61.9641 40.7372 61.8481 40.4279C61.7321 40.1263 61.5929 39.8479 61.4382 39.585L63.2091 38.8813C63.4643 39.2524 63.6653 39.67 63.8123 40.1185C63.9592 40.5671 64.0365 41.031 64.0365 41.5027C64.0365 42.74 63.6112 43.6989 62.7528 44.3871C61.8945 45.0754 60.6881 45.4156 59.1184 45.4156C58.5461 45.4156 57.9429 45.3847 57.3088 45.3151C56.667 45.2455 56.0638 45.1759 55.4993 45.0908L59.1802 44.65C60.2242 45.1836 61.1366 45.895 61.9177 46.7998C62.6987 47.7046 63.3173 48.7408 63.7581 49.9085C64.1989 51.0761 64.4232 52.3366 64.4232 53.6899C64.4232 55.221 64.1525 56.6284 63.6112 57.9043C63.0699 59.1803 62.3043 60.2938 61.3145 61.2449C60.3247 62.1961 59.1648 62.9307 57.8424 63.4566C56.5046 63.9902 55.0586 64.2531 53.4888 64.2531ZM53.4888 61.6316C54.6255 61.6316 55.6849 61.4305 56.6515 61.0284C57.6259 60.6263 58.4688 60.0695 59.1879 59.3658C59.9071 58.6621 60.4639 57.827 60.866 56.8604C61.2681 55.9015 61.4692 54.8498 61.4692 53.7053C61.4692 52.584 61.2681 51.5401 60.866 50.5657C60.4639 49.5914 59.9071 48.7562 59.1879 48.0448C58.4688 47.3411 57.6259 46.7843 56.6515 46.3822C55.6772 45.9801 54.6255 45.779 53.4888 45.779C52.3288 45.779 51.2617 45.9724 50.2951 46.3668C49.3207 46.7611 48.4701 47.3179 47.7509 48.0293C47.024 48.7485 46.4595 49.5837 46.0574 50.5503C45.6553 51.5092 45.4542 52.5608 45.4542 53.7053C45.4542 54.8266 45.6553 55.8628 46.0574 56.8294C46.4595 57.7883 47.024 58.6389 47.7509 59.3658C48.4778 60.0927 49.3284 60.6495 50.2951 61.0439C51.2617 61.4383 52.3288 61.6316 53.4888 61.6316ZM53.048 41.7192L48.0989 37.8914H51.6947L55.7004 41.7192H53.048Z" fill="black"/>
<path d="M68.9237 64.0134V43.3973H71.87V64.0134H68.9237Z" fill="black"/>
<path d="M90.0657 64.0134V45.9569H82.9978V43.3973H100.049V45.9569H92.981V64.0134H90.0657Z" fill="black"/>
<path d="M103.258 64.0134V43.3973H111.301C113.11 43.3973 114.649 43.6834 115.925 44.2479C117.201 44.8202 118.183 45.6399 118.871 46.7225C119.559 47.8051 119.9 49.0888 119.9 50.5812C119.9 52.0737 119.559 53.3574 118.871 54.4245C118.183 55.4916 117.201 56.3113 115.925 56.8836C114.649 57.4558 113.11 57.7342 111.301 57.7342H104.882L106.205 56.3809V64.0056H103.258V64.0134ZM106.205 56.6825L104.882 55.2365H111.215C113.102 55.2365 114.533 54.8266 115.5 54.0147C116.474 53.2027 116.953 52.0582 116.953 50.5812C116.953 49.1042 116.466 47.9675 115.5 47.1633C114.533 46.359 113.102 45.9569 111.215 45.9569H104.882L106.205 44.4877V56.6825ZM117.046 64.0134L111.803 56.5356H114.958L120.263 64.0134H117.046Z" fill="black"/>
<path d="M121.555 64.0134L130.888 43.3973H133.804L143.168 64.0134H140.075L131.739 45.0444H132.914L124.578 64.0134H121.555ZM125.529 58.8632L126.326 56.5047H137.933L138.784 58.8632H125.529Z" fill="black"/>
<path d="M146.23 64.0134V43.3973H148.642L162.276 60.3325H161.007V43.3973H163.954V64.0134H161.541L147.908 47.0782H149.176V64.0134H146.23Z" fill="black"/>
<path d="M179.451 64.2531C177.858 64.2531 176.397 63.9901 175.067 63.472C173.729 62.9539 172.577 62.2193 171.594 61.2604C170.612 60.3093 169.847 59.1957 169.298 57.9198C168.749 56.6439 168.47 55.2364 168.47 53.7053C168.47 52.1742 168.749 50.7668 169.298 49.4909C169.847 48.2149 170.62 47.1014 171.61 46.1502C172.6 45.1991 173.767 44.4645 175.097 43.9386C176.428 43.4128 177.905 43.1576 179.513 43.1576C181.145 43.1576 182.637 43.4205 183.99 43.9541C185.344 44.4877 186.496 45.2764 187.439 46.3436L185.614 48.1686C184.771 47.3411 183.851 46.7379 182.861 46.359C181.872 45.9724 180.797 45.7868 179.637 45.7868C178.461 45.7868 177.363 45.9801 176.35 46.3745C175.337 46.7689 174.463 47.3179 173.729 48.0216C172.994 48.7253 172.422 49.5682 172.02 50.5425C171.618 51.5169 171.417 52.5686 171.417 53.7053C171.417 54.8266 171.618 55.8706 172.02 56.8449C172.422 57.8193 172.994 58.6622 173.729 59.3813C174.463 60.1005 175.337 60.6495 176.335 61.0439C177.332 61.4383 178.423 61.6316 179.606 61.6316C180.704 61.6316 181.763 61.4615 182.769 61.1135C183.782 60.7733 184.717 60.1933 185.583 59.389L187.261 61.6239C186.241 62.49 185.05 63.1395 183.681 63.5803C182.312 64.0288 180.905 64.2531 179.451 64.2531ZM184.431 61.2449V53.5893H187.261V61.6316L184.431 61.2449Z" fill="black"/>
<path d="M59.5198 24.5598C60.1152 24.7996 60.788 24.9929 61.5071 25.1321C62.234 25.2713 63.0846 25.3486 64.0358 25.3486C65.072 25.3486 66.0232 25.2326 66.8661 25.0006C67.7012 24.7686 68.4359 24.4284 69.039 23.9799C69.6345 23.5314 70.1062 22.9668 70.431 22.2863C70.7557 21.5981 70.9181 20.7862 70.9181 19.8505C70.9181 19.054 70.8021 18.3657 70.5624 17.8012C70.3304 17.2445 70.0211 16.7728 69.6422 16.3938C69.2633 16.0072 68.8225 15.6979 68.3353 15.4504C67.8404 15.203 67.33 14.9942 66.8274 14.8473C66.317 14.7003 65.8144 14.5843 65.3427 14.4993C64.8555 14.4142 64.4224 14.3214 64.0667 14.2441C63.5873 14.1204 63.0924 14.0044 62.582 13.8884C62.0562 13.7646 61.5767 13.6177 61.1437 13.4399C60.6952 13.262 60.3163 13.03 60.0224 12.7594C59.7053 12.4655 59.543 12.0866 59.543 11.6535C59.543 11.2282 59.6744 10.8493 59.9451 10.5477C60.1925 10.2616 60.5096 10.0219 60.8808 9.83631C61.2442 9.65845 61.6386 9.52699 62.0484 9.44966C62.4583 9.37233 62.8217 9.32593 63.1388 9.32593C64.0667 9.32593 64.9637 9.49605 65.8066 9.82857C66.5799 10.1379 67.3919 10.5787 68.2271 11.1354L69.9592 8.69182C69.4566 8.33611 68.9771 8.03452 68.5364 7.7716C68.0492 7.47775 67.5388 7.23804 67.0284 7.04471C66.5181 6.85139 65.9536 6.70446 65.3581 6.60393C64.7627 6.5034 64.0667 6.457 63.3012 6.457C62.5356 6.457 61.7314 6.54206 60.904 6.71219C60.092 6.87458 59.3419 7.16071 58.6769 7.56282C58.0196 7.9572 57.4783 8.51397 57.0529 9.2022C56.6354 9.89043 56.4188 10.7643 56.4188 11.8082C56.4188 12.5196 56.5348 13.146 56.7668 13.6718C56.9988 14.1977 57.3159 14.6539 57.7025 15.0329C58.0892 15.4118 58.5377 15.7365 59.0249 15.9917C59.5198 16.2469 60.0379 16.4634 60.5482 16.6181C61.0664 16.7728 61.569 16.9042 62.0562 16.997C62.5511 17.0898 62.9841 17.1671 63.3553 17.2367C63.9121 17.3295 64.4611 17.4533 64.987 17.5693C65.5205 17.6853 65.9922 17.8476 66.3866 18.0178C66.7965 18.2033 67.1367 18.4431 67.3842 18.7292C67.6471 19.0385 67.7863 19.4097 67.7863 19.835C67.7863 20.1598 67.7012 20.4923 67.5311 20.8171C67.361 21.1496 67.1058 21.4357 66.7733 21.6909C66.4485 21.9306 66.0464 22.1394 65.5901 22.2863C65.1261 22.441 64.5848 22.5183 63.9894 22.5183C62.8681 22.5183 61.7855 22.2709 60.7648 21.7992C59.8291 21.3584 58.9011 20.8326 58.0196 20.2294L56.326 22.7194C56.8364 23.0751 57.3391 23.4076 57.8262 23.7092C58.3444 24.034 58.9166 24.3201 59.5198 24.5598Z" fill="black"/>
<path d="M87.1653 24.9929H90.2972V6.73538H87.1653V14.8318H77.4914V6.73538H74.3596V24.9929H77.4914V17.5538H87.1653V24.9929Z" fill="black"/>
<path d="M96.6455 22.5648C97.4961 23.4154 98.5092 24.1036 99.6536 24.5985C100.798 25.0934 102.028 25.3486 103.327 25.3486C104.634 25.3486 105.879 25.0934 107.023 24.5985C108.168 24.1036 109.181 23.4154 110.031 22.5648C110.882 21.7141 111.57 20.7011 112.065 19.5566C112.56 18.4122 112.815 17.1749 112.815 15.8603C112.815 14.5689 112.568 13.3316 112.065 12.1794C111.57 11.0272 110.882 10.0142 110.031 9.15582C109.181 8.29747 108.168 7.61697 107.023 7.11432C105.879 6.61942 104.641 6.36423 103.327 6.36423C102.035 6.36423 100.798 6.61942 99.6536 7.11432C98.5092 7.61697 97.4961 8.29747 96.6455 9.15582C95.7949 10.0064 95.1067 11.0272 94.6117 12.1794C94.1168 13.3316 93.8694 14.5612 93.8694 15.8603C93.8694 17.1749 94.1168 18.4122 94.6117 19.5566C95.1067 20.7011 95.7949 21.7141 96.6455 22.5648ZM97.4884 13.3625C97.8209 12.5661 98.2772 11.8546 98.8494 11.2592C99.4216 10.6637 100.094 10.1766 100.852 9.82086C101.618 9.45741 102.453 9.27181 103.335 9.27181C104.208 9.27181 105.051 9.45741 105.817 9.82086C106.582 10.1766 107.255 10.6637 107.82 11.2592C108.392 11.8546 108.848 12.5661 109.181 13.3625C109.513 14.159 109.683 15.0019 109.683 15.8603C109.683 16.7418 109.513 17.5847 109.181 18.3812C108.848 19.17 108.392 19.8737 107.82 20.4769C107.255 21.08 106.575 21.5749 105.817 21.9307C105.051 22.2941 104.216 22.4797 103.335 22.4797C102.453 22.4797 101.618 22.2941 100.852 21.9307C100.094 21.5672 99.4139 21.08 98.8494 20.4769C98.2849 19.866 97.8286 19.1623 97.4884 18.3812C97.1559 17.5847 96.9858 16.7418 96.9858 15.8603C96.9935 15.0019 97.1636 14.159 97.4884 13.3625Z" fill="black"/>
<path d="M120.773 25.0238L126.023 13.7956L131.227 24.9929H131.289L138.102 6.75861H134.769L130.903 17.3992L126.008 6.82047L121.113 17.376L117.331 6.75861H113.998L120.742 25.0238H120.773Z" fill="black"/>
<path d="M156.754 24.9929V6.75861H153.63V18.3426L141.017 6.75861H140.948V24.9929H144.079V13.5868L156.684 24.9929H156.754Z" fill="black"/>
<path d="M164.936 6.75861H161.804V24.9929H164.936V6.75861Z" fill="black"/>
<path d="M171.763 22.5648C172.622 23.4154 173.635 24.1036 174.779 24.5985C175.924 25.0934 177.153 25.3486 178.445 25.3486C179.752 25.3486 180.997 25.0934 182.141 24.5985C182.775 24.3201 183.378 23.9876 183.935 23.5855L184.09 23.4772L185.868 25.2558L187.755 23.369L185.992 21.6059L186.1 21.4512C186.526 20.8712 186.889 20.2294 187.183 19.5566C187.678 18.4122 187.933 17.1749 187.933 15.8603C187.933 14.5689 187.678 13.3316 187.183 12.1794C186.688 11.0272 186 10.0142 185.149 9.15582C184.291 8.29747 183.286 7.61697 182.133 7.11432C180.989 6.61942 179.744 6.36423 178.437 6.36423C177.146 6.36423 175.908 6.61942 174.772 7.11432C173.627 7.61697 172.614 8.29747 171.756 9.15582C170.905 10.0064 170.217 11.0272 169.722 12.1794C169.227 13.3316 168.972 14.5689 168.972 15.8603C168.972 17.1749 169.219 18.4122 169.722 19.5566C170.225 20.7011 170.913 21.7141 171.763 22.5648ZM172.614 13.3625C172.947 12.5661 173.403 11.8546 173.975 11.2592C174.54 10.6637 175.22 10.1766 175.978 9.82086C176.743 9.45741 177.579 9.27181 178.46 9.27181C179.334 9.27181 180.169 9.45741 180.942 9.82086C181.708 10.1766 182.381 10.6637 182.945 11.2592C183.518 11.8546 183.974 12.5661 184.306 13.3625C184.639 14.159 184.809 15.0019 184.809 15.8603C184.809 16.7418 184.639 17.5847 184.306 18.3812C184.206 18.6132 184.09 18.8529 183.935 19.1391L183.788 19.3943L181.461 17.0666L179.574 18.9535L181.955 21.3429L181.723 21.4976C181.445 21.6755 181.198 21.8147 180.942 21.9384C180.177 22.3018 179.342 22.4874 178.46 22.4874C177.579 22.4874 176.743 22.3018 175.978 21.9384C175.212 21.5749 174.54 21.0878 173.975 20.4846C173.403 19.8737 172.947 19.17 172.614 18.389C172.282 17.5925 172.111 16.7496 172.111 15.868C172.104 15.0019 172.274 14.159 172.614 13.3625Z" fill="black"/>
<path d="M6.83592 103.304V85.9285H0V82.6884H17.4919V85.9285H10.656V103.304H6.83592Z" fill="black"/>
<path d="M24.2121 103.304H20.3843V82.6884H24.2121V103.304ZM35.1697 94.4734H23.8874V91.2024H35.1697V94.4734ZM34.8759 82.6884H38.7037V103.304H34.8759V82.6884Z" fill="black"/>
<path d="M41.3252 103.304L50.6047 82.6884H54.3784L63.6889 103.304H59.6832L51.7028 84.7222H53.2339L45.2845 103.304H41.3252ZM45.5938 98.5332L46.6223 95.5329H57.7577L58.7862 98.5332H45.5938ZM46.862 81.0104L50.8058 76.9738H54.1619L58.1057 81.0104H55.0744L51.0687 77.6234H53.899L49.8933 81.0104H46.862ZM52.4838 109.29C51.9967 109.29 51.5791 109.135 51.2311 108.818C50.8831 108.501 50.713 108.083 50.713 107.55C50.713 107.016 50.8831 106.591 51.2311 106.251C51.5714 105.918 51.9889 105.748 52.4838 105.748C52.9788 105.748 53.3886 105.91 53.7366 106.251C54.0768 106.583 54.2547 107.016 54.2547 107.55C54.2547 108.083 54.0846 108.501 53.7366 108.818C53.3963 109.127 52.9788 109.29 52.4838 109.29Z" fill="black"/>
<path d="M69.4494 103.304V85.9285H62.6135V82.6884H80.1054V85.9285H73.2695V103.304H69.4494Z" fill="black"/>
<path d="M91.1249 103.304V82.6884H100.134C102.369 82.6884 104.333 83.1215 106.026 83.9875C107.72 84.8536 109.027 86.0523 109.97 87.5834C110.914 89.1145 111.385 90.924 111.385 93.0042C111.385 95.0689 110.914 96.8707 109.97 98.4095C109.027 99.9484 107.712 101.155 106.026 102.021C104.341 102.887 102.376 103.32 100.134 103.32H91.1249V103.304ZM94.9527 100.064H99.956C101.51 100.064 102.848 99.7705 103.977 99.1828C105.106 98.5951 105.98 97.7677 106.599 96.7083C107.217 95.6488 107.527 94.4116 107.527 92.9964C107.527 91.5659 107.217 90.3208 106.599 89.2692C105.98 88.2175 105.106 87.3978 103.977 86.8101C102.848 86.2224 101.51 85.9285 99.956 85.9285H94.9527V100.064Z" fill="black"/>
<path d="M119.281 100.095H130.911V103.304H115.445V82.6884H130.494V85.8976H119.273V100.095H119.281ZM117.402 81.0104L121.376 77.8553H124.678L128.653 81.0104H125.591L121.647 78.5049H124.415L120.472 81.0104H117.402ZM125.173 76.8578C124.508 76.8578 123.936 76.7263 123.464 76.4634C122.993 76.2005 122.567 75.9298 122.196 75.6669C121.825 75.404 121.461 75.2725 121.106 75.2725C120.673 75.2725 120.356 75.404 120.147 75.6592C119.938 75.9144 119.83 76.2546 119.807 76.6876H117.804C117.827 75.6282 118.113 74.8008 118.67 74.2131C119.227 73.6254 119.977 73.3315 120.92 73.3315C121.57 73.3315 122.119 73.463 122.583 73.7259C123.047 73.9889 123.464 74.2518 123.851 74.507C124.238 74.7622 124.609 74.8936 124.988 74.8936C125.398 74.8936 125.715 74.7699 125.931 74.5224C126.148 74.275 126.264 73.9347 126.287 73.5094H128.228C128.205 74.5534 127.926 75.373 127.377 75.9685C126.836 76.5639 126.094 76.8578 125.173 76.8578ZM118.987 91.2643H129.233V94.4116H118.987V91.2643Z" fill="black"/>
<path d="M143.315 103.304V82.6884H152.324C154.559 82.6884 156.523 83.1215 158.216 83.9875C159.91 84.8536 161.217 86.0523 162.16 87.5834C163.103 89.1145 163.575 90.924 163.575 93.0042C163.575 95.0689 163.103 96.8707 162.16 98.4095C161.217 99.9484 159.902 101.155 158.216 102.021C156.53 102.887 154.566 103.32 152.324 103.32H143.315V103.304ZM147.143 100.064H152.146C153.7 100.064 155.038 99.7705 156.167 99.1828C157.296 98.5951 158.17 97.7677 158.788 96.7083C159.407 95.6488 159.716 94.4116 159.716 92.9964C159.716 91.5659 159.407 90.3208 158.788 89.2692C158.17 88.2175 157.296 87.3978 156.167 86.8101C155.038 86.2224 153.7 85.9285 152.146 85.9285H147.143V100.064Z" fill="black"/>
<path d="M164.433 103.304L173.713 82.6884H177.486L186.797 103.304H182.791L174.811 84.7222H176.342L168.392 103.304H164.433ZM168.702 98.5332L169.73 95.5329H180.866L181.894 98.5332H168.702ZM174.888 81.0104L169.761 76.9738H174.092L178.066 81.0104H174.888Z" fill="black"/>
<path d="M189.411 103.304V82.6884H192.566L205.496 98.5642H203.934V82.6884H207.731V103.304H204.576L191.646 87.4287H193.208V103.304H189.411Z" fill="black"/>
<path d="M222.894 103.598C221.286 103.598 219.809 103.335 218.463 102.817C217.118 102.299 215.943 101.565 214.945 100.606C213.947 99.6545 213.166 98.5255 212.617 97.2341C212.068 95.9427 211.79 94.5276 211.79 92.9965C211.79 91.4653 212.068 90.0502 212.617 88.7588C213.166 87.4674 213.947 86.3384 214.96 85.3872C215.973 84.4361 217.157 83.7014 218.51 83.1756C219.863 82.6498 221.348 82.3946 222.956 82.3946C224.704 82.3946 226.281 82.6807 227.681 83.2452C229.081 83.8174 230.264 84.6526 231.231 85.7507L228.818 88.1092C228.014 87.305 227.14 86.7095 226.212 86.3306C225.276 85.944 224.255 85.7584 223.134 85.7584C222.052 85.7584 221.054 85.9363 220.134 86.292C219.214 86.6477 218.417 87.1503 217.752 87.7922C217.087 88.434 216.569 89.2073 216.205 90.0889C215.842 90.9704 215.656 91.9448 215.656 93.0042C215.656 94.0481 215.834 95.007 216.205 95.8886C216.569 96.7701 217.087 97.5434 217.752 98.2007C218.417 98.858 219.206 99.3606 220.111 99.7164C221.015 100.072 222.013 100.25 223.111 100.25C224.132 100.25 225.122 100.088 226.073 99.7628C227.024 99.438 227.936 98.8967 228.795 98.1311L230.975 100.992C229.893 101.858 228.648 102.508 227.217 102.949C225.787 103.382 224.348 103.598 222.894 103.598ZM227.341 100.482V92.7644H230.96V100.985L227.341 100.482Z" fill="black"/>
</svg>
