<svg width="186" height="15" viewBox="0 0 186 15" fill="none" xmlns="http://www.w3.org/2000/svg">
<path d="M-6.10352e-05 11.3674V1.97186H1.09802L7.30758 9.68935H6.73534V1.97186H8.08087V11.3674H6.98279L0.773234 3.64992H1.35321V11.3674H-6.10352e-05Z" fill="black"/>
<path d="M14.5067 4.19123C15.0866 4.19123 15.597 4.30724 16.0455 4.52376C16.4863 4.74802 16.8343 5.08825 17.0817 5.54449C17.3292 6.00074 17.4606 6.58072 17.4606 7.27669V11.3674H16.1692V7.42362C16.1692 6.73538 15.9991 6.21727 15.6666 5.86929C15.3341 5.5213 14.8624 5.34345 14.2515 5.34345C13.7952 5.34345 13.3931 5.43623 13.0606 5.61409C12.7281 5.79194 12.4574 6.05488 12.2796 6.40286C12.1017 6.75084 12.0012 7.18388 12.0012 7.70199V11.3674H10.7098V1.4151H12.0012V6.1786L11.746 5.66822C11.978 5.20425 12.3337 4.84079 12.8209 4.57787C13.3003 4.32269 13.8648 4.19123 14.5067 4.19123Z" fill="black"/>
<path d="M21.9308 11.4525C21.4049 11.4525 20.9409 11.3597 20.5388 11.1818C20.1367 11.004 19.8351 10.7565 19.6186 10.4395C19.4021 10.1224 19.2938 9.75898 19.2938 9.35687C19.2938 8.97022 19.3866 8.62223 19.5722 8.31291C19.7578 7.99586 20.0516 7.74841 20.4692 7.56282C20.8868 7.37723 21.4436 7.28442 22.155 7.28442H24.413V8.21238H22.2091C21.5673 8.21238 21.1343 8.32063 20.91 8.53715C20.6858 8.75368 20.5775 9.00887 20.5775 9.31819C20.5775 9.66617 20.7167 9.94457 20.9951 10.1534C21.2735 10.3621 21.6601 10.4704 22.1473 10.4704C22.6267 10.4704 23.052 10.3621 23.4155 10.1456C23.7789 9.9291 24.0419 9.61979 24.2042 9.20994L24.4594 10.0992C24.2893 10.5168 23.9877 10.8493 23.5624 11.0968C23.1216 11.3288 22.5803 11.4525 21.9308 11.4525ZM24.2661 11.3674V9.86722L24.1965 9.58885V7.02924C24.1965 6.4802 24.0341 6.06261 23.7171 5.76103C23.4 5.45944 22.9206 5.31253 22.2865 5.31253C21.8689 5.31253 21.4513 5.38211 21.0492 5.52131C20.6471 5.6605 20.3068 5.84609 20.0285 6.07808L19.4949 5.11146C19.8583 4.81761 20.2991 4.59335 20.8172 4.43096C21.3353 4.2763 21.8689 4.19898 22.4334 4.19898C23.4078 4.19898 24.1578 4.43871 24.6914 4.91042C25.225 5.38213 25.4802 6.10903 25.4802 7.08338V11.3752H24.2661V11.3674ZM20.129 3.22462L21.9153 1.47699H23.1526L24.9389 3.22462H23.7712L22.0004 1.74762H23.0752L21.3044 3.22462H20.129ZM22.503 14.0044C22.3174 14.0044 22.155 13.9425 22.0236 13.8188C21.8921 13.695 21.8225 13.5327 21.8225 13.3393C21.8225 13.1305 21.8921 12.9682 22.0236 12.8367C22.155 12.7052 22.3174 12.6434 22.503 12.6434C22.6886 12.6434 22.851 12.7052 22.9824 12.8367C23.1139 12.9682 23.1835 13.1305 23.1835 13.3393C23.1835 13.5327 23.1139 13.695 22.9824 13.8188C22.851 13.9348 22.6963 14.0044 22.503 14.0044Z" fill="black"/>
<path d="M31.6664 4.19122C32.2464 4.19122 32.7567 4.30724 33.2052 4.52376C33.646 4.74801 33.994 5.08825 34.2415 5.54449C34.4889 6.00073 34.6204 6.58072 34.6204 7.27669V11.3674H33.329V7.42361C33.329 6.73538 33.1588 6.21727 32.8263 5.86928C32.4938 5.5213 32.0221 5.34345 31.4112 5.34345C30.955 5.34345 30.5528 5.43623 30.2203 5.61408C29.8878 5.79194 29.6172 6.05488 29.4393 6.40286C29.2614 6.75084 29.1609 7.18388 29.1609 7.70199V11.3674H27.8695V4.2531H29.1068V6.17086L28.9057 5.6605C29.1377 5.19653 29.4934 4.83307 29.9806 4.57015C30.46 4.3227 31.0246 4.19122 31.6664 4.19122Z" fill="black"/>
<path d="M43.5596 11.4525C42.8714 11.4525 42.2527 11.2978 41.7114 10.9962C41.1701 10.6947 40.7448 10.2694 40.4278 9.72031C40.1107 9.17128 39.9561 8.53716 39.9561 7.81799C39.9561 7.09883 40.1107 6.457 40.4278 5.91569C40.7448 5.37439 41.1701 4.94906 41.7114 4.64748C42.2527 4.34589 42.8714 4.19124 43.5596 4.19124C44.1628 4.19124 44.6963 4.32271 45.1835 4.59337C45.663 4.86402 46.0496 5.26613 46.3435 5.7997C46.6373 6.34101 46.7765 7.00605 46.7765 7.81028C46.7765 8.6145 46.6373 9.28725 46.3512 9.82082C46.0651 10.3544 45.6862 10.7642 45.2067 11.0349C44.7273 11.3133 44.1705 11.4525 43.5596 11.4525ZM43.6601 10.3235C44.1086 10.3235 44.5108 10.2229 44.8742 10.0141C45.2377 9.80536 45.5238 9.51925 45.7326 9.1326C45.9414 8.75369 46.0496 8.31292 46.0496 7.81028C46.0496 7.2999 45.9414 6.85911 45.7326 6.48792C45.5238 6.11674 45.2377 5.83063 44.8742 5.62184C44.5108 5.41305 44.1086 5.31252 43.6601 5.31252C43.2039 5.31252 42.794 5.41305 42.4383 5.62184C42.0826 5.83063 41.7965 6.11674 41.58 6.48792C41.3635 6.85911 41.2552 7.2999 41.2552 7.81028C41.2552 8.31292 41.3635 8.75369 41.58 9.1326C41.7965 9.51152 42.0826 9.80536 42.4383 10.0141C42.794 10.2229 43.2039 10.3235 43.6601 10.3235ZM43.2348 3.30969V2.39721H48.5474V3.30969H43.2348ZM46.0883 11.3674V9.44966L46.1656 7.80253L46.0341 6.15541V1.42285H47.3256V11.3829H46.0883V11.3674Z" fill="black"/>
<path d="M52.932 11.4525C52.1742 11.4525 51.5014 11.2978 50.9292 10.9808C50.3569 10.6637 49.9007 10.2384 49.5836 9.68938C49.2666 9.14034 49.1042 8.51398 49.1042 7.81028C49.1042 7.10658 49.2588 6.48019 49.5682 5.93115C49.8775 5.38211 50.3028 4.9568 50.8441 4.64748C51.3854 4.33816 51.9963 4.18352 52.6768 4.18352C53.365 4.18352 53.9759 4.33818 54.5018 4.63976C55.0276 4.94135 55.4452 5.3744 55.7468 5.92344C56.0484 6.47248 56.1953 7.1143 56.1953 7.84893C56.1953 7.90306 56.1953 7.96492 56.1876 8.03452C56.1798 8.10411 56.1798 8.17372 56.1644 8.23558H50.1095V7.30762H55.4916L54.9658 7.63241C54.9735 7.17617 54.8807 6.76631 54.6874 6.41059C54.4941 6.05488 54.2234 5.7765 53.8754 5.57544C53.5274 5.37439 53.133 5.27387 52.6768 5.27387C52.2283 5.27387 51.8339 5.37439 51.4859 5.57544C51.138 5.7765 50.8673 6.05488 50.6662 6.41833C50.4729 6.78178 50.3724 7.19163 50.3724 7.65561V7.87213C50.3724 8.34384 50.4806 8.76916 50.7049 9.14035C50.9214 9.51153 51.2307 9.79764 51.6251 10.0064C52.0195 10.2152 52.468 10.3157 52.9784 10.3157C53.396 10.3157 53.7826 10.2461 54.1229 10.0992C54.4631 9.96003 54.7647 9.74349 55.0276 9.45738L55.7391 10.2925C55.4143 10.6715 55.0199 10.9576 54.5404 11.1509C54.061 11.352 53.5274 11.4525 52.932 11.4525ZM50.2641 3.22462L52.0659 1.87909H53.2722L55.074 3.22462H53.8909L52.1355 2.13427H53.2104L51.455 3.22462H50.2641ZM54.8034 2.04922L52.816 0.533569H54.2775L55.8473 2.04922H54.8034Z" fill="black"/>
<path d="M60.5563 11.3674L63.6186 7.39269L63.6031 8.04999L60.6878 4.25311H62.1261L64.3532 7.17617H63.8042L66.0313 4.25311H67.4387L64.4847 8.08091L64.5001 7.39269L67.5856 11.3674H66.1241L63.7732 8.25103L64.2991 8.32837L61.9947 11.3597H60.5563V11.3674Z" fill="black"/>
<path d="M71.8543 11.4525C71.2434 11.4525 70.7098 11.3442 70.2536 11.1199C69.7973 10.8957 69.4339 10.5554 69.1787 10.0915C68.9235 9.62748 68.7998 9.04751 68.7998 8.35154V4.2608H70.0912V8.20461C70.0912 8.90058 70.2613 9.42642 70.5938 9.7744C70.9264 10.1224 71.3981 10.3003 72.009 10.3003C72.4575 10.3003 72.8441 10.2075 73.1766 10.0219C73.5092 9.83627 73.7644 9.57334 73.9422 9.21763C74.1201 8.86191 74.2129 8.4366 74.2129 7.93395V4.2608H75.5043V11.3751H74.2825V9.45735L74.4835 9.96772C74.2515 10.4394 73.9036 10.8106 73.4396 11.0658C72.9756 11.321 72.4343 11.4525 71.8543 11.4525Z" fill="black"/>
<path d="M80.0283 11.4525C79.5024 11.4525 79.0385 11.3597 78.6364 11.1818C78.2342 11.004 77.9327 10.7565 77.7161 10.4395C77.4996 10.1224 77.3914 9.75898 77.3914 9.35687C77.3914 8.97022 77.4841 8.62223 77.6697 8.31291C77.8553 7.99586 78.1492 7.74841 78.5668 7.56282C78.9843 7.37723 79.5411 7.28442 80.2525 7.28442H82.5106V8.21238H80.3067C79.6648 8.21238 79.2318 8.32063 79.0075 8.53715C78.7833 8.75368 78.675 9.00887 78.675 9.31819C78.675 9.66617 78.8142 9.94457 79.0926 10.1534C79.371 10.3621 79.7576 10.4704 80.2448 10.4704C80.7242 10.4704 81.1496 10.3621 81.513 10.1456C81.8765 9.9291 82.1394 9.61979 82.3018 9.20994L82.557 10.0992C82.3868 10.5168 82.0852 10.8493 81.6599 11.0968C81.2192 11.3288 80.6779 11.4525 80.0283 11.4525ZM82.3636 11.3674V9.86722L82.294 9.58885V7.02924C82.294 6.4802 82.1316 6.06261 81.8146 5.76103C81.4975 5.45944 81.0181 5.31253 80.384 5.31253C79.9664 5.31253 79.5488 5.38211 79.1467 5.52131C78.7446 5.6605 78.4044 5.84609 78.126 6.07808L77.5924 5.11146C77.9559 4.81761 78.3966 4.59335 78.9147 4.43096C79.4328 4.2763 79.9664 4.19898 80.5309 4.19898C81.5053 4.19898 82.2554 4.43871 82.789 4.91042C83.3225 5.38213 83.5777 6.10903 83.5777 7.08338V11.3752H82.3636V11.3674ZM78.2265 3.22462L80.0283 1.87909H81.2346L83.0364 3.22462H81.8533L80.0979 2.13427H81.1728L79.4174 3.22462H78.2265ZM81.9615 2.04922L83.5468 0.533569H85.0083L83.0209 2.04922H81.9615Z" fill="black"/>
<path d="M84.9544 5.32025V4.26082H89.4859V5.32025H84.9544ZM88.411 11.4525C87.6919 11.4525 87.1428 11.2592 86.7484 10.8725C86.3541 10.4859 86.1607 9.93681 86.1607 9.22538V2.70651H87.4521V9.17125C87.4521 9.55789 87.5449 9.85174 87.7383 10.0605C87.9316 10.2693 88.2022 10.3699 88.5657 10.3699C88.9678 10.3699 89.3003 10.2616 89.571 10.0373L89.9731 10.9653C89.7798 11.1354 89.54 11.2591 89.2694 11.3442C88.991 11.4138 88.7049 11.4525 88.411 11.4525Z" fill="black"/>
<path d="M98.9272 4.19123C99.5072 4.19123 100.018 4.30724 100.466 4.52376C100.907 4.74802 101.255 5.08825 101.502 5.54449C101.75 6.00074 101.881 6.58072 101.881 7.27669V11.3674H100.59V7.42362C100.59 6.73538 100.42 6.21727 100.087 5.86929C99.7546 5.5213 99.2829 5.34345 98.672 5.34345C98.2158 5.34345 97.8137 5.43623 97.4811 5.61409C97.1486 5.79194 96.878 6.05488 96.7001 6.40286C96.5222 6.75084 96.4217 7.18388 96.4217 7.70199V11.3674H95.1303V1.4151H96.4217V6.1786L96.1665 5.66822C96.3985 5.20425 96.7542 4.84079 97.2414 4.57787C97.7209 4.32269 98.2854 4.19123 98.9272 4.19123Z" fill="black"/>
<path d="M106.351 11.4525C105.825 11.4525 105.361 11.3597 104.959 11.1818C104.557 11.004 104.256 10.7565 104.039 10.4395C103.823 10.1224 103.714 9.75898 103.714 9.35686C103.714 8.97021 103.807 8.62223 103.993 8.31291C104.178 7.99586 104.472 7.7484 104.89 7.56281C105.307 7.37722 105.864 7.28441 106.576 7.28441H108.834V8.21238H106.63C105.988 8.21238 105.555 8.32063 105.331 8.53715C105.106 8.75367 104.998 9.00887 104.998 9.31818C104.998 9.66617 105.137 9.94457 105.416 10.1534C105.694 10.3621 106.081 10.4704 106.568 10.4704C107.047 10.4704 107.473 10.3621 107.836 10.1456C108.199 9.92909 108.462 9.61978 108.625 9.20993L108.88 10.0992C108.71 10.5168 108.408 10.8493 107.983 11.0968C107.542 11.3288 107.001 11.4525 106.351 11.4525ZM108.687 11.3674V9.86722L108.617 9.58884V7.02924C108.617 6.4802 108.455 6.06261 108.138 5.76102C107.821 5.45944 107.341 5.31252 106.707 5.31252C106.289 5.31252 105.872 5.38211 105.47 5.5213C105.068 5.6605 104.727 5.84609 104.449 6.07808L103.915 5.11146C104.279 4.8176 104.72 4.59335 105.238 4.43095C105.756 4.27629 106.289 4.19897 106.854 4.19897C107.828 4.19897 108.578 4.43871 109.112 4.91042C109.646 5.38213 109.901 6.10902 109.901 7.08337V11.3752H108.687V11.3674Z" fill="black"/>
<path d="M112.468 14.0507C112.128 14.0507 111.795 13.9966 111.478 13.8806C111.153 13.7723 110.875 13.6022 110.643 13.3935L111.192 12.4268C111.37 12.597 111.571 12.7284 111.78 12.8135C111.996 12.9063 112.221 12.9449 112.468 12.9449C112.777 12.9449 113.04 12.8676 113.249 12.7052C113.458 12.5428 113.643 12.2567 113.829 11.8469L114.27 10.8648L114.401 10.7024L117.193 4.24536H118.453L115.004 12.0711C114.796 12.5737 114.571 12.9681 114.316 13.2542C114.061 13.5404 113.783 13.7414 113.481 13.8652C113.179 13.9889 112.839 14.0507 112.468 14.0507ZM114.162 11.5994L110.914 4.26082H112.259L115.02 10.5941L114.162 11.5994Z" fill="black"/>
<path d="M132.164 4.19122C132.736 4.19122 133.239 4.30724 133.68 4.52376C134.12 4.74801 134.461 5.08825 134.708 5.54449C134.956 6.00073 135.079 6.58072 135.079 7.27669V11.3674H133.788V7.42361C133.788 6.73538 133.626 6.21727 133.309 5.86928C132.984 5.5213 132.535 5.34345 131.955 5.34345C131.522 5.34345 131.151 5.43623 130.826 5.61408C130.501 5.79194 130.254 6.05488 130.084 6.40286C129.914 6.75084 129.821 7.18388 129.821 7.70199V11.3674H128.53V7.42361C128.53 6.73538 128.367 6.21727 128.05 5.86928C127.733 5.5213 127.277 5.34345 126.689 5.34345C126.272 5.34345 125.9 5.43623 125.576 5.61408C125.251 5.79194 125.003 6.05488 124.825 6.40286C124.648 6.75084 124.555 7.18388 124.555 7.70199V11.3674H123.263V4.2531H124.501V6.14766L124.3 5.66822C124.524 5.20424 124.864 4.84079 125.336 4.57787C125.808 4.31495 126.341 4.19122 126.96 4.19122C127.64 4.19122 128.228 4.36137 128.715 4.69388C129.21 5.0264 129.527 5.53675 129.682 6.21725L129.156 6.00073C129.372 5.45169 129.744 5.01866 130.285 4.68614C130.826 4.36136 131.453 4.19122 132.164 4.19122Z" fill="black"/>
<path d="M140.5 11.4525C139.781 11.4525 139.147 11.2978 138.598 10.9807C138.041 10.6637 137.608 10.2384 137.283 9.68935C136.958 9.14031 136.804 8.51394 136.804 7.81797C136.804 7.11427 136.966 6.48791 137.283 5.93887C137.608 5.38983 138.041 4.96451 138.598 4.6552C139.154 4.34588 139.789 4.19121 140.5 4.19121C141.204 4.19121 141.838 4.34588 142.402 4.6552C142.959 4.96451 143.4 5.38982 143.717 5.93113C144.034 6.47243 144.196 7.09881 144.196 7.81797C144.196 8.52167 144.034 9.14803 143.717 9.69707C143.4 10.2461 142.959 10.6714 142.402 10.9885C141.838 11.2978 141.204 11.4525 140.5 11.4525ZM138.087 3.2246L139.889 1.87907H141.095L142.897 3.2246H141.714L139.959 2.13425H141.034L139.278 3.2246H138.087ZM140.5 10.3235C140.956 10.3235 141.366 10.2229 141.73 10.0141C142.093 9.80533 142.379 9.51923 142.58 9.13258C142.789 8.75367 142.889 8.31289 142.889 7.81025C142.889 7.29988 142.789 6.85908 142.58 6.4879C142.371 6.11672 142.093 5.8306 141.73 5.62182C141.366 5.41303 140.956 5.3125 140.5 5.3125C140.044 5.3125 139.634 5.41303 139.278 5.62182C138.922 5.8306 138.636 6.11672 138.42 6.4879C138.203 6.85908 138.095 7.29988 138.095 7.81025C138.095 8.31289 138.203 8.75367 138.42 9.13258C138.636 9.5115 138.922 9.80533 139.278 10.0141C139.634 10.2229 140.044 10.3235 140.5 10.3235ZM141.428 1.43057C141.142 1.43057 140.894 1.3687 140.693 1.2527C140.485 1.12898 140.299 1.01298 140.129 0.889254C139.959 0.765527 139.789 0.711388 139.618 0.711388C139.41 0.711388 139.263 0.77326 139.162 0.889254C139.062 1.00525 139.008 1.16763 139 1.38415H138.273C138.281 0.943372 138.404 0.60314 138.636 0.363419C138.868 0.123698 139.178 -3.05176e-05 139.564 -3.05176e-05C139.85 -3.05176e-05 140.098 0.061818 140.299 0.177812C140.5 0.301539 140.686 0.417535 140.863 0.541262C141.041 0.664989 141.211 0.719128 141.382 0.719128C141.575 0.719128 141.73 0.664997 141.83 0.549002C141.931 0.433008 141.992 0.27062 142 0.0695632H142.712C142.704 0.487142 142.58 0.819666 142.356 1.06712C142.132 1.31457 141.807 1.43057 141.428 1.43057Z" fill="black"/>
<path d="M146.616 2.89209C146.369 2.89209 146.16 2.81476 145.99 2.65237C145.828 2.48998 145.743 2.29665 145.743 2.06466C145.743 1.82494 145.828 1.62388 145.99 1.46149C146.152 1.2991 146.361 1.22177 146.616 1.22177C146.864 1.22177 147.073 1.29911 147.243 1.45377C147.413 1.60843 147.49 1.80176 147.49 2.03375C147.49 2.27347 147.413 2.48224 147.251 2.64463C147.088 2.80702 146.879 2.89209 146.616 2.89209ZM145.975 11.3674V4.2531H147.266V11.3674H145.975Z" fill="black"/>
<path d="M157.126 4.19122C157.706 4.19122 158.216 4.30724 158.665 4.52376C159.106 4.74801 159.454 5.08825 159.701 5.54449C159.949 6.00073 160.08 6.58072 160.08 7.27669V11.3674H158.789V7.42361C158.789 6.73538 158.618 6.21727 158.286 5.86928C157.953 5.5213 157.482 5.34345 156.871 5.34345C156.415 5.34345 156.012 5.43623 155.68 5.61408C155.347 5.79194 155.077 6.05488 154.899 6.40286C154.721 6.75084 154.621 7.18388 154.621 7.70199V11.3674H153.329V4.2531H154.566V6.17086L154.365 5.6605C154.597 5.19653 154.953 4.83307 155.44 4.57015C155.92 4.3227 156.476 4.19122 157.126 4.19122Z" fill="black"/>
<path d="M165.416 11.0736C164.728 11.0736 164.109 10.9266 163.568 10.6405C163.026 10.3466 162.593 9.94455 162.276 9.42644C161.959 8.90834 161.797 8.30515 161.797 7.62465C161.797 6.93642 161.959 6.33326 162.276 5.82289C162.593 5.30478 163.026 4.91039 163.568 4.62427C164.109 4.33815 164.728 4.19122 165.416 4.19122C166.027 4.19122 166.576 4.31496 167.078 4.56241C167.581 4.80987 167.983 5.18878 168.277 5.69916C168.579 6.20953 168.726 6.85137 168.726 7.6324C168.726 8.40569 168.579 9.0398 168.277 9.55017C167.975 10.0605 167.573 10.4394 167.078 10.6946C166.583 10.9498 166.027 11.0736 165.416 11.0736ZM165.578 14.0507C164.929 14.0507 164.295 13.9579 163.676 13.7724C163.065 13.5868 162.562 13.3238 162.183 12.9836L162.802 11.9938C163.135 12.2799 163.537 12.5041 164.024 12.6743C164.511 12.8444 165.014 12.9217 165.54 12.9217C166.382 12.9217 166.993 12.7284 167.388 12.334C167.782 11.9396 167.975 11.3442 167.975 10.5323V9.03206L168.107 7.62465L168.037 6.20179V4.2531H169.259V10.4008C169.259 11.6535 168.95 12.5738 168.323 13.1692C167.705 13.7569 166.785 14.0507 165.578 14.0507ZM165.563 9.95228C166.034 9.95228 166.46 9.85175 166.823 9.65842C167.187 9.4651 167.481 9.18672 167.689 8.83873C167.898 8.49075 168.006 8.08864 168.006 7.6324C168.006 7.17615 167.898 6.77404 167.689 6.42606C167.481 6.07807 167.187 5.80741 166.823 5.61408C166.46 5.42076 166.034 5.32797 165.563 5.32797C165.091 5.32797 164.666 5.42076 164.295 5.61408C163.923 5.80741 163.63 6.07807 163.421 6.42606C163.212 6.77404 163.104 7.17615 163.104 7.6324C163.104 8.08864 163.212 8.49075 163.421 8.83873C163.63 9.18672 163.923 9.45737 164.295 9.65842C164.666 9.85175 165.091 9.95228 165.563 9.95228Z" fill="black"/>
<path d="M173.805 11.4525C173.28 11.4525 172.816 11.3597 172.413 11.1818C172.011 11.004 171.71 10.7565 171.493 10.4395C171.277 10.1224 171.168 9.75898 171.168 9.35687C171.168 8.97022 171.261 8.62223 171.447 8.31291C171.632 7.99586 171.926 7.74841 172.344 7.56282C172.761 7.37723 173.318 7.28442 174.03 7.28442H176.288V8.21238H174.084C173.442 8.21238 173.009 8.32063 172.785 8.53715C172.56 8.75368 172.452 9.00887 172.452 9.31819C172.452 9.66617 172.591 9.94457 172.87 10.1534C173.148 10.3621 173.535 10.4704 174.022 10.4704C174.501 10.4704 174.927 10.3621 175.29 10.1456C175.654 9.9291 175.916 9.61979 176.079 9.20994L176.334 10.0992C176.164 10.5168 175.862 10.8493 175.437 11.0968C174.996 11.3288 174.455 11.4525 173.805 11.4525ZM176.141 11.3674V9.86722L176.071 9.58885V7.02924C176.071 6.4802 175.909 6.06261 175.592 5.76103C175.275 5.45944 174.795 5.31253 174.161 5.31253C173.744 5.31253 173.326 5.38211 172.924 5.52131C172.522 5.6605 172.181 5.84609 171.903 6.07808L171.37 5.11146C171.733 4.81761 172.174 4.59335 172.692 4.43096C173.21 4.2763 173.744 4.19898 174.308 4.19898C175.282 4.19898 176.032 4.43871 176.566 4.91042C177.1 5.38213 177.355 6.10903 177.355 7.08338V11.3752H176.141V11.3674ZM174.208 3.22462L171.949 1.47699H173.589L175.414 3.22462H174.208Z" fill="black"/>
<path d="M179.922 14.0507C179.582 14.0507 179.249 13.9966 178.932 13.8806C178.608 13.7723 178.329 13.6022 178.097 13.3935L178.646 12.4268C178.824 12.597 179.025 12.7284 179.234 12.8135C179.45 12.9063 179.675 12.9449 179.922 12.9449C180.231 12.9449 180.494 12.8676 180.703 12.7052C180.912 12.5428 181.098 12.2567 181.283 11.8469L181.724 10.8648L181.855 10.7024L184.647 4.24536H185.907L182.459 12.0711C182.25 12.5737 182.026 12.9681 181.77 13.2542C181.515 13.5404 181.237 13.7414 180.935 13.8652C180.634 13.9889 180.286 14.0507 179.922 14.0507ZM181.608 11.5994L178.36 4.26082H179.706L182.466 10.5941L181.608 11.5994Z" fill="black"/>
</svg>
